SplineFontDB: 3.2
FontName: linja_laso
FullName: linja laso
FamilyName: linja laso
Weight: Regular
Copyright: Copyright (c) 2024-2025, mute ante

StartChar: .notdef
Encoding: 1114112 -1 0
Width: 866
GlyphClass: 1
Flags: MW
LayerCount: 2
Fore
SplineSet
102 51 m 1,0,-1
 764 51 l 1,1,-1
 764 526 l 1,2,-1
 102 526 l 1,3,-1
 102 51 l 1,0,-1
51 0 m 1,4,-1
 51 577 l 1,5,-1
 815 577 l 1,6,-1
 815 0 l 1,7,-1
 51 0 l 1,4,-1
EndSplineSet
EndChar

StartChar: a
Encoding: 97 97 6
Width: 433
GlyphClass: 1
Flags: MW
LayerCount: 2
Fore
SplineSet
207 463 m 0,0,1
 284 463 284 463 339 408 c 128,-1,2
 394 353 394 353 394 276 c 5,3,4
 394 276 394 276 394 0 c 5,5,-1
 315 0 l 1,6,7
 315 39 315 39 315 39 c 1,8,9
 262 0 262 0 197 0 c 0,10,11
 177 0 177 0 177 0 c 1,12,13
 120 0 120 0 79.5 40.5 c 128,-1,14
 39 81 39 81 39 138 c 128,-1,15
 39 195 39 195 79.5 235.5 c 128,-1,16
 120 276 120 276 177 276 c 0,17,18
 315 276 315 276 315 276 c 1,19,20
 315 321 315 321 283.5 352.5 c 128,-1,21
 252 384 252 384 214 384 c 0,22,23
 140 384 140 384 110 324 c 1,24,25
 57 350 57 350 40 359 c 1,26,27
 63 406 63 406 108 434.5 c 128,-1,28
 153 463 153 463 207 463 c 0,0,1
135.5 96 m 128,-1,30
 153 79 153 79 171 79 c 0,31,32
 193 79 193 79 197 79 c 0,33,34
 246 79 246 79 280.5 113.5 c 128,-1,35
 315 148 315 148 315 197 c 1,36,-1
 177 197 l 2,37,38
 153 197 153 197 135.5 179.5 c 128,-1,39
 118 162 118 162 118 137.5 c 128,-1,29
 118 113 118 113 135.5 96 c 128,-1,30
EndSplineSet
EndChar

StartChar: e
Encoding: 101 101 7
Width: 433
GlyphClass: 1
Flags: MW
LayerCount: 2
Fore
SplineSet
216.5 473 m 128,-1,1
 290 473 290 473 342 421 c 128,-1,2
 394 369 394 369 394 295 c 1,3,4
 394 295 394 295 394 197 c 1,5,-1
 118 197 l 1,6,-1
 118 187 l 2,7,8
 118 142 118 142 150 110.5 c 128,-1,9
 182 79 182 79 219 79 c 0,10,11
 293 79 293 79 323 139 c 1,12,-1
 393 104 l 1,13,14
 369 56 369 56 324.5 28 c 128,-1,15
 280 0 280 0 226 0 c 0,16,17
 149 0 149 0 94 55 c 128,-1,18
 39 110 39 110 39 187 c 2,19,-1
 39 295 l 2,20,21
 39 368 39 368 91 420.5 c 128,-1,0
 143 473 143 473 216.5 473 c 128,-1,1
216.5 394 m 128,-1,23
 176 394 176 394 147 365 c 128,-1,24
 118 336 118 336 118 295 c 2,25,-1
 118 276 l 1,26,-1
 315 276 l 1,27,-1
 315 295 l 2,28,29
 315 336 315 336 286 365 c 128,-1,22
 257 394 257 394 216.5 394 c 128,-1,23
EndSplineSet
EndChar

StartChar: i
Encoding: 105 105 8
Width: 433
GlyphClass: 1
Flags: MW
LayerCount: 2
Fore
SplineSet
79 473 m 1,0,-1
 256 473 l 1,1,-1
 256 79 l 1,2,-1
 394 79 l 1,3,-1
 394 0 l 1,4,-1
 39 0 l 1,5,-1
 39 79 l 1,6,-1
 177 79 l 1,7,-1
 177 394 l 1,8,-1
 79 394 l 1,9,-1
 79 473 l 1,0,-1
158 590.5 m 128,-1,11
 158 615 158 615 175 632.5 c 128,-1,12
 192 650 192 650 216.5 650 c 128,-1,13
 241 650 241 650 258.5 632.5 c 128,-1,14
 276 615 276 615 276 590.5 c 128,-1,15
 276 566 276 566 258.5 549 c 128,-1,16
 241 532 241 532 216.5 532 c 128,-1,17
 192 532 192 532 175 549 c 128,-1,10
 158 566 158 566 158 590.5 c 128,-1,11
EndSplineSet
EndChar

StartChar: j
Encoding: 106 106 9
Width: 433
GlyphClass: 1
Flags: MW
LayerCount: 2
Fore
SplineSet
217 590.5 m 128,-1,1
 217 615 217 615 234 632.5 c 128,-1,2
 251 650 251 650 275.5 650 c 128,-1,3
 300 650 300 650 317.5 632.5 c 128,-1,4
 335 615 335 615 335 590.5 c 128,-1,5
 335 566 335 566 317.5 549 c 128,-1,6
 300 532 300 532 275.5 532 c 128,-1,7
 251 532 251 532 234 549 c 128,-1,0
 217 566 217 566 217 590.5 c 128,-1,1
79 473 m 1,8,-1
 315 473 l 5,9,10
 315 473 315 473 315 4 c 5,11,12
 315 -63 315 -63 267.5 -110.5 c 128,-1,13
 220 -158 220 -158 153.5 -157.5 c 128,-1,14
 87 -157 87 -157 39 -110 c 1,15,16
 80 -69 80 -69 95 -54 c 1,17,18
 119 -78 119 -78 153.5 -78.5 c 128,-1,19
 188 -79 188 -79 212 -54.5 c 128,-1,20
 236 -30 236 -30 236 4 c 2,21,-1
 236 394 l 1,22,-1
 79 394 l 1,23,-1
 79 473 l 1,8,-1
EndSplineSet
EndChar

StartChar: k
Encoding: 107 107 10
Width: 433
GlyphClass: 1
Flags: MW
LayerCount: 2
Fore
SplineSet
39 709 m 1,0,-1
 118 709 l 1,1,-1
 118 277 l 1,2,-1
 289 473 l 1,3,-1
 394 473 l 1,4,-1
 243 301 l 1,5,-1
 394 0 l 1,6,-1
 306 0 l 1,7,-1
 187 237 l 1,8,-1
 118 158 l 1,9,-1
 118 0 l 1,10,-1
 39 0 l 1,11,-1
 39 709 l 1,0,-1
EndSplineSet
EndChar

StartChar: l
Encoding: 108 108 11
Width: 433
GlyphClass: 1
Flags: MW
LayerCount: 2
Fore
SplineSet
79 709 m 1,0,-1
 236 709 l 5,1,2
 236 709 236 709 236 158 c 5,3,4
 236 125 236 125 259 102 c 128,-1,5
 282 79 282 79 315 79 c 1,6,7
 315 0 315 0 315 0 c 1,8,9
 250 0 250 0 204 46 c 128,-1,10
 158 92 158 92 158 158 c 2,11,-1
 158 630 l 1,12,-1
 79 630 l 1,13,-1
 79 709 l 1,0,-1
EndSplineSet
EndChar

StartChar: m
Encoding: 109 109 12
Width: 433
GlyphClass: 1
Flags: MW
LayerCount: 2
Fore
SplineSet
39 473 m 5,0,-1
 118 473 l 1,1,2
 118 468 118 468 118 468 c 1,3,4
 132 472 132 472 148 473 c 0,5,6
 187 473 187 473 217 448 c 1,7,8
 247 473 247 473 289 473 c 0,9,10
 331 473 331 473 362 441 c 0,11,12
 394 409 394 409 394 364 c 2,13,-1
 394 0 l 1,14,-1
 315 0 l 1,15,-1
 315 364 l 2,16,17
 315 376 315 376 306.5 385 c 128,-1,18
 298 394 298 394 285.5 394 c 128,-1,19
 273 394 273 394 264.5 385 c 128,-1,20
 256 376 256 376 256 364 c 2,21,-1
 256 0 l 1,22,-1
 177 0 l 1,23,-1
 177 364 l 2,24,25
 177 376 177 376 168.5 385 c 128,-1,26
 160 394 160 394 147.5 394 c 128,-1,27
 135 394 135 394 126.5 385 c 128,-1,28
 118 376 118 376 118 364 c 2,29,-1
 118 0 l 1,30,-1
 39 0 l 5,31,32
 39 0 39 0 39 473 c 5,0,-1
EndSplineSet
EndChar

StartChar: n
Encoding: 110 110 13
Width: 433
GlyphClass: 1
Flags: MW
LayerCount: 2
Fore
SplineSet
39 473 m 1,0,-1
 118 473 l 1,1,2
 118 443 118 443 118 442 c 1,3,4
 163 472 163 472 217 473 c 0,5,6
 290 473 290 473 342 421 c 128,-1,7
 394 369 394 369 394 295 c 1,8,-1
 394 0 l 1,9,-1
 315 0 l 1,10,-1
 315 295 l 2,11,12
 315 336 315 336 286 365 c 128,-1,13
 257 394 257 394 216.5 394 c 128,-1,14
 176 394 176 394 147 365 c 128,-1,15
 118 336 118 336 118 295 c 1,16,-1
 118 0 l 1,17,-1
 39 0 l 1,18,-1
 39 473 l 1,0,-1
EndSplineSet
EndChar

StartChar: o
Encoding: 111 111 14
Width: 433
GlyphClass: 1
Flags: MW
LayerCount: 2
Fore
SplineSet
216.5 473 m 128,-1,1
 290 473 290 473 342 421 c 128,-1,2
 394 369 394 369 394 295 c 1,3,-1
 394 177 l 2,4,5
 394 104 394 104 342 52 c 128,-1,6
 290 0 290 0 216.5 0 c 128,-1,7
 143 0 143 0 91 52 c 128,-1,8
 39 104 39 104 39 177 c 2,9,-1
 39 295 l 2,10,11
 39 368 39 368 91 420.5 c 128,-1,0
 143 473 143 473 216.5 473 c 128,-1,1
216.5 394 m 128,-1,13
 176 394 176 394 147 365 c 128,-1,14
 118 336 118 336 118 295 c 1,15,-1
 118 177 l 2,16,17
 118 136 118 136 147 107.5 c 128,-1,18
 176 79 176 79 216.5 79 c 128,-1,19
 257 79 257 79 286 107.5 c 128,-1,20
 315 136 315 136 315 177 c 1,21,-1
 315 295 l 2,22,23
 315 336 315 336 286 365 c 128,-1,12
 257 394 257 394 216.5 394 c 128,-1,13
EndSplineSet
EndChar

StartChar: p
Encoding: 112 112 15
Width: 433
GlyphClass: 1
Flags: MW
LayerCount: 2
Fore
SplineSet
39 473 m 5,0,-1
 118 473 l 1,1,2
 118 443 118 443 118 442 c 1,3,4
 163 472 163 472 217 473 c 0,5,6
 290 473 290 473 342 421 c 128,-1,7
 394 369 394 369 394 295 c 0,8,9
 394 177 394 177 394 177 c 1,10,11
 394 104 394 104 342 52 c 128,-1,12
 290 0 290 0 217 0 c 0,13,14
 163 0 163 0 118 30 c 1,15,-1
 118 -158 l 1,16,-1
 39 -158 l 1,17,-1
 39 473 l 5,0,-1
216.5 394 m 128,-1,19
 176 394 176 394 147 365 c 128,-1,20
 118 336 118 336 118 295 c 2,21,-1
 118 177 l 2,22,23
 118 136 118 136 147 107.5 c 128,-1,24
 176 79 176 79 216.5 79 c 128,-1,25
 257 79 257 79 286 107.5 c 128,-1,26
 315 136 315 136 315 177 c 2,27,-1
 315 295 l 2,28,29
 315 336 315 336 286 365 c 128,-1,18
 257 394 257 394 216.5 394 c 128,-1,19
EndSplineSet
EndChar

StartChar: s
Encoding: 115 115 16
Width: 433
GlyphClass: 1
Flags: MW
LayerCount: 2
Fore
SplineSet
109 119 m 1,0,1
 132 79 132 79 177 79 c 0,2,3
 256 79 256 79 256 79 c 1,4,5
 280 79 280 79 297.5 96 c 128,-1,6
 315 113 315 113 315 137.5 c 128,-1,7
 315 162 315 162 297.5 179.5 c 128,-1,8
 280 197 280 197 256 197 c 0,9,10
 177 197 177 197 177 197 c 1,11,12
 120 197 120 197 79.5 237.5 c 128,-1,13
 39 278 39 278 39 335 c 128,-1,14
 39 392 39 392 79.5 432.5 c 128,-1,15
 120 473 120 473 177 473 c 0,16,17
 256 473 256 473 256 473 c 0,18,19
 299 473 299 473 335.5 451 c 128,-1,20
 372 429 372 429 392 393 c 1,21,22
 341 364 341 364 324 354 c 1,23,24
 301 394 301 394 256 394 c 2,25,-1
 177 394 l 2,26,27
 153 394 153 394 135.5 376.5 c 128,-1,28
 118 359 118 359 118 334.5 c 128,-1,29
 118 310 118 310 135.5 293 c 128,-1,30
 153 276 153 276 177 276 c 2,31,-1
 256 276 l 2,32,33
 313 276 313 276 353.5 235.5 c 128,-1,34
 394 195 394 195 394 138 c 128,-1,35
 394 81 394 81 353.5 40.5 c 128,-1,36
 313 0 313 0 256 0 c 0,37,38
 177 0 177 0 177 0 c 0,39,40
 134 0 134 0 97.5 21.5 c 128,-1,41
 61 43 61 43 41 80 c 1,42,43
 92 109 92 109 109 119 c 1,0,1
EndSplineSet
EndChar

StartChar: t
Encoding: 116 116 17
Width: 433
GlyphClass: 1
Flags: MW
LayerCount: 2
Fore
SplineSet
158 630 m 1,0,-1
 236 630 l 1,1,-1
 236 473 l 1,2,-1
 335 473 l 1,3,-1
 335 394 l 1,4,-1
 236 394 l 1,5,-1
 236 177 l 2,6,7
 236 136 236 136 265 107.5 c 128,-1,8
 294 79 294 79 335 79 c 1,9,-1
 335 0 l 1,10,11
 262 0 262 0 210 52 c 128,-1,12
 158 104 158 104 158 177 c 2,13,-1
 158 394 l 1,14,-1
 79 394 l 1,15,-1
 79 473 l 1,16,-1
 158 473 l 1,17,-1
 158 630 l 1,0,-1
EndSplineSet
EndChar

StartChar: u
Encoding: 117 117 18
Width: 433
GlyphClass: 1
Flags: MW
LayerCount: 2
Fore
SplineSet
394 0 m 1,0,-1
 315 0 l 1,1,2
 315 30 315 30 315 30 c 1,3,4
 270 0 270 0 217 0 c 0,5,6
 144 0 144 0 91.5 52 c 128,-1,7
 39 104 39 104 39 177 c 1,8,-1
 39 473 l 1,9,-1
 118 473 l 1,10,-1
 118 177 l 2,11,12
 118 136 118 136 147 107.5 c 128,-1,13
 176 79 176 79 216.5 79 c 128,-1,14
 257 79 257 79 286 107.5 c 128,-1,15
 315 136 315 136 315 177 c 1,16,-1
 315 473 l 1,17,-1
 394 473 l 1,18,-1
 394 0 l 1,0,-1
EndSplineSet
EndChar

StartChar: w
Encoding: 119 119 19
Width: 433
GlyphClass: 1
Flags: MW
LayerCount: 2
Fore
SplineSet
40 473 m 1,0,-1
 119 473 l 1,1,-1
 158 243 l 1,2,-1
 178 364 l 1,3,-1
 256 364 l 1,4,-1
 276 244 l 1,5,-1
 314 473 l 1,6,-1
 394 473 l 1,7,-1
 315 0 l 5,8,9
 261 0 261 0 237 0 c 5,10,-1
 217 120 l 1,11,-1
 197 0 l 1,12,-1
 118 0 l 1,13,-1
 39 473 l 1,14,-1
 40 473 l 1,0,-1
EndSplineSet
EndChar

StartChar: a.t
Encoding: 989440 989440 20
Width: 672
GlyphClass: 1
Flags: MW
LayerCount: 2
Fore
SplineSet
335.967773438 248.020507812 m 128,-1,1
 388.996506536 248.020507812 388.996506536 248.020507812 426.486534518 210.530677396 c 128,-1,2
 463.9765625 173.040846979 463.9765625 173.040846979 463.9765625 120.012695312 c 0,3,4
 463.9765625 93.5072487012 463.9765625 93.5072487012 482.725989906 74.7580188818 c 128,-1,5
 501.475417313 56.0087890625 501.475417313 56.0087890625 527.98046875 56.0087890625 c 1,6,-1
 527.98046875 -7.99609375 l 1,7,8
 470.233575841 -7.99609375 470.233575841 -7.99609375 431.974609375 35.3505859375 c 1,9,10
 393.819177339 -7.99609375 393.819177339 -7.99609375 335.967773438 -7.99609375 c 0,11,12
 282.960259951 -7.99609375 282.960259951 -7.99609375 245.472317476 29.5019253858 c 128,-1,13
 207.984375 66.9999445217 207.984375 66.9999445217 207.984375 120.012695312 c 128,-1,14
 207.984375 173.038883851 207.984375 173.038883851 245.470247714 210.529695832 c 128,-1,0
 282.956120428 248.020507812 282.956120428 248.020507812 335.967773438 248.020507812 c 128,-1,1
335.967773438 184.016601562 m 128,-1,16
 309.465218261 184.016601562 309.465218261 184.016601562 290.726749755 165.268254275 c 128,-1,17
 271.98828125 146.519906988 271.98828125 146.519906988 271.98828125 120.012695312 c 128,-1,18
 271.98828125 93.5049198627 271.98828125 93.5049198627 290.726665487 74.7568544626 c 128,-1,19
 309.465049725 56.0087890625 309.465049725 56.0087890625 335.967773438 56.0087890625 c 128,-1,20
 362.487576708 56.0087890625 362.487576708 56.0087890625 381.230116479 74.755872815 c 128,-1,21
 399.97265625 93.5029565675 399.97265625 93.5029565675 399.97265625 120.012695312 c 128,-1,22
 399.97265625 146.521870304 399.97265625 146.521870304 381.230032188 165.269235933 c 128,-1,15
 362.487408125 184.016601562 362.487408125 184.016601562 335.967773438 184.016601562 c 128,-1,16
303.973632812 304.000976562 m 1,23,-1
 303.973632812 512.000976562 l 1,24,-1
 367.973632812 512.000976562 l 1,25,-1
 367.973632812 304.000976562 l 1,26,-1
 303.973632812 304.000976562 l 1,23,-1
EndSplineSet
LCarets2: 1 0
MultipleSubs2: "cartouched sitelen" a.t cartouche.body
Ligature2: "sitelen" a
Ligature2: "sitelen+-space" a space
EndChar

StartChar: akesi.t
Encoding: 989441 989441 21
Width: 672
GlyphClass: 1
Flags: MW
LayerCount: 2
Fore
SplineSet
192.006835938 479.993164062 m 128,-1,1
 192.006835938 496.561843082 192.006835938 496.561843082 203.722694 508.277503572 c 128,-1,2
 215.438552063 519.993164062 215.438552063 519.993164062 232.006835938 519.993164062 c 128,-1,3
 248.575683594 519.993164062 248.575683594 519.993164062 260.291259766 508.277587891 c 128,-1,4
 272.006835938 496.562011719 272.006835938 496.562011719 272.006835938 479.993164062 c 128,-1,5
 272.006835938 463.424880188 272.006835938 463.424880188 260.291175447 451.709022125 c 128,-1,6
 248.575514957 439.993164062 248.575514957 439.993164062 232.006835938 439.993164062 c 128,-1,7
 215.438720703 439.993164062 215.438720703 439.993164062 203.72277832 451.709106445 c 128,-1,0
 192.006835938 463.425048828 192.006835938 463.425048828 192.006835938 479.993164062 c 128,-1,1
400 479.993164062 m 128,-1,9
 400 496.562011719 400 496.562011719 411.715576172 508.277587891 c 128,-1,10
 423.431152344 519.993164062 423.431152344 519.993164062 440 519.993164062 c 128,-1,11
 456.568283874 519.993164062 456.568283874 519.993164062 468.284141937 508.277503572 c 128,-1,12
 480 496.561843082 480 496.561843082 480 479.993164062 c 128,-1,13
 480 463.425048828 480 463.425048828 468.284057617 451.709106445 c 128,-1,14
 456.568115234 439.993164062 456.568115234 439.993164062 440 439.993164062 c 128,-1,15
 423.431320981 439.993164062 423.431320981 439.993164062 411.71566049 451.709022125 c 128,-1,8
 400 463.424880188 400 463.424880188 400 479.993164062 c 128,-1,9
336 447.998046875 m 128,-1,17
 388.983247348 447.998046875 388.983247348 447.998046875 426.49089125 410.490798202 c 128,-1,18
 463.998535152 372.983549529 463.998535152 372.983549529 464 320 c 1,19,-1
 528 320 l 1,20,-1
 528 256 l 1,21,-1
 464 256 l 1,22,-1
 464 184.001953125 l 1,23,-1
 528 184.001953125 l 1,24,-1
 528 120.001953125 l 1,25,-1
 464.001953125 120.001953125 l 1,26,27
 464.001220701 67.0191360178 464.001220701 67.0191360178 426.493210586 29.5115211339 c 128,-1,28
 388.985200471 -7.99609375 388.985200471 -7.99609375 336.001953125 -7.99609375 c 128,-1,29
 283.018705779 -7.99609375 283.018705779 -7.99609375 245.510695664 29.5115211339 c 128,-1,30
 208.002685549 67.0191360178 208.002685549 67.0191360178 208.001953125 120.001953125 c 1,31,-1
 144 120.001953125 l 1,32,-1
 144 184.001953125 l 1,33,-1
 208 184.001953125 l 1,34,-1
 208 256 l 1,35,-1
 144 256 l 1,36,-1
 144 320 l 1,37,-1
 208 320 l 1,38,39
 208.000732422 372.983380931 208.000732422 372.983380931 245.508658239 410.490713903 c 128,-1,16
 283.016584056 447.998046875 283.016584056 447.998046875 336 447.998046875 c 128,-1,17
336 384 m 128,-1,41
 309.507382254 384 309.507382254 384 290.752714564 365.246122771 c 128,-1,42
 271.998046875 346.492245543 271.998046875 346.492245543 271.998046875 320 c 1,43,-1
 400.001953125 320 l 1,44,45
 400.001220708 346.492245538 400.001220708 346.492245538 381.246553016 365.246122769 c 128,-1,40
 362.491885324 384 362.491885324 384 336 384 c 128,-1,41
272 256 m 1,46,-1
 272 184.001953125 l 1,47,-1
 400 184.001953125 l 1,48,-1
 400 256 l 1,49,-1
 272 256 l 1,46,-1
272 120.001953125 m 1,50,51
 272 93.5103644583 272 93.5103644583 290.754705463 74.7566470729 c 128,-1,52
 309.509410926 56.0029296875 309.509410926 56.0029296875 336.001953125 56.0029296875 c 128,-1,53
 362.493762902 56.0029296875 362.493762902 56.0029296875 381.248468366 74.7566470744 c 128,-1,54
 400.003173831 93.5103644614 400.003173831 93.5103644614 400.00390625 120.001953125 c 1,55,-1
 272 120.001953125 l 1,50,51
EndSplineSet
MultipleSubs2: "cartouched sitelen" akesi.t cartouche.body
LCarets2: 5 0 0 0 0 0
Ligature2: "sitelen+-space" a k e s i space
Ligature2: "sitelen" a k e s i
EndChar

StartChar: ala.t
Encoding: 989442 989442 22
Width: 672
GlyphClass: 1
Flags: MW
LayerCount: 2
Fore
SplineSet
154.981445312 482.276367188 m 1,0,-1
 336.01171875 301.24609375 l 1,1,-1
 517.017578125 482.276367188 l 1,2,-1
 562.275390625 437.018554688 l 1,3,-1
 381.245117188 256.012695312 l 1,4,-1
 562.275390625 74.982421875 l 1,5,-1
 517.017578125 29.724609375 l 1,6,-1
 336.01171875 210.754882812 l 1,7,-1
 154.981445312 29.724609375 l 1,8,-1
 109.723632812 74.982421875 l 1,9,-1
 290.75390625 256.012695312 l 1,10,-1
 109.723632812 437.018554688 l 1,11,-1
 154.981445312 482.276367188 l 1,0,-1
EndSplineSet
MultipleSubs2: "cartouched sitelen" ala.t cartouche.body
LCarets2: 3 0 0 0
Ligature2: "sitelen+-space" a l a space
Ligature2: "sitelen" a l a
EndChar

StartChar: alasa.t
Encoding: 989443 989443 23
Width: 672
GlyphClass: 1
Flags: MW
LayerCount: 2
Fore
SplineSet
144 512.018554688 m 1,0,1
 242.968885433 512.015638391 242.968885433 512.015638391 315.888859658 445.721940327 c 128,-1,2
 388.808833882 379.428242263 388.808833882 379.428242263 398.673828125 282.139648438 c 1,3,-1
 528.01171875 279.995117188 l 1,4,-1
 423.998046875 368.018554688 l 1,5,-1
 472.013671875 416.008789062 l 1,6,-1
 632 255.999023438 l 1,7,-1
 472.013671875 96.0126953125 l 1,8,-1
 423.998046875 144.004882812 l 1,9,-1
 528.01171875 232.002929688 l 1,10,-1
 398.671875 229.846679688 l 1,11,12
 388.798128388 132.572099856 388.798128388 132.572099856 315.878047497 66.2904444594 c 128,-1,13
 242.957966606 0.0087890625 242.957966606 0.0087890625 144 0.0087890625 c 1,14,-1
 144 225.600585938 l 1,15,-1
 48 223.999023438 l 1,16,-1
 48 287.954101562 l 1,17,-1
 144 286.362304688 l 1,18,-1
 144 512.018554688 l 1,0,1
208.0234375 437.020507812 m 1,19,-1
 208.0234375 285.301757812 l 1,20,-1
 334.05859375 283.211914062 l 1,21,22
 326.530801146 335.945470208 326.530801146 335.945470208 292.665252214 377.500903262 c 128,-1,23
 258.799703281 419.056336316 258.799703281 419.056336316 208.0234375 437.020507812 c 1,19,-1
334.052734375 228.768554688 m 1,24,-1
 208.0234375 226.666992188 l 1,25,-1
 208.0234375 75.0068359375 l 1,26,27
 258.788714828 92.9668724504 258.788714828 92.9668724504 292.652464857 134.508663062 c 128,-1,28
 326.516214887 176.050453673 326.516214887 176.050453673 334.052734375 228.768554688 c 1,24,-1
EndSplineSet
LCarets2: 5 0 0 0 0 0
MultipleSubs2: "cartouched sitelen" alasa.t cartouche.body
Ligature2: "sitelen+-space" a l a s a space
Ligature2: "sitelen" a l a s a
EndChar

StartChar: ale.t
Encoding: 989444 989444 24
Width: 672
GlyphClass: 1
Flags: MWO
LayerCount: 2
Fore
SplineSet
192.002929688 383.994140625 m 0,0,1
 240.986412866 383.994140625 240.986412866 383.994140625 277.341796875 351.38671875 c 2,2,-1
 336.0234375 298.920898438 l 1,3,-1
 394.682617188 351.38671875 l 2,4,5
 431.119337246 383.994140625 431.119337246 383.994140625 480.020507812 383.994140625 c 0,6,7
 533.032817748 383.994140625 533.032817748 383.994140625 570.51885028 346.503366402 c 128,-1,8
 608.004882812 309.012592179 608.004882812 309.012592179 608.004882812 255.986328125 c 128,-1,9
 608.004882812 202.975830078 608.004882812 202.975830078 570.517944336 165.488891602 c 128,-1,10
 533.031005859 128.001953125 533.031005859 128.001953125 480.020507812 128.001953125 c 0,11,12
 431.00926896 128.001953125 431.00926896 128.001953125 394.682617188 160.584960938 c 2,13,-1
 336.0234375 213.07421875 l 1,14,-1
 277.341796875 160.584960938 l 2,15,16
 240.888456928 128.001953125 240.888456928 128.001953125 192.002929688 128.001953125 c 0,17,18
 138.992431641 128.001953125 138.992431641 128.001953125 101.505493164 165.488891602 c 128,-1,19
 64.0185546875 202.975830078 64.0185546875 202.975830078 64.0185546875 255.986328125 c 128,-1,20
 64.0185546875 309.012592179 64.0185546875 309.012592179 101.50458722 346.503366402 c 128,-1,21
 138.990619752 383.994140625 138.990619752 383.994140625 192.002929688 383.994140625 c 0,0,1
192.002929688 319.990234375 m 0,22,23
 165.496160021 320.18359375 165.496160021 320.18359375 146.759310479 301.441805348 c 128,-1,24
 128.022460938 282.700016946 128.022460938 282.700016946 128.022460938 256.178710938 c 128,-1,25
 128.022460938 229.671592464 128.022460938 229.671592464 146.761371171 210.923198576 c 128,-1,26
 165.500281405 192.174804688 165.500281405 192.174804688 192.002929688 192.174804688 c 0,27,28
 216.203680626 192.174804688 216.203680626 192.174804688 234.671875 208.381835938 c 2,29,-1
 288.008789062 256.083007812 l 1,30,-1
 234.671875 303.783203125 l 2,31,32
 216.392364493 319.990234375 216.392364493 319.990234375 192.002929688 319.990234375 c 0,22,23
480.020507812 319.990234375 m 0,33,34
 455.442389139 319.796875 455.442389139 319.796875 437.3515625 303.58984375 c 2,35,-1
 384.014648438 255.889648438 l 1,36,-1
 437.3515625 208.188476562 l 2,37,38
 455.631073007 191.981445312 455.631073007 191.981445312 480.020507812 191.981445312 c 0,39,40
 506.52602994 191.981445312 506.52602994 191.981445312 525.275222001 210.731032547 c 128,-1,41
 544.024414062 229.480619782 544.024414062 229.480619782 544.024414062 255.986328125 c 128,-1,42
 544.024414062 282.505474489 544.024414062 282.505474489 525.277292564 301.247854432 c 128,-1,43
 506.530171066 319.990234375 506.530171066 319.990234375 480.020507812 319.990234375 c 0,33,34
EndSplineSet
LCarets2: 3 0 0 0
MultipleSubs2: "cartouched sitelen" ale.t cartouche.body
Ligature2: "sitelen+-space" a l i space
Ligature2: "sitelen+-space" a l e space
Ligature2: "sitelen" a l e
Ligature2: "sitelen" a l i
EndChar

StartChar: anpa.t
Encoding: 989445 989445 25
Width: 672
GlyphClass: 1
Flags: MW
LayerCount: 2
Fore
SplineSet
377.5 115.5 m 128,-1,1
 360.5 98 360.5 98 336 98 c 128,-1,2
 311.5 98 311.5 98 294 115.5 c 128,-1,3
 276.5 133 276.5 133 276.5 157.5 c 128,-1,4
 276.5 182 276.5 182 294 199.5 c 128,-1,5
 311.5 217 311.5 217 336 217 c 128,-1,6
 360.5 217 360.5 217 377.5 199.5 c 128,-1,7
 394.5 182 394.5 182 394.5 157.5 c 128,-1,0
 394.5 133 394.5 133 377.5 115.5 c 128,-1,1
-18.5 571 m 1,8,-1
 60.5 571 l 1,9,-1
 60.5 335 l 1,10,-1
 611.5 335 l 1,11,-1
 611.5 571 l 1,12,-1
 690.5 571 l 1,13,-1
 690.5 256 l 1,14,-1
 -18.5 256 l 1,15,-1
 -18.5 571 l 1,8,-1
EndSplineSet
MultipleSubs2: "cartouched sitelen" anpa.t cartouche.body
Ligature2: "sitelen+-space" a n p a space
Ligature2: "sitelen" a n p a
EndChar

StartChar: ante.t
Encoding: 989446 989446 26
Width: 672
GlyphClass: 1
Flags: MW
LayerCount: 2
Fore
SplineSet
25.5 0 m 1,0,-1
 -18.5 65 l 1,1,-1
 335.5 315 l 1,2,-1
 690.5 65 l 1,3,-1
 646.5 0 l 1,4,-1
 335.5 219 l 1,5,-1
 25.5 0 l 1,0,-1
25.5 709 m 1,6,-1
 335.5 490 l 1,7,-1
 646.5 709 l 1,8,-1
 690.5 644 l 1,9,-1
 335.5 394 l 1,10,-1
 -18.5 644 l 1,11,-1
 25.5 709 l 1,6,-1
EndSplineSet
MultipleSubs2: "cartouched sitelen" ante.t cartouche.body
Ligature2: "sitelen+-space" a n t e space
Ligature2: "sitelen" a n t e
EndChar

StartChar: anu.t
Encoding: 989447 989447 27
Width: 672
GlyphClass: 1
Flags: MW
LayerCount: 2
Fore
SplineSet
37.5 709 m 1,0,-1
 335.5 410 l 1,1,-1
 634.5 709 l 1,2,-1
 690.5 653 l 1,3,-1
 375.5 338 l 1,4,-1
 375.5 0 l 1,5,-1
 296.5 0 l 1,6,-1
 296.5 338 l 1,7,-1
 -18.5 653 l 1,8,-1
 37.5 709 l 1,0,-1
EndSplineSet
MultipleSubs2: "cartouched sitelen" anu.t cartouche.body
Ligature2: "sitelen+-space" a n u space
Ligature2: "sitelen" a n u
EndChar

StartChar: awen.t
Encoding: 989448 989448 28
Width: 672
GlyphClass: 1
Flags: MW
LayerCount: 2
Fore
SplineSet
-18.5 0 m 1,0,-1
 -18.5 79 l 1,1,-1
 121.5 79 l 1,2,3
 299.5 600 299.5 600 335.5 709 c 5,4,5
 354.5 651 354.5 651 550.5 79 c 1,6,-1
 690.5 79 l 1,7,-1
 690.5 0 l 1,8,-1
 493.5 0 l 1,9,-1
 335.5 463 l 1,10,-1
 178.5 0 l 1,11,-1
 -18.5 0 l 1,0,-1
EndSplineSet
MultipleSubs2: "cartouched sitelen" awen.t cartouche.body
Ligature2: "sitelen+-space" a w e n space
Ligature2: "sitelen" a w e n
EndChar

StartChar: e.t
Encoding: 989449 989449 29
Width: 672
GlyphClass: 1
Flags: MW
LayerCount: 2
Fore
SplineSet
351.5 686 m 1,0,-1
 690.5 354 l 1,1,-1
 351.5 23 l 1,2,-1
 296.5 79 l 1,3,-1
 577.5 354 l 1,4,-1
 296.5 630 l 1,5,-1
 351.5 686 l 1,0,-1
36.5 686 m 1,6,-1
 375.5 354 l 1,7,-1
 36.5 23 l 1,8,-1
 -18.5 79 l 1,9,-1
 262.5 354 l 1,10,-1
 -18.5 630 l 1,11,-1
 36.5 686 l 1,6,-1
EndSplineSet
MultipleSubs2: "cartouched sitelen" e.t cartouche.body
Ligature2: "sitelen" e
Ligature2: "sitelen+-space" e space
EndChar

StartChar: en.t
Encoding: 989450 989450 30
Width: 672
GlyphClass: 1
Flags: MW
LayerCount: 2
Fore
SplineSet
296.5 630 m 1,0,-1
 375.5 630 l 1,1,-1
 375.5 394 l 1,2,-1
 611.5 394 l 1,3,-1
 611.5 315 l 1,4,-1
 375.5 315 l 1,5,-1
 375.5 79 l 1,6,-1
 296.5 79 l 1,7,-1
 296.5 315 l 1,8,-1
 60.5 315 l 1,9,-1
 60.5 394 l 1,10,-1
 296.5 394 l 1,11,-1
 296.5 630 l 1,0,-1
EndSplineSet
MultipleSubs2: "cartouched sitelen" en.t cartouche.body
Ligature2: "sitelen+-space" e n space
Ligature2: "sitelen" e n
EndChar

StartChar: esun.t
Encoding: 989451 989451 31
Width: 672
GlyphClass: 1
Flags: MW
LayerCount: 2
Fore
SplineSet
207.5 263 m 2,0,1
 185.5 276 185.5 276 151.5 276 c 128,-1,2
 117.5 276 117.5 276 89 247 c 128,-1,3
 60.5 218 60.5 218 60.5 177 c 128,-1,4
 60.5 136 60.5 136 89 107.5 c 128,-1,5
 117.5 79 117.5 79 155.5 79 c 128,-1,6
 193.5 79 193.5 79 220.5 101.5 c 128,-1,7
 247.5 124 247.5 124 254.5 158 c 2,8,-1
 268.5 228 l 1,9,-1
 207.5 263 l 2,0,1
582.5 601.5 m 128,-1,11
 553.5 630 553.5 630 515.5 630 c 128,-1,12
 477.5 630 477.5 630 450.5 608 c 128,-1,13
 423.5 586 423.5 586 416.5 551 c 0,14,15
 413.5 538 413.5 538 409 514 c 128,-1,16
 404.5 490 404.5 490 401.5 481 c 1,17,-1
 464.5 447 l 2,18,19
 487.5 434 487.5 434 520.5 433.5 c 128,-1,20
 553.5 433 553.5 433 582.5 462 c 128,-1,21
 611.5 491 611.5 491 611.5 532 c 128,-1,10
 611.5 573 611.5 573 582.5 601.5 c 128,-1,11
401 669 m 128,-1,23
 449.5 709 449.5 709 518 709 c 128,-1,24
 586.5 709 586.5 709 638.5 657 c 128,-1,25
 690.5 605 690.5 605 690.5 531.5 c 128,-1,26
 690.5 458 690.5 458 638.5 406 c 128,-1,27
 586.5 354 586.5 354 512.5 354 c 0,28,29
 464.5 354 464.5 354 425.5 377 c 2,30,-1
 385.5 400 l 1,31,-1
 357.5 268 l 1,32,-1
 690.5 79 l 1,33,-1
 651.5 10 l 1,34,-1
 341.5 187 l 1,35,-1
 331.5 142 l 2,36,37
 318.5 80 318.5 80 270 40 c 128,-1,38
 221.5 0 221.5 0 153.5 0 c 128,-1,39
 85.5 0 85.5 0 33.5 52 c 128,-1,40
 -18.5 104 -18.5 104 -18.5 177 c 128,-1,41
 -18.5 250 -18.5 250 33.5 302 c 128,-1,42
 85.5 354 85.5 354 158.5 354 c 0,43,44
 206.5 354 206.5 354 245.5 332 c 2,45,-1
 286.5 309 l 1,46,-1
 312.5 441 l 1,47,-1
 -18.5 630 l 1,48,-1
 19.5 699 l 1,49,-1
 330.5 522 l 1,50,-1
 339.5 567 l 2,51,22
 352.5 629 352.5 629 401 669 c 128,-1,23
EndSplineSet
LCarets2: 4 0 0 0 0
MultipleSubs2: "cartouched sitelen" esun.t cartouche.body
Ligature2: "sitelen+-space" e s u n space
Ligature2: "sitelen" e s u n
EndChar

StartChar: ijo.t
Encoding: 989452 989452 32
Width: 672
GlyphClass: 1
Flags: MW
LayerCount: 2
Fore
SplineSet
335.5 630 m 128,-1,1
 260.5 630 260.5 630 197.5 593 c 128,-1,2
 134.5 556 134.5 556 97.5 492.5 c 128,-1,3
 60.5 429 60.5 429 60.5 354.5 c 128,-1,4
 60.5 280 60.5 280 97.5 216.5 c 128,-1,5
 134.5 153 134.5 153 197.5 116 c 128,-1,6
 260.5 79 260.5 79 335.5 79 c 128,-1,7
 410.5 79 410.5 79 474 116 c 128,-1,8
 537.5 153 537.5 153 574.5 216.5 c 128,-1,9
 611.5 280 611.5 280 611.5 354.5 c 128,-1,10
 611.5 429 611.5 429 574.5 492.5 c 128,-1,11
 537.5 556 537.5 556 474 593 c 128,-1,0
 410.5 630 410.5 630 335.5 630 c 128,-1,1
336 709 m 128,-1,13
 407.5 709 407.5 709 473 681 c 128,-1,14
 538.5 653 538.5 653 586.5 605.5 c 128,-1,15
 634.5 558 634.5 558 662.5 492 c 128,-1,16
 690.5 426 690.5 426 690.5 354.5 c 128,-1,17
 690.5 283 690.5 283 662.5 217 c 128,-1,18
 634.5 151 634.5 151 586.5 103.5 c 128,-1,19
 538.5 56 538.5 56 473 28 c 128,-1,20
 407.5 0 407.5 0 336 0 c 128,-1,21
 264.5 0 264.5 0 198.5 28 c 128,-1,22
 132.5 56 132.5 56 85 103.5 c 128,-1,23
 37.5 151 37.5 151 9.5 217 c 128,-1,24
 -18.5 283 -18.5 283 -18.5 354.5 c 128,-1,25
 -18.5 426 -18.5 426 9.5 492 c 128,-1,26
 37.5 558 37.5 558 85 605.5 c 128,-1,27
 132.5 653 132.5 653 198.5 681 c 128,-1,12
 264.5 709 264.5 709 336 709 c 128,-1,13
EndSplineSet
MultipleSubs2: "cartouched sitelen" ijo.t cartouche.body
Ligature2: "sitelen+-space" i j o space
Ligature2: "sitelen" i j o
EndChar

StartChar: ike.t
Encoding: 989453 989453 33
Width: 672
GlyphClass: 1
Flags: MW
LayerCount: 2
Fore
SplineSet
611.5 177 m 1,0,1
 611.5 252 611.5 252 574.5 315.5 c 128,-1,2
 537.5 379 537.5 379 474.5 416 c 0,3,4
 410.5 453 410.5 453 335.5 453 c 128,-1,5
 260.5 453 260.5 453 197.5 416 c 128,-1,6
 134.5 379 134.5 379 97.5 315.5 c 128,-1,7
 60.5 252 60.5 252 60.5 177 c 1,8,-1
 -18.5 177 l 1,9,10
 -18.5 249 -18.5 249 9.5 315 c 0,11,12
 65.5 448 65.5 448 198.5 504 c 0,13,14
 264.5 532 264.5 532 336 532 c 128,-1,15
 407.5 532 407.5 532 473.5 504 c 0,16,17
 606.5 448 606.5 448 662.5 315 c 0,18,19
 690.5 249 690.5 249 690.5 177 c 1,20,-1
 611.5 177 l 1,0,1
EndSplineSet
LCarets2: 3 0 0 0
MultipleSubs2: "cartouched sitelen" ike.t cartouche.body
Ligature2: "sitelen+-space" i k e space
Ligature2: "sitelen" i k e
EndChar

StartChar: ilo.t
Encoding: 989454 989454 34
Width: 672
GlyphClass: 1
Flags: MW
LayerCount: 2
Fore
SplineSet
375.5 630 m 1,0,-1
 375.5 394 l 1,1,-1
 611.5 394 l 1,2,-1
 611.5 630 l 1,3,-1
 375.5 630 l 1,0,-1
60.5 630 m 1,4,-1
 60.5 394 l 1,5,-1
 296.5 394 l 1,6,-1
 296.5 630 l 1,7,-1
 60.5 630 l 1,4,-1
-18.5 709 m 1,8,-1
 690.5 709 l 1,9,-1
 690.5 315 l 1,10,-1
 375.5 315 l 1,11,-1
 375.5 0 l 1,12,-1
 296.5 0 l 1,13,-1
 296.5 315 l 1,14,-1
 -18.5 315 l 1,15,-1
 -18.5 709 l 1,8,-1
EndSplineSet
MultipleSubs2: "cartouched sitelen" ilo.t cartouche.body
Ligature2: "sitelen+-space" i l o space
Ligature2: "sitelen" i l o
EndChar

StartChar: insa.t
Encoding: 989455 989455 35
Width: 672
GlyphClass: 1
Flags: MW
LayerCount: 2
Fore
SplineSet
276.5 413.5 m 128,-1,1
 276.5 438 276.5 438 294 455.5 c 128,-1,2
 311.5 473 311.5 473 336 473 c 128,-1,3
 360.5 473 360.5 473 377.5 455.5 c 128,-1,4
 394.5 438 394.5 438 394.5 413.5 c 128,-1,5
 394.5 389 394.5 389 377.5 371.5 c 128,-1,6
 360.5 354 360.5 354 336 354 c 128,-1,7
 311.5 354 311.5 354 294 371.5 c 128,-1,0
 276.5 389 276.5 389 276.5 413.5 c 128,-1,1
-18.5 512 m 5,8,-1
 60.5 512 l 1,9,-1
 60.5 276 l 1,10,-1
 611.5 276 l 1,11,-1
 611.5 512 l 1,12,-1
 690.5 512 l 1,13,14
 690.5 512 690.5 512 690.5 197 c 1,15,16
 690.5 197 690.5 197 -18.5 197 c 5,17,18
 -18.5 197 -18.5 197 -18.5 512 c 5,8,-1
EndSplineSet
MultipleSubs2: "cartouched sitelen" insa.t cartouche.body
Ligature2: "sitelen+-space" i n s a space
Ligature2: "sitelen" i n s a
EndChar

StartChar: jaki.t
Encoding: 989456 989456 36
Width: 672
GlyphClass: 1
Flags: MW
LayerCount: 2
Fore
SplineSet
138.870117188 210 m 1,0,1
 119.870117188 183 119.870117188 183 112.370117188 153.5 c 128,-1,2
 104.870117188 124 104.870117188 124 111.870117188 108 c 0,3,4
 124.870117188 79 124.870117188 79 142.870117188 81 c 0,5,6
 162.870117188 81 162.870117188 81 170.870117188 116 c 128,-1,7
 178.870117188 151 178.870117188 151 138.870117188 210 c 1,0,1
562.870117188 398 m 1,8,9
 555.870117188 310 555.870117188 310 447.870117188 268 c 0,10,11
 444.870117188 266 444.870117188 266 411.870117188 254 c 128,-1,12
 378.870117188 242 378.870117188 242 361.870117188 224.5 c 128,-1,13
 344.870117188 207 344.870117188 207 340.370117188 182.5 c 128,-1,14
 335.870117188 158 335.870117188 158 345.870117188 134 c 128,-1,15
 355.870117188 110 355.870117188 110 376.370117188 96 c 128,-1,16
 396.870117188 82 396.870117188 82 425.870117188 81 c 128,-1,17
 454.870117188 80 454.870117188 80 485.370117188 102.5 c 128,-1,18
 515.870117188 125 515.870117188 125 534.870117188 165 c 0,19,20
 563.870117188 223 563.870117188 223 571.870117188 343 c 0,21,22
 573.870117188 364 573.870117188 364 572.370117188 374.5 c 128,-1,23
 570.870117188 385 570.870117188 385 562.870117188 398 c 1,8,9
382.870117188 709 m 1,24,-1
 401.870117188 629 l 1,25,-1
 244.870117188 588 l 2,26,27
 192.870117188 575 192.870117188 575 163.870117188 559 c 128,-1,28
 134.870117188 543 134.870117188 543 115.870117188 512 c 0,29,30
 68.8701171875 434 68.8701171875 434 146.870117188 330 c 1,31,32
 173.870117188 352 173.870117188 352 209.370117188 375.5 c 128,-1,33
 244.870117188 399 244.870117188 399 294.370117188 435.5 c 128,-1,34
 343.870117188 472 343.870117188 472 384.870117188 492 c 1,35,36
 337.870117188 496 337.870117188 496 289.870117188 476.5 c 128,-1,37
 241.870117188 457 241.870117188 457 208.870117188 406 c 1,38,-1
 146.870117188 455 l 1,39,40
 193.870117188 524 193.870117188 524 268.370117188 555 c 128,-1,41
 342.870117188 586 342.870117188 586 412.370117188 571 c 128,-1,42
 481.870117188 556 481.870117188 556 520.870117188 514 c 1,43,44
 583.870117188 503 583.870117188 503 619.870117188 454 c 0,45,46
 642.870117188 422 642.870117188 422 646.370117188 394.5 c 128,-1,47
 649.870117188 367 649.870117188 367 646.870117188 320 c 0,48,49
 638.870117188 200 638.870117188 200 606.370117188 134.5 c 128,-1,50
 573.870117188 69 573.870117188 69 525.870117188 33 c 128,-1,51
 477.870117188 -3 477.870117188 -3 425.370117188 -1 c 128,-1,52
 372.870117188 1 372.870117188 1 334.370117188 28 c 128,-1,53
 295.870117188 55 295.870117188 55 276.370117188 101 c 128,-1,54
 256.870117188 147 256.870117188 147 265.870117188 198 c 0,55,56
 281.870117188 293 281.870117188 293 385.870117188 331 c 0,57,58
 394.870117188 335 394.870117188 335 420.870117188 344 c 0,59,60
 506.870117188 375 506.870117188 375 482.870117188 435 c 1,61,62
 434.870117188 433 434.870117188 433 399.870117188 410 c 128,-1,63
 364.870117188 387 364.870117188 387 324.870117188 358 c 128,-1,64
 284.870117188 329 284.870117188 329 250.370117188 306 c 128,-1,65
 215.870117188 283 215.870117188 283 193.870117188 266 c 1,66,67
 260.870117188 170 260.870117188 170 242.870117188 91 c 0,68,69
 234.870117188 55 234.870117188 55 209.370117188 28.5 c 128,-1,70
 183.870117188 2 183.870117188 2 149.370117188 -0.5 c 128,-1,71
 114.870117188 -3 114.870117188 -3 87.8701171875 16 c 128,-1,72
 60.8701171875 35 60.8701171875 35 46.8701171875 65 c 0,73,74
 22.8701171875 116 22.8701171875 116 37.8701171875 172 c 128,-1,75
 52.8701171875 228 52.8701171875 228 89.8701171875 275 c 1,76,77
 26.8701171875 360 26.8701171875 360 23.8701171875 441 c 0,78,79
 21.8701171875 504 21.8701171875 504 51.8701171875 555 c 128,-1,80
 81.8701171875 606 81.8701171875 606 133.870117188 635 c 0,81,82
 165.870117188 652 165.870117188 652 227.870117188 668 c 2,83,-1
 382.870117188 709 l 1,24,-1
EndSplineSet
LCarets2: 4 0 0 0 0
MultipleSubs2: "cartouched sitelen" jaki.t cartouche.body
Ligature2: "sitelen+-space" j a k i space
Ligature2: "sitelen" j a k i
EndChar

StartChar: jan.t
Encoding: 989457 989457 37
Width: 672
GlyphClass: 1
Flags: MW
LayerCount: 2
Fore
SplineSet
336 630 m 128,-1,1
 238.5 630 238.5 630 169 561 c 128,-1,2
 99.5 492 99.5 492 99.5 394 c 0,3,4
 99.5 329 99.5 329 133 274.5 c 128,-1,5
 166.5 220 166.5 220 221 189 c 128,-1,6
 275.5 158 275.5 158 336 158 c 128,-1,7
 396.5 158 396.5 158 451 189 c 128,-1,8
 505.5 220 505.5 220 539 274.5 c 128,-1,9
 572.5 329 572.5 329 572.5 394 c 0,10,11
 572.5 492 572.5 492 503 561 c 128,-1,0
 433.5 630 433.5 630 336 630 c 128,-1,1
335.5 709 m 128,-1,13
 421.5 709 421.5 709 494 667 c 128,-1,14
 566.5 625 566.5 625 608.5 552.5 c 128,-1,15
 650.5 480 650.5 480 650.5 394 c 0,16,17
 650.5 275 650.5 275 572.5 185 c 1,18,-1
 690.5 53 l 1,19,-1
 631.5 0 l 1,20,-1
 512.5 133 l 1,21,22
 432.5 79 432.5 79 335.5 79 c 128,-1,23
 238.5 79 238.5 79 159.5 133 c 1,24,-1
 40.5 0 l 1,25,-1
 -18.5 53 l 1,26,-1
 99.5 186 l 1,27,28
 20.5 275 20.5 275 20.5 394 c 0,29,30
 20.5 480 20.5 480 62.5 552.5 c 128,-1,31
 104.5 625 104.5 625 177 667 c 128,-1,12
 249.5 709 249.5 709 335.5 709 c 128,-1,13
EndSplineSet
MultipleSubs2: "cartouched sitelen" jan.t cartouche.body
Ligature2: "sitelen+-space" j a n space
Ligature2: "sitelen" j a n
EndChar

StartChar: jelo.t
Encoding: 989458 989458 38
Width: 672
GlyphClass: 1
Flags: MW
LayerCount: 2
Fore
SplineSet
60.5 0 m 1,0,-1
 269.5 329 l 1,1,2
 227.5 349 227.5 349 203.5 388 c 0,3,4
 189.5 409 189.5 409 182.5 433 c 1,5,-1
 99.5 433 l 1,6,-1
 99.5 512 l 1,7,-1
 182.5 512 l 1,8,9
 192.5 552 192.5 552 224.5 584 c 128,-1,10
 256.5 616 256.5 616 296.5 626 c 1,11,-1
 296.5 709 l 1,12,-1
 375.5 709 l 1,13,-1
 375.5 626 l 1,14,15
 415.5 616 415.5 616 447.5 584 c 128,-1,16
 479.5 552 479.5 552 488.5 512 c 1,17,-1
 572.5 512 l 1,18,-1
 572.5 433 l 1,19,-1
 488.5 433 l 1,20,21
 482.5 409 482.5 409 468.5 388 c 0,22,23
 443.5 349 443.5 349 401.5 329 c 1,24,-1
 611.5 0 l 1,25,-1
 60.5 0 l 1,0,-1
335.5 287 m 1,26,-1
 203.5 79 l 1,27,-1
 468.5 79 l 1,28,-1
 335.5 287 l 1,26,-1
336 551 m 128,-1,30
 303.5 551 303.5 551 280 528 c 128,-1,31
 256.5 505 256.5 505 256.5 472.5 c 128,-1,32
 256.5 440 256.5 440 280 417 c 128,-1,33
 303.5 394 303.5 394 336 394 c 128,-1,34
 368.5 394 368.5 394 391.5 417 c 128,-1,35
 414.5 440 414.5 440 414.5 472.5 c 128,-1,36
 414.5 505 414.5 505 391.5 528 c 128,-1,29
 368.5 551 368.5 551 336 551 c 128,-1,30
EndSplineSet
MultipleSubs2: "cartouched sitelen" jelo.t cartouche.body
Ligature2: "sitelen+-space" j e l o space
Ligature2: "sitelen" j e l o
EndChar

StartChar: jo.t
Encoding: 989459 989459 39
Width: 672
GlyphClass: 1
Flags: MW
LayerCount: 2
Fore
SplineSet
336.25390625 591 m 128,-1,1
 311.75390625 591 311.75390625 591 294.25390625 573.5 c 128,-1,2
 276.75390625 556 276.75390625 556 276.75390625 531.5 c 128,-1,3
 276.75390625 507 276.75390625 507 294.25390625 490 c 128,-1,4
 311.75390625 473 311.75390625 473 336.25390625 473 c 128,-1,5
 360.75390625 473 360.75390625 473 377.75390625 490 c 128,-1,6
 394.75390625 507 394.75390625 507 394.75390625 531.5 c 128,-1,7
 394.75390625 556 394.75390625 556 377.75390625 573.5 c 128,-1,0
 360.75390625 591 360.75390625 591 336.25390625 591 c 128,-1,1
335.75390625 394 m 0,8,9
 264.75390625 394 264.75390625 394 222.75390625 453 c 1,10,11
 196.75390625 434 196.75390625 434 173.25390625 397.5 c 128,-1,12
 149.75390625 361 149.75390625 361 148.75390625 305 c 0,13,14
 148.75390625 228 148.75390625 228 203.75390625 173 c 128,-1,15
 258.75390625 118 258.75390625 118 335.75390625 118 c 128,-1,16
 412.75390625 118 412.75390625 118 468.75390625 173 c 0,17,18
 505.75390625 210 505.75390625 210 517.75390625 256 c 1,19,-1
 296.75390625 256 l 1,20,21
 296.75390625 256 296.75390625 256 296.75390625 335 c 5,22,23
 296.75390625 335 296.75390625 335 601.75390625 335 c 5,24,-1
 601.75390625 317 l 2,25,26
 601.75390625 311 601.75390625 311 601.75390625 305 c 0,27,28
 601.75390625 233 601.75390625 233 566.25390625 171.5 c 128,-1,29
 530.75390625 110 530.75390625 110 469.75390625 74.5 c 128,-1,30
 408.75390625 39 408.75390625 39 336.25390625 39 c 128,-1,31
 263.75390625 39 263.75390625 39 202.75390625 74.5 c 128,-1,32
 141.75390625 110 141.75390625 110 105.75390625 171.5 c 128,-1,33
 69.75390625 233 69.75390625 233 70.25390625 313.5 c 128,-1,34
 70.75390625 394 70.75390625 394 122.75390625 464 c 0,35,36
 154.75390625 507 154.75390625 507 197.75390625 532 c 1,37,38
 197.75390625 588 197.75390625 588 238.75390625 629 c 128,-1,39
 279.75390625 670 279.75390625 670 336.25390625 670 c 128,-1,40
 392.75390625 670 392.75390625 670 433.25390625 629 c 128,-1,41
 473.75390625 588 473.75390625 588 473.75390625 531.5 c 128,-1,42
 473.75390625 475 473.75390625 475 433.25390625 434.5 c 128,-1,43
 392.75390625 394 392.75390625 394 335.75390625 394 c 0,8,9
EndSplineSet
LCarets2: 2 0 0
MultipleSubs2: "cartouched sitelen" jo.t cartouche.body
Ligature2: "sitelen+-space" j o space
Ligature2: "sitelen" j o
EndChar

StartChar: kala.t
Encoding: 989460 989460 40
Width: 672
GlyphClass: 1
Flags: MW
LayerCount: 2
Fore
SplineSet
453.5 512 m 0,0,1
 384.5 512 384.5 512 338.5 462 c 2,2,-1
 237.5 354 l 1,3,-1
 338.5 247 l 2,4,5
 384.5 197 384.5 197 453.5 197 c 0,6,7
 518.5 197 518.5 197 565 243 c 128,-1,8
 611.5 289 611.5 289 611.5 354.5 c 128,-1,9
 611.5 420 611.5 420 565 466 c 128,-1,10
 518.5 512 518.5 512 453.5 512 c 0,0,1
453.5 591 m 0,11,12
 551.5 591 551.5 591 621 521.5 c 128,-1,13
 690.5 452 690.5 452 690.5 354.5 c 128,-1,14
 690.5 257 690.5 257 621 187.5 c 128,-1,15
 551.5 118 551.5 118 453.5 118 c 0,16,17
 403.5 118 403.5 118 359 138 c 128,-1,18
 314.5 158 314.5 158 281.5 192 c 2,19,-1
 183.5 297 l 1,20,-1
 38.5 143 l 1,21,-1
 -18.5 197 l 1,22,-1
 129.5 354 l 1,23,-1
 -18.5 512 l 1,24,-1
 38.5 566 l 1,25,-1
 183.5 412 l 1,26,-1
 281.5 517 l 2,27,28
 314.5 552 314.5 552 359 571.5 c 128,-1,29
 403.5 591 403.5 591 453.5 591 c 0,11,12
EndSplineSet
LCarets2: 4 0 0 0 0
MultipleSubs2: "cartouched sitelen" kala.t cartouche.body
Ligature2: "sitelen+-space" k a l a space
Ligature2: "sitelen" k a l a
EndChar

StartChar: kalama.t
Encoding: 989461 989461 41
Width: 672
GlyphClass: 1
Flags: MW
LayerCount: 2
Fore
SplineSet
178.5 630 m 1,0,-1
 237.5 453 l 1,1,-1
 154.5 453 l 1,2,-1
 95.5 630 l 1,3,-1
 178.5 630 l 1,0,-1
493.5 630 m 1,4,-1
 575.5 630 l 1,5,-1
 516.5 453 l 1,6,-1
 434.5 453 l 1,7,-1
 493.5 630 l 1,4,-1
296.5 630 m 1,8,-1
 375.5 630 l 1,9,-1
 375.5 453 l 1,10,-1
 296.5 453 l 1,11,-1
 296.5 630 l 1,8,-1
143.5 315 m 1,12,13
 156.5 247 156.5 247 210.5 202.5 c 128,-1,14
 264.5 158 264.5 158 335.5 158 c 128,-1,15
 406.5 158 406.5 158 460.5 202.5 c 128,-1,16
 514.5 247 514.5 247 528.5 315 c 1,17,-1
 143.5 315 l 1,12,13
60.5 394 m 1,18,-1
 611.5 394 l 1,19,-1
 611.5 354 l 2,20,21
 611.5 279 611.5 279 574.5 216 c 128,-1,22
 537.5 153 537.5 153 474 116 c 128,-1,23
 410.5 79 410.5 79 335.5 79 c 128,-1,24
 260.5 79 260.5 79 197.5 116 c 128,-1,25
 134.5 153 134.5 153 97.5 216.5 c 128,-1,26
 60.5 280 60.5 280 60.5 354 c 2,27,-1
 60.5 394 l 1,18,-1
EndSplineSet
MultipleSubs2: "cartouched sitelen" kalama.t cartouche.body
Ligature2: "sitelen+-space" k a l a m a space
Ligature2: "sitelen" k a l a m a
EndChar

StartChar: kama.t
Encoding: 989462 989462 42
Width: 672
GlyphClass: 1
Flags: MW
LayerCount: 2
Fore
SplineSet
335.5 709 m 1,0,1
 335.5 709 335.5 709 690.5 79 c 5,2,3
 690.5 79 690.5 79 453.5 0 c 5,4,-1
 428.5 75 l 1,5,-1
 574.5 124 l 1,6,-1
 359.5 506 l 1,7,8
 359.5 506 359.5 506 217.5 0 c 1,9,10
 217.5 0 217.5 0 -18.5 79 c 1,11,-1
 6.5 154 l 1,12,-1
 162.5 102 l 1,13,-1
 335.5 709 l 1,0,1
EndSplineSet
MultipleSubs2: "cartouched sitelen" kama.t cartouche.body
Ligature2: "sitelen+-space" k a m a space
Ligature2: "sitelen" k a m a
EndChar

StartChar: kasi.t
Encoding: 989463 989463 43
Width: 672
GlyphClass: 1
Flags: MW
LayerCount: 2
Fore
SplineSet
611.5 630 m 1,0,1
 513.5 630 513.5 630 444.5 561 c 128,-1,2
 375.5 492 375.5 492 375.5 394 c 1,3,4
 473.5 394 473.5 394 542.5 463 c 128,-1,5
 611.5 532 611.5 532 611.5 630 c 1,0,1
60.5 630 m 1,6,7
 60.5 532 60.5 532 129.5 463 c 128,-1,8
 198.5 394 198.5 394 296.5 394 c 1,9,10
 296.5 492 296.5 492 227.5 561 c 128,-1,11
 158.5 630 158.5 630 60.5 630 c 1,6,7
-18.5 709 m 1,12,-1
 60.5 709 l 2,13,14
 147.5 709 147.5 709 221 664.5 c 128,-1,15
 294.5 620 294.5 620 335.5 546 c 1,16,17
 376.5 620 376.5 620 450 664.5 c 128,-1,18
 523.5 709 523.5 709 611.5 709 c 2,19,-1
 690.5 709 l 1,20,21
 690.5 709 690.5 709 690.5 626.5 c 128,-1,22
 690.5 544 690.5 544 648 471.5 c 128,-1,23
 605.5 399 605.5 399 533 357 c 128,-1,24
 460.5 315 460.5 315 375.5 315 c 1,25,-1
 375.5 0 l 1,26,-1
 296.5 0 l 1,27,-1
 296.5 315 l 1,28,29
 210.5 315 210.5 315 138 357 c 128,-1,30
 65.5 399 65.5 399 23.5 471.5 c 128,-1,31
 -18.5 544 -18.5 544 -18.5 630 c 2,32,-1
 -18.5 709 l 1,12,-1
EndSplineSet
MultipleSubs2: "cartouched sitelen" kasi.t cartouche.body
Ligature2: "sitelen+-space" k a s i space
Ligature2: "sitelen" k a s i
EndChar

StartChar: ken.t
Encoding: 989464 989464 44
Width: 672
GlyphClass: 1
Flags: MW
LayerCount: 2
Fore
SplineSet
99.5 709 m 1,0,-1
 178.5 709 l 1,1,2
 178.5 394 178.5 394 178.5 394 c 1,3,4
 264.5 394 264.5 394 336.5 436 c 128,-1,5
 408.5 478 408.5 478 451 550.5 c 128,-1,6
 493.5 623 493.5 623 493.5 709 c 1,7,8
 539.5 709 539.5 709 560.5 709 c 2,9,-1
 572.5 709 l 1,10,11
 572.5 594 572.5 594 511.5 498.5 c 128,-1,12
 450.5 403 450.5 403 349.5 354 c 1,13,14
 449.5 305 449.5 305 511 210 c 128,-1,15
 572.5 115 572.5 115 572.5 0 c 1,16,17
 572.5 0 572.5 0 493.5 0 c 1,18,19
 493.5 86 493.5 86 451 158.5 c 128,-1,20
 408.5 231 408.5 231 336 273 c 128,-1,21
 263.5 315 263.5 315 178.5 315 c 1,22,-1
 178.5 0 l 1,23,-1
 99.5 0 l 1,24,-1
 99.5 709 l 1,0,-1
EndSplineSet
MultipleSubs2: "cartouched sitelen" ken.t cartouche.body
Ligature2: "sitelen+-space" k e n space
Ligature2: "sitelen" k e n
EndChar

StartChar: kepeken.t
Encoding: 989465 989465 45
Width: 672
GlyphClass: 1
Flags: MW
LayerCount: 2
Fore
SplineSet
60 205 m 1,0,-1
 129 244 l 1,1,-1
 178 158 l 1,2,-1
 178 197 l 2,3,4
 178 278 178 278 236 336 c 0,5,6
 279 379 279 379 336 390 c 1,7,-1
 336 473 l 1,8,-1
 139 473 l 1,9,-1
 139 709 l 1,10,-1
 612 709 l 1,11,-1
 612 473 l 1,12,-1
 415 473 l 1,13,-1
 415 390 l 1,14,15
 471 379 471 379 514 336 c 0,16,17
 572 278 572 278 572 197 c 2,18,-1
 572 0 l 1,19,-1
 493 0 l 1,20,-1
 493 197 l 2,21,22
 493 246 493 246 458.5 280.5 c 128,-1,23
 424 315 424 315 375 315 c 128,-1,24
 326 315 326 315 291.5 280.5 c 128,-1,25
 257 246 257 246 257 197 c 2,26,-1
 257 0 l 1,27,-1
 178 0 l 1,28,-1
 60 205 l 1,0,-1
415 630 m 1,29,-1
 415 551 l 1,30,-1
 533 551 l 1,31,-1
 533 630 l 1,32,-1
 415 630 l 1,29,-1
218 630 m 1,33,-1
 218 551 l 1,34,-1
 336 551 l 1,35,-1
 336 630 l 1,36,-1
 218 630 l 1,33,-1
EndSplineSet
LCarets2: 7 0 0 0 0 0 0 0
MultipleSubs2: "cartouched sitelen" kepeken.t cartouche.body
Ligature2: "sitelen+-space" k e p e k e n space
Ligature2: "sitelen" k e p e k e n
EndChar

StartChar: kili.t
Encoding: 989466 989466 46
Width: 672
GlyphClass: 1
Flags: MW
LayerCount: 2
Fore
SplineSet
257 709 m 1,0,-1
 336 709 l 1,1,-1
 369 515 l 1,2,3
 454 565 454 565 547 529 c 0,4,5
 612 504 612 504 650 445.5 c 128,-1,6
 688 387 688 387 690.5 317.5 c 128,-1,7
 693 248 693 248 662.5 186.5 c 128,-1,8
 632 125 632 125 579 81 c 0,9,10
 479 0 479 0 336.5 0 c 128,-1,11
 194 0 194 0 94 81 c 0,12,13
 40 125 40 125 9.5 186.5 c 128,-1,14
 -21 248 -21 248 -18.5 317.5 c 128,-1,15
 -16 387 -16 387 22 445.5 c 128,-1,16
 60 504 60 504 125 529 c 0,17,18
 210 560 210 560 288 523 c 1,19,-1
 257 709 l 1,0,-1
304 410 m 2,20,21
 279 445 279 445 237 458.5 c 128,-1,22
 195 472 195 472 154 456 c 128,-1,23
 113 440 113 440 87.5 401 c 128,-1,24
 62 362 62 362 60.5 313.5 c 128,-1,25
 59 265 59 265 81 220 c 128,-1,26
 103 175 103 175 144 143 c 0,27,28
 222 79 222 79 336 79 c 128,-1,29
 450 79 450 79 528 143 c 0,30,31
 569 176 569 176 591 220.5 c 128,-1,32
 613 265 613 265 611.5 313.5 c 128,-1,33
 610 362 610 362 585.5 401 c 128,-1,34
 561 440 561 440 519.5 455.5 c 128,-1,35
 478 471 478 471 436 458.5 c 128,-1,36
 394 446 394 446 369 410 c 2,37,-1
 336 365 l 1,38,-1
 304 410 l 2,20,21
EndSplineSet
MultipleSubs2: "cartouched sitelen" kili.t cartouche.body
Ligature2: "sitelen+-space" k i l i space
Ligature2: "sitelen" k i l i
EndChar

StartChar: kiwen.t
Encoding: 989467 989467 47
Width: 672
GlyphClass: 1
Flags: MW
LayerCount: 2
Fore
SplineSet
184.5 551 m 1,0,-1
 83.5 375 l 1,1,-1
 335.5 179 l 1,2,-1
 587.5 375 l 1,3,-1
 486.5 551 l 1,4,-1
 184.5 551 l 1,0,-1
138.5 630 m 1,5,-1
 532.5 630 l 1,6,-1
 690.5 354 l 1,7,-1
 335.5 79 l 1,8,-1
 -18.5 354 l 1,9,-1
 138.5 630 l 1,5,-1
EndSplineSet
MultipleSubs2: "cartouched sitelen" kiwen.t cartouche.body
Ligature2: "sitelen+-space" k i w e n space
Ligature2: "sitelen" k i w e n
EndChar

StartChar: ko.t
Encoding: 989468 989468 48
Width: 672
GlyphClass: 1
Flags: MW
LayerCount: 2
Fore
SplineSet
341.509765625 588 m 128,-1,1
 293.009765625 616 293.009765625 616 268.509765625 623.5 c 128,-1,2
 244.009765625 631 244.009765625 631 227.009765625 624 c 0,3,4
 199.009765625 611 199.009765625 611 201.009765625 592 c 0,5,6
 201.009765625 589 201.009765625 589 211.509765625 562.5 c 128,-1,7
 222.009765625 536 222.009765625 536 224.509765625 515.5 c 128,-1,8
 227.009765625 495 227.009765625 495 215.009765625 471 c 0,9,10
 196.009765625 432 196.009765625 432 133.009765625 423 c 0,11,12
 105.009765625 419 105.009765625 419 100.009765625 415 c 128,-1,13
 95.009765625 411 95.009765625 411 103.509765625 401.5 c 128,-1,14
 112.009765625 392 112.009765625 392 139.009765625 384.5 c 128,-1,15
 166.009765625 377 166.009765625 377 172.009765625 375 c 0,16,17
 219.009765625 359 219.009765625 359 239.509765625 330.5 c 128,-1,18
 260.009765625 302 260.009765625 302 260.009765625 275 c 0,19,20
 260.009765625 224 260.009765625 224 199.009765625 176 c 0,21,22
 171.009765625 154 171.009765625 154 171.009765625 139 c 0,23,24
 171.009765625 102 171.009765625 102 209.009765625 88 c 0,25,26
 265.009765625 67 265.009765625 67 346.009765625 132 c 0,27,28
 406.009765625 180 406.009765625 180 445.009765625 191 c 0,29,30
 462.009765625 197 462.009765625 197 497.509765625 202.5 c 128,-1,31
 533.009765625 208 533.009765625 208 536.009765625 221 c 0,32,33
 541.009765625 231 541.009765625 231 506.509765625 257.5 c 128,-1,34
 472.009765625 284 472.009765625 284 459.009765625 300 c 0,35,36
 430.009765625 336 430.009765625 336 437.509765625 375 c 128,-1,37
 445.009765625 414 445.009765625 414 477.009765625 437 c 0,38,39
 495.009765625 450 495.009765625 450 524.009765625 460 c 128,-1,40
 553.009765625 470 553.009765625 470 565.009765625 476.5 c 128,-1,41
 577.009765625 483 577.009765625 483 576.009765625 491.5 c 128,-1,42
 575.009765625 500 575.009765625 500 568.509765625 509.5 c 128,-1,43
 562.009765625 519 562.009765625 519 545.009765625 525.5 c 128,-1,44
 528.009765625 532 528.009765625 532 489.009765625 537 c 128,-1,45
 450.009765625 542 450.009765625 542 420.009765625 551 c 128,-1,0
 390.009765625 560 390.009765625 560 341.509765625 588 c 128,-1,1
146.009765625 508 m 1,46,-1
 146.009765625 512 l 1,47,48
 145.009765625 518 145.009765625 518 145.009765625 518 c 130,-1,49
 145.009765625 518 145.009765625 518 139.009765625 531.5 c 128,-1,50
 133.009765625 545 133.009765625 545 131.009765625 551 c 0,51,52
 109.009765625 605 109.009765625 605 139.009765625 651 c 0,53,54
 156.009765625 677 156.009765625 677 185.009765625 691 c 0,55,56
 235.009765625 715 235.009765625 715 297.009765625 697 c 0,57,58
 333.009765625 687 333.009765625 687 382.009765625 658.5 c 128,-1,59
 431.009765625 630 431.009765625 630 444.509765625 626 c 128,-1,60
 458.009765625 622 458.009765625 622 500.009765625 617 c 0,61,62
 602.009765625 604 602.009765625 604 635.009765625 551.5 c 128,-1,63
 668.009765625 499 668.009765625 499 645.009765625 452 c 0,64,65
 632.009765625 423 632.009765625 423 599.009765625 405 c 0,66,67
 586.009765625 398 586.009765625 398 551.509765625 386.5 c 128,-1,68
 517.009765625 375 517.009765625 375 515.009765625 363 c 0,69,70
 515.009765625 350 515.009765625 350 548.009765625 325 c 0,71,72
 627.009765625 266 627.009765625 266 615.009765625 209 c 0,73,74
 600.009765625 137 600.009765625 137 497.009765625 122 c 0,75,76
 474.009765625 118 474.009765625 118 459.009765625 113.5 c 128,-1,77
 444.009765625 109 444.009765625 109 395.009765625 70 c 0,78,79
 279.009765625 -22 279.009765625 -22 181.009765625 14 c 0,80,81
 127.009765625 34 127.009765625 34 104.009765625 84 c 0,82,83
 62.009765625 171 62.009765625 171 155.009765625 244 c 0,84,85
 181.009765625 264 181.009765625 264 181.009765625 273 c 128,-1,86
 181.009765625 282 181.009765625 282 169.509765625 289 c 128,-1,87
 158.009765625 296 158.009765625 296 113.509765625 309 c 128,-1,88
 69.009765625 322 69.009765625 322 47.509765625 345 c 128,-1,89
 26.009765625 368 26.009765625 368 19.509765625 396.5 c 128,-1,90
 13.009765625 425 13.009765625 425 28.009765625 451 c 0,91,92
 50.009765625 489 50.009765625 489 111.009765625 499 c 0,93,94
 139.009765625 503 139.009765625 503 146.009765625 508 c 1,46,-1
EndSplineSet
MultipleSubs2: "cartouched sitelen" ko.t cartouche.body
Ligature2: "sitelen+-space" k o space
Ligature2: "sitelen" k o
EndChar

StartChar: kon.t
Encoding: 989469 989469 49
Width: 672
GlyphClass: 1
Flags: MW
LayerCount: 2
Fore
SplineSet
509.5 268 m 2,0,-1
 414.5 394 l 2,1,2
 375.5 447 375.5 447 375.5 520.5 c 128,-1,3
 375.5 594 375.5 594 433 651.5 c 128,-1,4
 490.5 709 490.5 709 572.5 709 c 1,5,-1
 572.5 630 l 1,6,7
 523.5 630 523.5 630 488.5 595.5 c 128,-1,8
 453.5 561 453.5 561 453.5 517 c 128,-1,9
 453.5 473 453.5 473 477.5 441 c 2,10,-1
 572.5 315 l 2,11,12
 611.5 262 611.5 262 611.5 188.5 c 128,-1,13
 611.5 115 611.5 115 554 57.5 c 128,-1,14
 496.5 0 496.5 0 414.5 0 c 1,15,-1
 414.5 79 l 1,16,17
 463.5 79 463.5 79 498 113.5 c 128,-1,18
 532.5 148 532.5 148 533 192 c 128,-1,19
 533.5 236 533.5 236 509.5 268 c 2,0,-1
193.5 268 m 2,20,-1
 99.5 394 l 2,21,22
 60.5 447 60.5 447 60.5 520.5 c 128,-1,23
 60.5 594 60.5 594 118 651.5 c 128,-1,24
 175.5 709 175.5 709 256.5 709 c 1,25,-1
 256.5 630 l 1,26,27
 207.5 630 207.5 630 173 595.5 c 128,-1,28
 138.5 561 138.5 561 138.5 517 c 128,-1,29
 138.5 473 138.5 473 162.5 441 c 2,30,-1
 256.5 315 l 2,31,32
 295.5 262 295.5 262 296 188.5 c 128,-1,33
 296.5 115 296.5 115 239 57.5 c 128,-1,34
 181.5 0 181.5 0 99.5 0 c 1,35,-1
 99.5 79 l 1,36,37
 148.5 79 148.5 79 183 113.5 c 128,-1,38
 217.5 148 217.5 148 217.5 192 c 128,-1,39
 217.5 236 217.5 236 193.5 268 c 2,20,-1
EndSplineSet
MultipleSubs2: "cartouched sitelen" kon.t cartouche.body
Ligature2: "sitelen+-space" k o n space
Ligature2: "sitelen" k o n
EndChar

StartChar: kule.t
Encoding: 989470 989470 50
Width: 672
GlyphClass: 1
Flags: MW
LayerCount: 2
Fore
SplineSet
207.5 276 m 1,0,-1
 108.5 79 l 1,1,-1
 562.5 79 l 1,2,-1
 464.5 276 l 1,3,-1
 207.5 276 l 1,0,-1
335.5 532 m 1,4,-1
 246.5 354 l 1,5,-1
 424.5 354 l 1,6,-1
 335.5 532 l 1,4,-1
335.5 709 m 1,7,-1
 512.5 354 l 1,8,-1
 690.5 354 l 1,9,-1
 690.5 276 l 1,10,-1
 552.5 276 l 1,11,-1
 690.5 0 l 1,12,-1
 -18.5 0 l 1,13,-1
 119.5 276 l 1,14,-1
 -18.5 276 l 1,15,-1
 -18.5 354 l 1,16,-1
 158.5 354 l 1,17,-1
 335.5 709 l 1,7,-1
EndSplineSet
MultipleSubs2: "cartouched sitelen" kule.t cartouche.body
Ligature2: "sitelen+-space" k u l e space
Ligature2: "sitelen" k u l e
EndChar

StartChar: kulupu.t
Encoding: 989471 989471 51
Width: 672
GlyphClass: 1
Flags: MW
LayerCount: 2
Fore
SplineSet
532.5 256 m 128,-1,1
 500.5 256 500.5 256 477 233 c 128,-1,2
 453.5 210 453.5 210 453.5 177.5 c 128,-1,3
 453.5 145 453.5 145 477 121.5 c 128,-1,4
 500.5 98 500.5 98 532.5 98 c 128,-1,5
 564.5 98 564.5 98 588 121.5 c 128,-1,6
 611.5 145 611.5 145 611.5 177.5 c 128,-1,7
 611.5 210 611.5 210 588 233 c 128,-1,0
 564.5 256 564.5 256 532.5 256 c 128,-1,1
533 335 m 128,-1,9
 598.5 335 598.5 335 644.5 289 c 128,-1,10
 690.5 243 690.5 243 690.5 177.5 c 128,-1,11
 690.5 112 690.5 112 644.5 66 c 128,-1,12
 598.5 20 598.5 20 533 20 c 128,-1,13
 467.5 20 467.5 20 421.5 66 c 128,-1,14
 375.5 112 375.5 112 375.5 177.5 c 128,-1,15
 375.5 243 375.5 243 421.5 289 c 128,-1,8
 467.5 335 467.5 335 533 335 c 128,-1,9
139 256 m 128,-1,17
 106.5 256 106.5 256 83.5 233 c 128,-1,18
 60.5 210 60.5 210 60.5 177.5 c 128,-1,19
 60.5 145 60.5 145 83.5 121.5 c 128,-1,20
 106.5 98 106.5 98 139 98 c 128,-1,21
 171.5 98 171.5 98 194.5 121.5 c 128,-1,22
 217.5 145 217.5 145 217.5 177.5 c 128,-1,23
 217.5 210 217.5 210 194.5 233 c 128,-1,16
 171.5 256 171.5 256 139 256 c 128,-1,17
139 335 m 128,-1,25
 204.5 335 204.5 335 250.5 289 c 128,-1,26
 296.5 243 296.5 243 296.5 177.5 c 128,-1,27
 296.5 112 296.5 112 250.5 66 c 128,-1,28
 204.5 20 204.5 20 139 20 c 128,-1,29
 73.5 20 73.5 20 27.5 66 c 128,-1,30
 -18.5 112 -18.5 112 -18.5 177.5 c 128,-1,31
 -18.5 243 -18.5 243 27.5 289 c 128,-1,24
 73.5 335 73.5 335 139 335 c 128,-1,25
336 610 m 128,-1,33
 303.5 610 303.5 610 280 587 c 128,-1,34
 256.5 564 256.5 564 256.5 531.5 c 128,-1,35
 256.5 499 256.5 499 280 476 c 128,-1,36
 303.5 453 303.5 453 336 453 c 128,-1,37
 368.5 453 368.5 453 391.5 476 c 128,-1,38
 414.5 499 414.5 499 414.5 531.5 c 128,-1,39
 414.5 564 414.5 564 391.5 587 c 128,-1,32
 368.5 610 368.5 610 336 610 c 128,-1,33
336 689 m 128,-1,41
 401.5 689 401.5 689 447.5 643 c 128,-1,42
 493.5 597 493.5 597 493.5 531.5 c 128,-1,43
 493.5 466 493.5 466 447.5 420 c 128,-1,44
 401.5 374 401.5 374 336 374 c 128,-1,45
 270.5 374 270.5 374 224.5 420 c 128,-1,46
 178.5 466 178.5 466 178.5 531.5 c 128,-1,47
 178.5 597 178.5 597 224.5 643 c 128,-1,40
 270.5 689 270.5 689 336 689 c 128,-1,41
EndSplineSet
MultipleSubs2: "cartouched sitelen" kulupu.t cartouche.body
Ligature2: "sitelen+-space" k u l u p u space
Ligature2: "sitelen" k u l u p u
EndChar

StartChar: kute.t
Encoding: 989472 989472 52
Width: 672
GlyphClass: 1
Flags: MW
LayerCount: 2
Fore
SplineSet
368.5 514 m 1,0,1
 383.5 485 383.5 485 383.5 453 c 0,2,3
 383.5 396 383.5 396 342.5 355.5 c 128,-1,4
 301.5 315 301.5 315 245.5 315 c 1,5,6
 245.5 315 245.5 315 245.5 394 c 1,7,8
 269.5 394 269.5 394 287 411.5 c 128,-1,9
 304.5 429 304.5 429 304.5 448 c 128,-1,10
 304.5 467 304.5 467 298.5 479 c 1,11,-1
 368.5 514 l 1,0,1
91.5 608 m 1,12,13
 173.5 709 173.5 709 310.5 709 c 0,14,15
 379.5 709 379.5 709 442.5 672 c 128,-1,16
 505.5 635 505.5 635 543 571.5 c 128,-1,17
 580.5 508 580.5 508 580.5 433 c 0,18,19
 580.5 334 580.5 334 517.5 258 c 2,20,-1
 304.5 0 l 1,21,-1
 243.5 50 l 1,22,23
 243.5 53 243.5 53 456.5 308 c 4,24,25
 501.5 362 501.5 362 501.5 438 c 128,-1,26
 501.5 514 501.5 514 443.5 572 c 128,-1,27
 385.5 630 385.5 630 304.5 630 c 0,28,29
 259.5 630 259.5 630 219.5 611 c 128,-1,30
 179.5 592 179.5 592 152.5 558 c 1,31,-1
 91.5 608 l 1,12,13
EndSplineSet
MultipleSubs2: "cartouched sitelen" kute.t cartouche.body
Ligature2: "sitelen+-space" k u t e space
Ligature2: "sitelen" k u t e
EndChar

StartChar: la.t
Encoding: 989473 989473 53
Width: 672
GlyphClass: 1
Flags: MW
LayerCount: 2
Fore
SplineSet
232 709 m 1,0,1
 339 664 339 664 404 567.5 c 128,-1,2
 469 471 469 471 469 354.5 c 128,-1,3
 469 238 469 238 404.5 141.5 c 128,-1,4
 340 45 340 45 232 0 c 1,5,-1
 203 72 l 1,6,7
 288 107 288 107 339 184.5 c 128,-1,8
 390 262 390 262 390 354.5 c 128,-1,9
 390 447 390 447 339 524 c 128,-1,10
 288 601 288 601 203 636 c 1,11,-1
 232 709 l 1,0,1
EndSplineSet
MultipleSubs2: "cartouched sitelen" la.t cartouche.body
Ligature2: "sitelen+-space" l a space
Ligature2: "sitelen" l a
EndChar

StartChar: lape.t
Encoding: 989474 989474 54
Width: 672
GlyphClass: 1
Flags: MW
LayerCount: 2
Fore
SplineSet
532.5 433 m 128,-1,1
 500.5 433 500.5 433 477 410 c 128,-1,2
 453.5 387 453.5 387 453.5 354.5 c 128,-1,3
 453.5 322 453.5 322 477 299 c 128,-1,4
 500.5 276 500.5 276 532.5 276 c 128,-1,5
 564.5 276 564.5 276 588 299 c 128,-1,6
 611.5 322 611.5 322 611.5 354.5 c 128,-1,7
 611.5 387 611.5 387 588 410 c 128,-1,0
 564.5 433 564.5 433 532.5 433 c 128,-1,1
532.5 512 m 0,8,9
 597.5 512 597.5 512 644 466 c 128,-1,10
 690.5 420 690.5 420 690.5 354.5 c 128,-1,11
 690.5 289 690.5 289 644.5 243 c 128,-1,12
 598.5 197 598.5 197 532.5 197 c 0,13,14
 478.5 197 478.5 197 436.5 230.5 c 128,-1,15
 394.5 264 394.5 264 380.5 315 c 1,16,-1
 -18.5 315 l 1,17,-1
 -18.5 394 l 1,18,-1
 380.5 394 l 1,19,20
 393.5 445 393.5 445 436 478.5 c 128,-1,21
 478.5 512 478.5 512 532.5 512 c 0,8,9
EndSplineSet
MultipleSubs2: "cartouched sitelen" lape.t cartouche.body
Ligature2: "sitelen+-space" l a p e space
Ligature2: "sitelen" l a p e
EndChar

StartChar: laso.t
Encoding: 989475 989475 55
Width: 672
GlyphClass: 1
Flags: MW
LayerCount: 2
Fore
SplineSet
493.5 630 m 1,0,1
 444.5 630 444.5 630 410 595.5 c 128,-1,2
 375.5 561 375.5 561 375.5 512 c 1,3,4
 424.5 512 424.5 512 459 546.5 c 128,-1,5
 493.5 581 493.5 581 493.5 630 c 1,0,1
178.5 630 m 1,6,7
 178.5 581 178.5 581 213 546.5 c 128,-1,8
 247.5 512 247.5 512 296.5 512 c 1,9,10
 296.5 561 296.5 561 262 595.5 c 128,-1,11
 227.5 630 227.5 630 178.5 630 c 1,6,7
99.5 709 m 1,12,-1
 178.5 709 l 2,13,14
 225.5 709 225.5 709 267 687.5 c 128,-1,15
 308.5 666 308.5 666 335.5 630 c 1,16,17
 363.5 666 363.5 666 405 687.5 c 128,-1,18
 446.5 709 446.5 709 493.5 709 c 2,19,-1
 572.5 709 l 1,20,-1
 572.5 630 l 2,21,22
 572.5 549 572.5 549 514.5 491 c 128,-1,23
 456.5 433 456.5 433 375.5 433 c 1,24,-1
 375.5 371 l 1,25,-1
 611.5 0 l 1,26,27
 611.5 0 611.5 0 60.5 0 c 1,28,-1
 296.5 371 l 1,29,-1
 296.5 433 l 1,30,31
 215.5 433 215.5 433 157.5 491 c 128,-1,32
 99.5 549 99.5 549 99.5 630 c 2,33,-1
 99.5 709 l 1,12,-1
335.5 287 m 1,34,-1
 203.5 79 l 1,35,-1
 468.5 79 l 1,36,-1
 335.5 287 l 1,34,-1
EndSplineSet
MultipleSubs2: "cartouched sitelen" laso.t cartouche.body
Ligature2: "sitelen+-space" l a s o space
Ligature2: "sitelen" l a s o
EndChar

StartChar: lawa.t
Encoding: 989476 989476 56
Width: 672
GlyphClass: 1
Flags: MW
LayerCount: 2
Fore
SplineSet
276.5 571 m 128,-1,1
 186.5 571 186.5 571 123.5 508 c 0,2,3
 98.5 483 98.5 483 82.5 453 c 1,4,-1
 470.5 453 l 1,5,6
 455.5 482 455.5 482 429.5 508 c 0,7,0
 366.5 571 366.5 571 276.5 571 c 128,-1,1
276.5 650 m 0,8,9
 356.5 650 356.5 650 425.5 610 c 0,10,11
 520.5 555 520.5 555 555.5 453 c 1,12,-1
 690.5 453 l 1,13,-1
 690.5 374 l 1,14,-1
 571.5 374 l 1,15,16
 572.5 364 572.5 364 572.5 354 c 0,17,18
 572.5 274 572.5 274 533 206 c 128,-1,19
 493.5 138 493.5 138 425 98.5 c 128,-1,20
 356.5 59 356.5 59 276.5 59 c 0,21,22
 154.5 59 154.5 59 68 145.5 c 128,-1,23
 -18.5 232 -18.5 232 -18.5 354.5 c 128,-1,24
 -18.5 477 -18.5 477 68 563.5 c 128,-1,25
 154.5 650 154.5 650 276.5 650 c 0,8,9
60.5 374 m 1,26,27
 59.5 364 59.5 364 60.5 354 c 0,28,29
 60.5 264 60.5 264 123.5 201 c 128,-1,30
 186.5 138 186.5 138 276.5 138 c 128,-1,31
 366.5 138 366.5 138 430 201.5 c 128,-1,32
 493.5 265 493.5 265 493.5 354 c 0,33,34
 493.5 364 493.5 364 492.5 374 c 1,35,-1
 60.5 374 l 1,26,27
EndSplineSet
MultipleSubs2: "cartouched sitelen" lawa.t cartouche.body
Ligature2: "sitelen+-space" l a w a space
Ligature2: "sitelen" l a w a
EndChar

StartChar: len.t
Encoding: 989477 989477 57
Width: 672
GlyphClass: 1
Flags: MW
LayerCount: 2
Fore
SplineSet
138.5 630 m 1,0,-1
 138.5 315 l 1,1,-1
 532.5 315 l 1,2,-1
 532.5 630 l 1,3,-1
 138.5 630 l 1,0,-1
60.5 709 m 5,4,5
 60.5 709 60.5 709 611.5 709 c 5,6,-1
 611.5 0 l 1,7,-1
 532.5 0 l 1,8,-1
 532.5 236 l 1,9,-1
 375.5 236 l 1,10,-1
 375.5 0 l 1,11,-1
 296.5 0 l 1,12,-1
 296.5 236 l 1,13,-1
 138.5 236 l 1,14,-1
 138.5 0 l 1,15,-1
 60.5 0 l 1,16,-1
 60.5 709 l 5,4,5
EndSplineSet
MultipleSubs2: "cartouched sitelen" len.t cartouche.body
Ligature2: "sitelen+-space" l e n space
Ligature2: "sitelen" l e n
EndChar

StartChar: lete.t
Encoding: 989478 989478 58
Width: 672
GlyphClass: 1
Flags: MW
LayerCount: 2
Fore
SplineSet
192.5 681 m 1,0,-1
 335.5 433 l 1,1,-1
 479.5 681 l 1,2,-1
 546.5 642 l 1,3,-1
 404.5 394 l 1,4,-1
 690.5 394 l 1,5,-1
 690.5 315 l 1,6,-1
 404.5 315 l 1,7,-1
 546.5 67 l 1,8,-1
 479.5 28 l 1,9,-1
 335.5 276 l 1,10,-1
 192.5 28 l 1,11,-1
 124.5 67 l 1,12,-1
 267.5 315 l 1,13,-1
 -18.5 315 l 1,14,-1
 -18.5 394 l 1,15,-1
 267.5 394 l 1,16,-1
 124.5 642 l 1,17,-1
 192.5 681 l 1,0,-1
EndSplineSet
MultipleSubs2: "cartouched sitelen" lete.t cartouche.body
Ligature2: "sitelen+-space" l e t e space
Ligature2: "sitelen" l e t e
EndChar

StartChar: li.t
Encoding: 989479 989479 59
Width: 672
GlyphClass: 1
Flags: MW
LayerCount: 2
Fore
SplineSet
194 686 m 1,0,-1
 533 354 l 1,1,-1
 194 23 l 1,2,-1
 139 79 l 1,3,-1
 420 354 l 1,4,-1
 139 630 l 1,5,-1
 194 686 l 1,0,-1
EndSplineSet
MultipleSubs2: "cartouched sitelen" li.t cartouche.body
Ligature2: "sitelen+-space" l i space
Ligature2: "sitelen" l i
EndChar

StartChar: lili.t
Encoding: 989480 989480 60
Width: 672
GlyphClass: 1
Flags: MW
LayerCount: 2
Fore
SplineSet
277 473 m 1,0,-1
 336 381 l 1,1,-1
 395 473 l 1,2,-1
 461 430 l 1,3,-1
 336 236 l 1,4,-1
 211 430 l 1,5,-1
 277 473 l 1,0,-1
EndSplineSet
MultipleSubs2: "cartouched sitelen" lili.t cartouche.body
Ligature2: "sitelen+-space" l i l i space
Ligature2: "sitelen" l i l i
EndChar

StartChar: linja.t
Encoding: 989481 989481 61
Width: 672
GlyphClass: 1
Flags: MW
LayerCount: 2
Fore
SplineSet
249.5 339 m 2,0,-1
 375.5 433 l 2,1,2
 428.5 472 428.5 472 493.5 473 c 0,3,4
 575.5 473 575.5 473 633 415.5 c 128,-1,5
 690.5 358 690.5 358 690.5 276 c 1,6,-1
 611.5 276 l 1,7,8
 611.5 325 611.5 325 577 359.5 c 128,-1,9
 542.5 394 542.5 394 493.5 394 c 0,10,11
 454.5 394 454.5 394 422.5 370 c 2,12,-1
 296.5 276 l 2,13,14
 243.5 237 243.5 237 178.5 236 c 0,15,16
 96.5 236 96.5 236 39 293.5 c 128,-1,17
 -18.5 351 -18.5 351 -18.5 433 c 1,18,-1
 60.5 433 l 1,19,20
 60.5 384 60.5 384 95 349.5 c 128,-1,21
 129.5 315 129.5 315 178.5 315 c 0,22,23
 217.5 315 217.5 315 249.5 339 c 2,0,-1
EndSplineSet
MultipleSubs2: "cartouched sitelen" linja.t cartouche.body
LCarets2: 5 0 0 0 0 0
Ligature2: "sitelen+-space" l i n j a space
Ligature2: "sitelen" l i n j a
EndChar

StartChar: lipu.t
Encoding: 989482 989482 62
Width: 672
GlyphClass: 1
Flags: MW
LayerCount: 2
Fore
SplineSet
138.5 630 m 1,0,-1
 138.5 79 l 1,1,-1
 532.5 79 l 1,2,-1
 532.5 630 l 1,3,-1
 138.5 630 l 1,0,-1
60.5 709 m 5,4,5
 60.5 709 60.5 709 611.5 709 c 1,6,-1
 611.5 0 l 1,7,8
 611.5 0 611.5 0 60.5 0 c 5,9,10
 60.5 0 60.5 0 60.5 709 c 5,4,5
EndSplineSet
MultipleSubs2: "cartouched sitelen" lipu.t cartouche.body
Ligature2: "sitelen+-space" l i p u space
Ligature2: "sitelen" l i p u
EndChar

StartChar: loje.t
Encoding: 989483 989483 63
Width: 672
GlyphClass: 1
Flags: MW
LayerCount: 2
Fore
SplineSet
335.5 287 m 1,0,-1
 203.5 79 l 1,1,-1
 468.5 79 l 1,2,-1
 335.5 287 l 1,0,-1
336 433 m 128,-1,4
 238.5 433 238.5 433 169 502.5 c 128,-1,5
 99.5 572 99.5 572 99.5 670 c 6,6,-1
 99.5 709 l 1,7,8
 99.5 709 99.5 709 572.5 709 c 1,9,-1
 572.5 670 l 2,10,11
 572.5 572 572.5 572 503 502.5 c 128,-1,3
 433.5 433 433.5 433 336 433 c 128,-1,4
335.5 433 m 1,12,-1
 611.5 0 l 1,13,14
 611.5 0 611.5 0 60.5 0 c 1,15,-1
 335.5 433 l 1,12,-1
182.5 630 m 1,16,17
 192.5 589 192.5 589 224.5 558 c 0,18,19
 270.5 512 270.5 512 336 512 c 128,-1,20
 401.5 512 401.5 512 447.5 558 c 0,21,22
 479.5 590 479.5 590 488.5 630 c 1,23,-1
 182.5 630 l 1,16,17
EndSplineSet
MultipleSubs2: "cartouched sitelen" loje.t cartouche.body
Ligature2: "sitelen+-space" l o j e space
Ligature2: "sitelen" l o j e
EndChar

StartChar: lon.t
Encoding: 989484 989484 64
Width: 672
GlyphClass: 1
Flags: MW
LayerCount: 2
Fore
SplineSet
276.5 453 m 128,-1,1
 276.5 477 276.5 477 294 494.5 c 128,-1,2
 311.5 512 311.5 512 336 512 c 128,-1,3
 360.5 512 360.5 512 377.5 494.5 c 128,-1,4
 394.5 477 394.5 477 394.5 453 c 128,-1,5
 394.5 429 394.5 429 377.5 411.5 c 128,-1,6
 360.5 394 360.5 394 336 394 c 128,-1,7
 311.5 394 311.5 394 294 411.5 c 128,-1,0
 276.5 429 276.5 429 276.5 453 c 128,-1,1
-18.5 256 m 1,8,-1
 -18.5 335 l 1,9,-1
 690.5 335 l 1,10,-1
 690.5 256 l 1,11,-1
 -18.5 256 l 1,8,-1
EndSplineSet
MultipleSubs2: "cartouched sitelen" lon.t cartouche.body
Ligature2: "sitelen+-space" l o n space
Ligature2: "sitelen" l o n
EndChar

StartChar: luka.t
Encoding: 989485 989485 65
Width: 672
GlyphClass: 1
Flags: MW
LayerCount: 2
Fore
SplineSet
434.5 709 m 128,-1,1
 532.5 709 532.5 709 601.5 639.5 c 128,-1,2
 670.5 570 670.5 570 670.5 473 c 2,3,-1
 670.5 0 l 1,4,-1
 592.5 0 l 1,5,-1
 592.5 473 l 2,6,7
 592.5 538 592.5 538 546 584 c 128,-1,8
 499.5 630 499.5 630 434.5 630 c 128,-1,9
 369.5 630 369.5 630 323 584 c 128,-1,10
 276.5 538 276.5 538 276.5 473 c 2,11,-1
 276.5 0 l 1,12,-1
 198.5 0 l 1,13,-1
 1.5 236 l 1,14,-1
 61.5 287 l 1,15,-1
 198.5 123 l 1,16,-1
 198.5 473 l 2,17,18
 198.5 571 198.5 571 267.5 640 c 128,-1,0
 336.5 709 336.5 709 434.5 709 c 128,-1,1
EndSplineSet
MultipleSubs2: "cartouched sitelen" luka.t cartouche.body
Ligature2: "sitelen+-space" l u k a space
Ligature2: "sitelen" l u k a
EndChar

StartChar: lukin.t
Encoding: 989486 989486 66
Width: 672
GlyphClass: 1
Flags: MW
LayerCount: 2
Fore
SplineSet
335.5 551 m 128,-1,1
 461.5 551 461.5 551 565.5 482 c 0,2,3
 642.5 431 642.5 431 690.5 355 c 1,4,5
 646.5 284 646.5 284 576.5 234 c 0,6,7
 575.5 233 575.5 233 573.5 232 c 0,8,9
 519.5 192 519.5 192 455.5 175 c 128,-1,10
 391.5 158 391.5 158 335.5 158 c 0,11,12
 199.5 158 199.5 158 97.5 232 c 0,13,14
 95.5 234 95.5 234 90.5 237 c 0,15,16
 25.5 283 25.5 283 -18.5 355 c 1,17,18
 29.5 432 29.5 432 105.5 482 c 0,19,0
 209.5 551 209.5 551 335.5 551 c 128,-1,1
335.5 473 m 128,-1,21
 247.5 473 247.5 473 171.5 430 c 0,22,23
 119.5 401 119.5 401 78.5 354 c 1,24,25
 115.5 311 115.5 311 163.5 283 c 0,26,27
 243.5 236 243.5 236 335.5 236 c 128,-1,28
 427.5 236 427.5 236 507.5 283 c 0,29,30
 555.5 311 555.5 311 592.5 354 c 1,31,32
 552.5 401 552.5 401 500.5 430 c 0,33,20
 423.5 473 423.5 473 335.5 473 c 128,-1,21
276.5 354.5 m 128,-1,35
 276.5 379 276.5 379 294 396.5 c 128,-1,36
 311.5 414 311.5 414 336 414 c 128,-1,37
 360.5 414 360.5 414 377.5 396.5 c 128,-1,38
 394.5 379 394.5 379 394.5 354.5 c 128,-1,39
 394.5 330 394.5 330 377.5 312.5 c 128,-1,40
 360.5 295 360.5 295 336 295 c 128,-1,41
 311.5 295 311.5 295 294 312.5 c 128,-1,34
 276.5 330 276.5 330 276.5 354.5 c 128,-1,35
EndSplineSet
MultipleSubs2: "cartouched sitelen" lukin.t cartouche.body
LCarets2: 5 0 0 0 0 0
Ligature2: "sitelen+-space" l u k i n space
Ligature2: "sitelen" l u k i n
EndChar

StartChar: lupa.t
Encoding: 989487 989487 67
Width: 672
GlyphClass: 1
Flags: MW
LayerCount: 2
Fore
SplineSet
336 0 m 128,-1,1
 238.5 0 238.5 0 169 69.5 c 128,-1,2
 99.5 139 99.5 139 99.5 236 c 2,3,-1
 99.5 709 l 1,4,-1
 178.5 709 l 1,5,-1
 178.5 236 l 2,6,7
 178.5 171 178.5 171 224.5 125 c 128,-1,8
 270.5 79 270.5 79 336 79 c 128,-1,9
 401.5 79 401.5 79 447.5 125 c 128,-1,10
 493.5 171 493.5 171 493.5 236 c 2,11,-1
 493.5 709 l 1,12,-1
 572.5 709 l 1,13,-1
 572.5 236 l 2,14,15
 572.5 138 572.5 138 503 69 c 128,-1,0
 433.5 0 433.5 0 336 0 c 128,-1,1
EndSplineSet
LCarets2: 4 0 0 0 0
MultipleSubs2: "cartouched sitelen" lupa.t cartouche.body
Ligature2: "sitelen+-space" l u p a space
Ligature2: "sitelen" l u p a
EndChar

StartChar: ma.t
Encoding: 989488 989488 68
Width: 672
GlyphClass: 1
Flags: MW
LayerCount: 2
Fore
SplineSet
375.5 315 m 1,0,-1
 375.5 82 l 1,1,2
 466.5 95 466.5 95 531 159.5 c 128,-1,3
 595.5 224 595.5 224 608.5 315 c 1,4,-1
 375.5 315 l 1,0,-1
63.5 315 m 1,5,6
 76.5 225 76.5 225 141.5 160 c 128,-1,7
 206.5 95 206.5 95 296.5 82 c 1,8,-1
 296.5 315 l 1,9,-1
 63.5 315 l 1,5,6
375.5 627 m 1,10,-1
 375.5 394 l 1,11,-1
 608.5 394 l 1,12,13
 595.5 484 595.5 484 530.5 549 c 128,-1,14
 465.5 614 465.5 614 375.5 627 c 1,10,-1
296.5 627 m 1,15,16
 206.5 614 206.5 614 141.5 549 c 128,-1,17
 76.5 484 76.5 484 63.5 394 c 1,18,-1
 296.5 394 l 1,19,-1
 296.5 627 l 1,15,16
336 709 m 132,-1,21
 407.5 709 407.5 709 473 681 c 128,-1,22
 538.5 653 538.5 653 586.5 605.5 c 128,-1,23
 634.5 558 634.5 558 662.5 492 c 128,-1,24
 690.5 426 690.5 426 690.5 354.5 c 128,-1,25
 690.5 283 690.5 283 662.5 217 c 128,-1,26
 634.5 151 634.5 151 586.5 103.5 c 128,-1,27
 538.5 56 538.5 56 473 28 c 128,-1,28
 407.5 0 407.5 0 336 0 c 128,-1,29
 264.5 0 264.5 0 198.5 28 c 128,-1,30
 132.5 56 132.5 56 85 103.5 c 128,-1,31
 37.5 151 37.5 151 9.5 217 c 128,-1,32
 -18.5 283 -18.5 283 -18.5 354.5 c 128,-1,33
 -18.5 426 -18.5 426 9.5 492 c 128,-1,34
 37.5 558 37.5 558 85 605.5 c 128,-1,35
 132.5 653 132.5 653 198.5 681 c 128,-1,20
 264.5 709 264.5 709 336 709 c 132,-1,21
EndSplineSet
LCarets2: 2 0 0
MultipleSubs2: "cartouched sitelen" ma.t cartouche.body
Ligature2: "sitelen+-space" m a space
Ligature2: "sitelen" m a
EndChar

StartChar: mama.t
Encoding: 989489 989489 69
Width: 672
GlyphClass: 1
Flags: MW
LayerCount: 2
Fore
SplineSet
336 630 m 128,-1,1
 263 630 263 630 211 578 c 128,-1,2
 159 526 159 526 159 453 c 128,-1,3
 159 380 159 380 211 328 c 128,-1,4
 263 276 263 276 336 276 c 128,-1,5
 409 276 409 276 461 328 c 128,-1,6
 513 380 513 380 513 453 c 128,-1,7
 513 526 513 526 461 578 c 128,-1,0
 409 630 409 630 336 630 c 128,-1,1
336.5 709 m 128,-1,9
 406 709 406 709 465 674.5 c 128,-1,10
 524 640 524 640 558 581 c 128,-1,11
 592 522 592 522 592 453 c 128,-1,12
 592 384 592 384 558 324.5 c 128,-1,13
 524 265 524 265 465 231 c 0,14,15
 456 226 456 226 446 221 c 1,16,17
 474 185 474 185 474 138 c 0,18,19
 474 81 474 81 433.5 40.5 c 128,-1,20
 393 0 393 0 336.5 0 c 128,-1,21
 280 0 280 0 239 40.5 c 128,-1,22
 198 81 198 81 198 138 c 0,23,24
 198 185 198 185 227 221 c 1,25,26
 217 226 217 226 208 231 c 0,27,28
 149 265 149 265 114.5 324.5 c 128,-1,29
 80 384 80 384 80 453 c 128,-1,30
 80 522 80 522 114.5 581 c 128,-1,31
 149 640 149 640 208 674.5 c 128,-1,8
 267 709 267 709 336.5 709 c 128,-1,9
336.5 197 m 128,-1,33
 312 197 312 197 294.5 179.5 c 128,-1,34
 277 162 277 162 277 137.5 c 128,-1,35
 277 113 277 113 294.5 96 c 128,-1,36
 312 79 312 79 336.5 79 c 128,-1,37
 361 79 361 79 378 96 c 128,-1,38
 395 113 395 113 395 137.5 c 128,-1,39
 395 162 395 162 378 179.5 c 128,-1,32
 361 197 361 197 336.5 197 c 128,-1,33
EndSplineSet
MultipleSubs2: "cartouched sitelen" mama.t cartouche.body
Ligature2: "sitelen+-space" m a m a space
Ligature2: "sitelen" m a m a
EndChar

StartChar: mani.t
Encoding: 989490 989490 70
Width: 672
GlyphClass: 1
Flags: MW
LayerCount: 2
Fore
SplineSet
335.5 551 m 128,-1,1
 254.5 551 254.5 551 196.5 493.5 c 128,-1,2
 138.5 436 138.5 436 138.5 354.5 c 128,-1,3
 138.5 273 138.5 273 196.5 215.5 c 128,-1,4
 254.5 158 254.5 158 335.5 158 c 128,-1,5
 416.5 158 416.5 158 474.5 215.5 c 128,-1,6
 532.5 273 532.5 273 532.5 354.5 c 128,-1,7
 532.5 436 532.5 436 474.5 493.5 c 128,-1,0
 416.5 551 416.5 551 335.5 551 c 128,-1,1
335.5 630 m 128,-1,9
 410.5 630 410.5 630 465 598.5 c 128,-1,10
 519.5 567 519.5 567 551.5 527 c 1,11,12
 565.5 535 565.5 535 576.5 547 c 0,13,14
 611.5 582 611.5 582 611.5 630 c 1,15,-1
 690.5 630 l 1,16,17
 690.5 570 690.5 570 661 526 c 128,-1,18
 631.5 482 631.5 482 591.5 459 c 1,19,20
 611.5 410 611.5 410 611.5 345 c 128,-1,21
 611.5 280 611.5 280 574.5 216.5 c 128,-1,22
 537.5 153 537.5 153 474 116 c 128,-1,23
 410.5 79 410.5 79 335.5 79 c 128,-1,24
 260.5 79 260.5 79 197.5 116 c 128,-1,25
 134.5 153 134.5 153 97.5 216.5 c 128,-1,26
 60.5 280 60.5 280 60.5 345 c 128,-1,27
 60.5 410 60.5 410 80.5 459 c 1,28,29
 40.5 482 40.5 482 11 526 c 128,-1,30
 -18.5 570 -18.5 570 -18.5 630 c 1,31,-1
 60.5 630 l 1,32,33
 60.5 581 60.5 581 94.5 547 c 0,34,35
 106.5 535 106.5 535 120.5 527 c 1,36,37
 152.5 567 152.5 567 206.5 598.5 c 128,-1,8
 260.5 630 260.5 630 335.5 630 c 128,-1,9
EndSplineSet
MultipleSubs2: "cartouched sitelen" mani.t cartouche.body
Ligature2: "sitelen+-space" m a n i space
Ligature2: "sitelen" m a n i
EndChar

StartChar: meli.t
Encoding: 989491 989491 71
Width: 672
GlyphClass: 1
Flags: MW
LayerCount: 2
Fore
SplineSet
336 492 m 128,-1,1
 279.5 492 279.5 492 238.5 451.5 c 128,-1,2
 197.5 411 197.5 411 197.5 354.5 c 128,-1,3
 197.5 298 197.5 298 238.5 257.5 c 128,-1,4
 279.5 217 279.5 217 336 217 c 128,-1,5
 392.5 217 392.5 217 433 257.5 c 128,-1,6
 473.5 298 473.5 298 473.5 354.5 c 128,-1,7
 473.5 411 473.5 411 433 451.5 c 128,-1,0
 392.5 492 392.5 492 336 492 c 128,-1,1
335.5 571 m 128,-1,9
 425.5 571 425.5 571 489 507.5 c 128,-1,10
 552.5 444 552.5 444 552.5 354.5 c 128,-1,11
 552.5 265 552.5 265 489 201.5 c 128,-1,12
 425.5 138 425.5 138 335.5 138 c 128,-1,13
 245.5 138 245.5 138 182.5 201.5 c 128,-1,14
 119.5 265 119.5 265 119.5 354.5 c 128,-1,15
 119.5 444 119.5 444 182.5 507.5 c 128,-1,8
 245.5 571 245.5 571 335.5 571 c 128,-1,9
336 709 m 128,-1,17
 407.5 709 407.5 709 473 681 c 128,-1,18
 538.5 653 538.5 653 586.5 605.5 c 128,-1,19
 634.5 558 634.5 558 662.5 492 c 128,-1,20
 690.5 426 690.5 426 690.5 354 c 2,21,-1
 690.5 0 l 1,22,-1
 611.5 0 l 1,23,-1
 611.5 354 l 2,24,25
 611.5 429 611.5 429 574.5 492.5 c 128,-1,26
 537.5 556 537.5 556 474 593 c 128,-1,27
 410.5 630 410.5 630 335.5 630 c 128,-1,28
 260.5 630 260.5 630 197.5 593 c 128,-1,29
 134.5 556 134.5 556 97.5 492.5 c 128,-1,30
 60.5 429 60.5 429 60.5 354 c 2,31,-1
 60.5 0 l 1,32,-1
 -18.5 0 l 1,33,-1
 -18.5 354 l 2,34,35
 -18.5 426 -18.5 426 9.5 492 c 128,-1,36
 37.5 558 37.5 558 85 605.5 c 128,-1,37
 132.5 653 132.5 653 198.5 681 c 128,-1,16
 264.5 709 264.5 709 336 709 c 128,-1,17
EndSplineSet
MultipleSubs2: "cartouched sitelen" meli.t cartouche.body
Ligature2: "sitelen+-space" m e l i space
Ligature2: "sitelen" m e l i
EndChar

StartChar: mi.t
Encoding: 989492 989492 72
Width: 672
GlyphClass: 1
Flags: MW
LayerCount: 2
Fore
SplineSet
349 630 m 128,-1,1
 316.5 630 316.5 630 293 607 c 128,-1,2
 269.5 584 269.5 584 269.5 551.5 c 128,-1,3
 269.5 519 269.5 519 293 496 c 128,-1,4
 316.5 473 316.5 473 349 473 c 128,-1,5
 381.5 473 381.5 473 404.5 496 c 128,-1,6
 427.5 519 427.5 519 427.5 551.5 c 128,-1,7
 427.5 584 427.5 584 404.5 607 c 128,-1,0
 381.5 630 381.5 630 349 630 c 128,-1,1
235.5 0 m 1,8,9
 166.5 171 166.5 171 165.5 354 c 0,10,11
 165.5 474 165.5 474 195.5 591 c 0,12,13
 208.5 643 208.5 643 252 676 c 128,-1,14
 295.5 709 295.5 709 355 709 c 128,-1,15
 414.5 709 414.5 709 460.5 663 c 128,-1,16
 506.5 617 506.5 617 506.5 551.5 c 128,-1,17
 506.5 486 506.5 486 460.5 440 c 128,-1,18
 414.5 394 414.5 394 353.5 394 c 128,-1,19
 292.5 394 292.5 394 248.5 430 c 1,20,21
 244.5 391 244.5 391 244.5 354 c 0,22,23
 244.5 184 244.5 184 308.5 30 c 1,24,-1
 235.5 0 l 1,8,9
EndSplineSet
MultipleSubs2: "cartouched sitelen" mi.t cartouche.body
Ligature2: "sitelen" m i
EndChar

StartChar: mije.t
Encoding: 989493 989493 73
Width: 672
GlyphClass: 1
Flags: MW
LayerCount: 2
Fore
SplineSet
460.5 236 m 1,0,1
 551.5 302 551.5 302 552.5 414 c 0,2,3
 552.5 504 552.5 504 489 567 c 128,-1,4
 425.5 630 425.5 630 335.5 630 c 128,-1,5
 245.5 630 245.5 630 182.5 566.5 c 128,-1,6
 119.5 503 119.5 503 119.5 414 c 0,7,8
 119.5 303 119.5 303 210.5 236 c 1,9,-1
 212.5 236 l 1,10,11
 268.5 197 268.5 197 336 197 c 128,-1,12
 403.5 197 403.5 197 459.5 236 c 1,13,-1
 460.5 236 l 1,0,1
98.5 236 m 1,14,15
 40.5 315 40.5 315 40.5 404.5 c 128,-1,16
 40.5 494 40.5 494 80 562 c 128,-1,17
 119.5 630 119.5 630 187.5 669.5 c 128,-1,18
 255.5 709 255.5 709 336 709 c 128,-1,19
 416.5 709 416.5 709 484.5 669.5 c 128,-1,20
 552.5 630 552.5 630 592 562 c 128,-1,21
 631.5 494 631.5 494 631.5 404.5 c 128,-1,22
 631.5 315 631.5 315 572.5 236 c 1,23,-1
 690.5 236 l 1,24,-1
 690.5 0 l 1,25,-1
 611.5 0 l 1,26,-1
 611.5 158 l 1,27,-1
 484.5 158 l 1,28,29
 416.5 119 416.5 119 336 118.5 c 128,-1,30
 255.5 118 255.5 118 187.5 158 c 1,31,-1
 60.5 158 l 1,32,-1
 60.5 0 l 1,33,-1
 -18.5 0 l 1,34,-1
 -18.5 158 l 1,35,-1
 -18.5 236 l 1,36,-1
 85.5 236 l 5,37,-1
 98.5 236 l 1,14,15
EndSplineSet
MultipleSubs2: "cartouched sitelen" mije.t cartouche.body
Ligature2: "sitelen+-space" m i j e space
Ligature2: "sitelen" m i j e
EndChar

StartChar: moku.t
Encoding: 989494 989494 74
Width: 672
GlyphClass: 1
Flags: MW
LayerCount: 2
Fore
SplineSet
80 205 m 1,0,-1
 149 244 l 1,1,-1
 198 158 l 1,2,-1
 198 236 l 2,3,4
 198 317 198 317 256 375 c 128,-1,5
 314 433 314 433 395 433 c 128,-1,6
 476 433 476 433 534 375 c 128,-1,7
 592 317 592 317 592 236 c 2,8,-1
 592 0 l 1,9,-1
 513 0 l 1,10,-1
 513 236 l 2,11,12
 513 285 513 285 478.5 319.5 c 128,-1,13
 444 354 444 354 395 354 c 128,-1,14
 346 354 346 354 311.5 319.5 c 128,-1,15
 277 285 277 285 277 236 c 2,16,-1
 277 0 l 1,17,-1
 198 0 l 1,18,-1
 80 205 l 1,0,-1
395 473 m 128,-1,20
 314 473 314 473 256 530.5 c 128,-1,21
 198 588 198 588 198 670 c 2,22,-1
 198 709 l 1,23,-1
 592 709 l 1,24,-1
 592 670 l 2,25,26
 592 589 592 589 534 531 c 128,-1,19
 476 473 476 473 395 473 c 128,-1,20
507 630 m 1,27,-1
 283 630 l 1,28,29
 291 606 291 606 312 586 c 0,30,31
 347 551 347 551 395.5 551 c 128,-1,32
 444 551 444 551 479 586 c 0,33,34
 499 606 499 606 507 630 c 1,27,-1
EndSplineSet
MultipleSubs2: "cartouched sitelen" moku.t cartouche.body
LCarets2: 4 0 0 0 0
Ligature2: "sitelen+-space" m o k u space
Ligature2: "sitelen" m o k u
EndChar

StartChar: moli.t
Encoding: 989495 989495 75
Width: 672
GlyphClass: 1
Flags: MW
LayerCount: 2
Fore
SplineSet
401.5 485 m 1,0,-1
 457.5 430 l 1,1,-1
 512.5 485 l 1,2,-1
 568.5 430 l 1,3,-1
 512.5 374 l 1,4,-1
 568.5 318 l 1,5,-1
 512.5 263 l 1,6,-1
 457.5 318 l 1,7,-1
 401.5 263 l 1,8,-1
 345.5 318 l 1,9,-1
 401.5 374 l 1,10,-1
 345.5 430 l 1,11,-1
 401.5 485 l 1,0,-1
158.5 485 m 1,12,-1
 214.5 430 l 1,13,-1
 269.5 485 l 1,14,-1
 325.5 430 l 1,15,-1
 269.5 374 l 1,16,-1
 325.5 318 l 1,17,-1
 269.5 263 l 1,18,-1
 214.5 318 l 1,19,-1
 158.5 263 l 1,20,-1
 102.5 318 l 1,21,-1
 158.5 374 l 1,22,-1
 102.5 430 l 1,23,-1
 158.5 485 l 1,12,-1
335.5 630 m 128,-1,25
 260.5 630 260.5 630 197.5 593 c 128,-1,26
 134.5 556 134.5 556 97.5 492.5 c 128,-1,27
 60.5 429 60.5 429 60.5 354.5 c 128,-1,28
 60.5 280 60.5 280 97.5 216.5 c 128,-1,29
 134.5 153 134.5 153 197.5 116 c 128,-1,30
 260.5 79 260.5 79 335.5 79 c 128,-1,31
 410.5 79 410.5 79 474 116 c 128,-1,32
 537.5 153 537.5 153 574.5 216.5 c 128,-1,33
 611.5 280 611.5 280 611.5 354.5 c 128,-1,34
 611.5 429 611.5 429 574.5 492.5 c 128,-1,35
 537.5 556 537.5 556 474 593 c 128,-1,24
 410.5 630 410.5 630 335.5 630 c 128,-1,25
336 709 m 128,-1,37
 407.5 709 407.5 709 473 681 c 128,-1,38
 538.5 653 538.5 653 586.5 605.5 c 128,-1,39
 634.5 558 634.5 558 662.5 492 c 128,-1,40
 690.5 426 690.5 426 690.5 354.5 c 128,-1,41
 690.5 283 690.5 283 662.5 217 c 128,-1,42
 634.5 151 634.5 151 586.5 103.5 c 128,-1,43
 538.5 56 538.5 56 473 28 c 128,-1,44
 407.5 0 407.5 0 336 0 c 128,-1,45
 264.5 0 264.5 0 198.5 28 c 128,-1,46
 132.5 56 132.5 56 85 103.5 c 128,-1,47
 37.5 151 37.5 151 9.5 217 c 128,-1,48
 -18.5 283 -18.5 283 -18.5 354.5 c 128,-1,49
 -18.5 426 -18.5 426 9.5 492 c 128,-1,50
 37.5 558 37.5 558 85 605.5 c 128,-1,51
 132.5 653 132.5 653 198.5 681 c 128,-1,36
 264.5 709 264.5 709 336 709 c 128,-1,37
EndSplineSet
MultipleSubs2: "cartouched sitelen" moli.t cartouche.body
Ligature2: "sitelen+-space" m o l i space
Ligature2: "sitelen" m o l i
EndChar

StartChar: monsi.t
Encoding: 989496 989496 76
Width: 672
GlyphClass: 1
Flags: MW
LayerCount: 2
Fore
SplineSet
99.5 354.5 m 128,-1,1
 99.5 379 99.5 379 117 396.5 c 128,-1,2
 134.5 414 134.5 414 159 414 c 128,-1,3
 183.5 414 183.5 414 200.5 396.5 c 128,-1,4
 217.5 379 217.5 379 217.5 354.5 c 128,-1,5
 217.5 330 217.5 330 200.5 312.5 c 128,-1,6
 183.5 295 183.5 295 159 295 c 128,-1,7
 134.5 295 134.5 295 117 312.5 c 128,-1,0
 99.5 330 99.5 330 99.5 354.5 c 128,-1,1
257.5 709 m 1,8,-1
 336.5 709 l 1,9,-1
 572.5 709 l 1,10,-1
 572.5 630 l 1,11,-1
 336.5 630 l 1,12,-1
 336.5 79 l 1,13,-1
 572.5 79 l 1,14,-1
 572.5 0 l 1,15,-1
 336.5 0 l 1,16,-1
 257.5 0 l 1,17,-1
 257.5 79 l 1,18,-1
 257.5 630 l 1,19,-1
 257.5 709 l 1,8,-1
EndSplineSet
MultipleSubs2: "cartouched sitelen" monsi.t cartouche.body
LCarets2: 5 0 0 0 0 0
Ligature2: "sitelen+-space" m o n s i space
Ligature2: "sitelen" m o n s i
EndChar

StartChar: mu.t
Encoding: 989497 989497 77
Width: 672
GlyphClass: 1
Flags: MW
LayerCount: 2
Fore
SplineSet
375.252929688 177.5 m 128,-1,1
 358.752929688 161 358.752929688 161 335.752929688 161 c 128,-1,2
 312.752929688 161 312.752929688 161 296.252929688 177.5 c 128,-1,3
 279.752929688 194 279.752929688 194 279.752929688 216.5 c 128,-1,4
 279.752929688 239 279.752929688 239 296.252929688 256 c 128,-1,5
 312.752929688 273 312.752929688 273 335.752929688 273 c 128,-1,6
 358.752929688 273 358.752929688 273 375.252929688 256 c 128,-1,7
 391.752929688 239 391.752929688 239 391.752929688 216.5 c 128,-1,0
 391.752929688 194 391.752929688 194 375.252929688 177.5 c 128,-1,1
552.252929688 610 m 128,-1,9
 527.752929688 610 527.752929688 610 510.752929688 593 c 128,-1,10
 493.752929688 576 493.752929688 576 493.752929688 551.5 c 128,-1,11
 493.752929688 527 493.752929688 527 510.752929688 509.5 c 128,-1,12
 527.752929688 492 527.752929688 492 552.252929688 492 c 128,-1,13
 576.752929688 492 576.752929688 492 594.252929688 509.5 c 128,-1,14
 611.752929688 527 611.752929688 527 611.752929688 551.5 c 128,-1,15
 611.752929688 576 611.752929688 576 594.252929688 593 c 128,-1,8
 576.752929688 610 576.752929688 610 552.252929688 610 c 128,-1,9
552.752929688 689 m 128,-1,17
 609.752929688 689 609.752929688 689 650.252929688 648.5 c 128,-1,18
 690.752929688 608 690.752929688 608 690.752929688 551.5 c 128,-1,19
 690.752929688 495 690.752929688 495 649.752929688 454 c 0,20,21
 620.752929688 425 620.752929688 425 583.752929688 417 c 1,22,23
 611.752929688 361 611.752929688 361 611.752929688 291 c 128,-1,24
 611.752929688 221 611.752929688 221 574.752929688 157.5 c 128,-1,25
 537.752929688 94 537.752929688 94 474.252929688 57 c 128,-1,26
 410.752929688 20 410.752929688 20 335.752929688 20 c 128,-1,27
 260.752929688 20 260.752929688 20 197.752929688 57 c 128,-1,28
 134.752929688 94 134.752929688 94 97.7529296875 157.5 c 128,-1,29
 60.7529296875 221 60.7529296875 221 60.7529296875 290.5 c 128,-1,30
 60.7529296875 360 60.7529296875 360 88.7529296875 417 c 1,31,32
 51.7529296875 425 51.7529296875 425 21.7529296875 454 c 0,33,34
 -19.2470703125 495 -19.2470703125 495 -18.7470703125 551.5 c 128,-1,35
 -18.2470703125 608 -18.2470703125 608 22.2529296875 648.5 c 128,-1,36
 62.7529296875 689 62.7529296875 689 119.252929688 689 c 128,-1,37
 175.752929688 689 175.752929688 689 214.752929688 650 c 128,-1,38
 253.752929688 611 253.752929688 611 256.752929688 560 c 1,39,40
 294.752929688 571 294.752929688 571 335.752929688 571 c 128,-1,41
 376.752929688 571 376.752929688 571 414.752929688 560 c 1,42,43
 417.752929688 611 417.752929688 611 456.752929688 650 c 128,-1,16
 495.752929688 689 495.752929688 689 552.752929688 689 c 128,-1,17
119.252929688 610 m 128,-1,45
 94.7529296875 610 94.7529296875 610 77.7529296875 593 c 128,-1,46
 60.7529296875 576 60.7529296875 576 60.7529296875 551.5 c 128,-1,47
 60.7529296875 527 60.7529296875 527 77.7529296875 509.5 c 128,-1,48
 94.7529296875 492 94.7529296875 492 119.252929688 492 c 128,-1,49
 143.752929688 492 143.752929688 492 161.252929688 509.5 c 128,-1,50
 178.752929688 527 178.752929688 527 178.752929688 551.5 c 128,-1,51
 178.752929688 576 178.752929688 576 161.252929688 593 c 128,-1,44
 143.752929688 610 143.752929688 610 119.252929688 610 c 128,-1,45
335.252929688 492 m 128,-1,53
 253.752929688 492 253.752929688 492 196.252929688 434.5 c 128,-1,54
 138.752929688 377 138.752929688 377 138.752929688 296 c 128,-1,55
 138.752929688 215 138.752929688 215 196.252929688 158 c 128,-1,56
 253.752929688 101 253.752929688 101 335.252929688 101 c 128,-1,57
 416.752929688 101 416.752929688 101 473.752929688 158 c 128,-1,58
 530.752929688 215 530.752929688 215 530.752929688 296 c 128,-1,59
 530.752929688 377 530.752929688 377 473.752929688 434.5 c 128,-1,52
 416.752929688 492 416.752929688 492 335.252929688 492 c 128,-1,53
EndSplineSet
MultipleSubs2: "cartouched sitelen" mu.t cartouche.body
Ligature2: "sitelen+-space" m u space
Ligature2: "sitelen" m u
EndChar

StartChar: mun.t
Encoding: 989498 989498 78
Width: 672
GlyphClass: 1
Flags: MW
LayerCount: 2
Fore
SplineSet
271.5 629 m 0,0,1
 264.5 629 264.5 629 256.5 629 c 1,2,3
 317.5 579 317.5 579 353 505.5 c 128,-1,4
 388.5 432 388.5 432 388.5 354 c 128,-1,5
 388.5 276 388.5 276 354 202.5 c 128,-1,6
 319.5 129 319.5 129 257.5 80 c 1,7,8
 313.5 77 313.5 77 367 97 c 128,-1,9
 420.5 117 420.5 117 461 155 c 128,-1,10
 501.5 193 501.5 193 524 246 c 128,-1,11
 546.5 299 546.5 299 546.5 354.5 c 128,-1,12
 546.5 410 546.5 410 524 462.5 c 128,-1,13
 501.5 515 501.5 515 462.5 552 c 0,14,15
 382.5 627 382.5 627 271.5 629 c 0,0,1
47.5 629 m 1,16,17
 145.5 709 145.5 709 278.5 708 c 0,18,19
 354.5 706 354.5 706 423.5 673 c 0,20,21
 515.5 630 515.5 630 570 543.5 c 128,-1,22
 624.5 457 624.5 457 624.5 354.5 c 128,-1,23
 624.5 252 624.5 252 570.5 165.5 c 128,-1,24
 516.5 79 516.5 79 423.5 35 c 128,-1,25
 330.5 -9 330.5 -9 229 2.5 c 128,-1,26
 127.5 14 127.5 14 48.5 79 c 1,27,28
 100.5 81 100.5 81 149 103.5 c 128,-1,29
 197.5 126 197.5 126 234 164 c 128,-1,30
 270.5 202 270.5 202 290 252 c 128,-1,31
 309.5 302 309.5 302 309.5 354 c 128,-1,32
 309.5 406 309.5 406 289.5 456 c 128,-1,33
 269.5 506 269.5 506 233.5 544 c 128,-1,34
 197.5 582 197.5 582 148.5 604.5 c 128,-1,35
 99.5 627 99.5 627 47.5 629 c 1,16,17
EndSplineSet
MultipleSubs2: "cartouched sitelen" mun.t cartouche.body
Ligature2: "sitelen+-space" m u n space
Ligature2: "sitelen" m u n
EndChar

StartChar: musi.t
Encoding: 989499 989499 79
Width: 672
GlyphClass: 1
Flags: MW
LayerCount: 2
Fore
SplineSet
552 630 m 128,-1,1
 527.5 630 527.5 630 510.5 612.5 c 128,-1,2
 493.5 595 493.5 595 493.5 571 c 128,-1,3
 493.5 547 493.5 547 510.5 529.5 c 128,-1,4
 527.5 512 527.5 512 552 512 c 128,-1,5
 576.5 512 576.5 512 594 529.5 c 128,-1,6
 611.5 547 611.5 547 611.5 571 c 128,-1,7
 611.5 595 611.5 595 594 612.5 c 128,-1,0
 576.5 630 576.5 630 552 630 c 128,-1,1
119 630 m 128,-1,9
 94.5 630 94.5 630 77.5 612.5 c 128,-1,10
 60.5 595 60.5 595 60.5 571 c 128,-1,11
 60.5 547 60.5 547 77.5 529.5 c 128,-1,12
 94.5 512 94.5 512 119 512 c 128,-1,13
 143.5 512 143.5 512 161 529.5 c 128,-1,14
 178.5 547 178.5 547 178.5 571 c 128,-1,15
 178.5 595 178.5 595 161 612.5 c 128,-1,8
 143.5 630 143.5 630 119 630 c 128,-1,9
119 709 m 128,-1,17
 175.5 709 175.5 709 216 668.5 c 128,-1,18
 256.5 628 256.5 628 256.5 571 c 128,-1,19
 256.5 514 256.5 514 216 473.5 c 128,-1,20
 175.5 433 175.5 433 119.5 433 c 0,21,22
 116.5 433 116.5 433 112.5 434 c 1,23,24
 66.5 338 66.5 338 104.5 239 c 0,25,26
 132.5 167 132.5 167 195.5 123 c 128,-1,27
 258.5 79 258.5 79 335.5 79 c 128,-1,28
 412.5 79 412.5 79 476 122.5 c 128,-1,29
 539.5 166 539.5 166 567.5 239 c 0,30,31
 605.5 338 605.5 338 558.5 434 c 1,32,33
 555.5 433 555.5 433 552.5 433 c 0,34,35
 495.5 433 495.5 433 455 473.5 c 128,-1,36
 414.5 514 414.5 514 414.5 571 c 128,-1,37
 414.5 628 414.5 628 455 668.5 c 128,-1,38
 495.5 709 495.5 709 552.5 709 c 128,-1,39
 609.5 709 609.5 709 650 668.5 c 128,-1,40
 690.5 628 690.5 628 690.5 571 c 0,41,42
 690.5 537 690.5 537 675 508 c 128,-1,43
 659.5 479 659.5 479 633.5 460 c 1,44,45
 688.5 335 688.5 335 641.5 211 c 0,46,47
 605.5 116 605.5 116 521.5 58 c 128,-1,48
 437.5 0 437.5 0 336 0 c 128,-1,49
 234.5 0 234.5 0 150.5 58 c 128,-1,50
 66.5 116 66.5 116 30.5 211 c 0,51,52
 -17.5 336 -17.5 336 37.5 460 c 1,53,54
 11.5 479 11.5 479 -3.5 508 c 128,-1,55
 -18.5 537 -18.5 537 -18.5 571 c 0,56,57
 -18.5 628 -18.5 628 22 668.5 c 128,-1,16
 62.5 709 62.5 709 119 709 c 128,-1,17
EndSplineSet
MultipleSubs2: "cartouched sitelen" musi.t cartouche.body
Ligature2: "sitelen+-space" m u s i space
Ligature2: "sitelen" m u s i
EndChar

StartChar: mute.t
Encoding: 989500 989500 80
Width: 672
GlyphClass: 1
Flags: MW
LayerCount: 2
Fore
SplineSet
493.5 670 m 1,0,-1
 572.5 670 l 1,1,-1
 572.5 39 l 1,2,-1
 493.5 39 l 1,3,-1
 493.5 670 l 1,0,-1
296.5 670 m 1,4,-1
 375.5 670 l 1,5,-1
 375.5 39 l 1,6,-1
 296.5 39 l 1,7,-1
 296.5 670 l 1,4,-1
99.5 670 m 1,8,-1
 178.5 670 l 1,9,-1
 178.5 39 l 1,10,-1
 99.5 39 l 1,11,-1
 99.5 670 l 1,8,-1
EndSplineSet
MultipleSubs2: "cartouched sitelen" mute.t cartouche.body
Ligature2: "sitelen+-space" m u t e space
Ligature2: "sitelen" m u t e
EndChar

StartChar: nanpa.t
Encoding: 989501 989501 81
Width: 672
GlyphClass: 1
Flags: MW
LayerCount: 2
Fore
SplineSet
512.5 177 m 1,0,-1
 512.5 0 l 1,1,-1
 434.5 0 l 1,2,-1
 434.5 177 l 1,3,-1
 237.5 177 l 1,4,-1
 237.5 0 l 1,5,-1
 158.5 0 l 1,6,-1
 158.5 177 l 1,7,-1
 -18.5 177 l 1,8,-1
 -18.5 256 l 1,9,-1
 158.5 256 l 1,10,-1
 158.5 453 l 1,11,-1
 -18.5 453 l 1,12,-1
 -18.5 532 l 1,13,-1
 158.5 532 l 1,14,-1
 158.5 709 l 1,15,-1
 237.5 709 l 1,16,-1
 237.5 532 l 1,17,-1
 434.5 532 l 1,18,-1
 434.5 709 l 1,19,-1
 512.5 709 l 1,20,-1
 512.5 532 l 1,21,-1
 690.5 532 l 1,22,-1
 690.5 453 l 1,23,-1
 512.5 453 l 1,24,-1
 512.5 256 l 1,25,-1
 690.5 256 l 1,26,-1
 690.5 177 l 1,27,-1
 512.5 177 l 1,0,-1
434.5 256 m 1,28,-1
 434.5 453 l 1,29,-1
 237.5 453 l 1,30,-1
 237.5 256 l 1,31,-1
 434.5 256 l 1,28,-1
EndSplineSet
MultipleSubs2: "cartouched sitelen" nanpa.t cartouche.body
Ligature2: "sitelen+-space" n a n p a space
Ligature2: "sitelen" n a n p a
EndChar

StartChar: nasa.t
Encoding: 989502 989502 82
Width: 672
GlyphClass: 1
Flags: MW
LayerCount: 2
Fore
SplineSet
209.745117188 674.5 m 128,-1,1
 269.745117188 706 269.745117188 706 342.745117188 709 c 128,-1,2
 415.745117188 712 415.745117188 712 485.245117188 678 c 128,-1,3
 554.745117188 644 554.745117188 644 598.745117188 579 c 128,-1,4
 642.745117188 514 642.745117188 514 644.745117188 442 c 128,-1,5
 646.745117188 370 646.745117188 370 616.745117188 312 c 128,-1,6
 586.745117188 254 586.745117188 254 531.245117188 218 c 128,-1,7
 475.745117188 182 475.745117188 182 415.745117188 182.5 c 128,-1,8
 355.745117188 183 355.745117188 183 308.745117188 208.5 c 128,-1,9
 261.745117188 234 261.745117188 234 233.745117188 280.5 c 128,-1,10
 205.745117188 327 205.745117188 327 209.245117188 386 c 128,-1,11
 212.745117188 445 212.745117188 445 260.745117188 492 c 128,-1,12
 308.745117188 539 308.745117188 539 373.745117188 528 c 0,13,14
 418.745117188 522 418.745117188 522 450.245117188 483 c 128,-1,15
 481.745117188 444 481.745117188 444 462.745117188 391 c 1,16,-1
 390.745117188 423 l 1,17,18
 392.745117188 429 392.745117188 429 384.745117188 438.5 c 128,-1,19
 376.745117188 448 376.745117188 448 355.745117188 451 c 128,-1,20
 334.745117188 454 334.745117188 454 312.245117188 432 c 128,-1,21
 289.745117188 410 289.745117188 410 287.245117188 370 c 128,-1,22
 284.745117188 330 284.745117188 330 322.245117188 296 c 128,-1,23
 359.745117188 262 359.745117188 262 408.745117188 262 c 0,24,25
 474.745117188 261 474.745117188 261 521.245117188 313 c 128,-1,26
 567.745117188 365 567.745117188 365 566.245117188 427.5 c 128,-1,27
 564.745117188 490 564.745117188 490 532.745117188 536.5 c 128,-1,28
 500.745117188 583 500.745117188 583 449.245117188 608 c 128,-1,29
 397.745117188 633 397.745117188 633 335.745117188 630 c 128,-1,30
 273.745117188 627 273.745117188 627 217.745117188 587 c 128,-1,31
 161.745117188 547 161.745117188 547 131.745117188 485 c 128,-1,32
 101.745117188 423 101.745117188 423 106.745117188 350 c 128,-1,33
 111.745117188 277 111.745117188 277 155.245117188 213.5 c 128,-1,34
 198.745117188 150 198.745117188 150 267.745117188 114 c 128,-1,35
 336.745117188 78 336.745117188 78 413.745117188 79 c 1,36,-1
 414.745117188 0 l 1,37,38
 316.745117188 -1 316.745117188 -1 230.245117188 44 c 128,-1,39
 143.745117188 89 143.745117188 89 88.7451171875 170 c 128,-1,40
 33.7451171875 251 33.7451171875 251 27.7451171875 350 c 0,41,42
 23.7451171875 417 23.7451171875 417 45.7451171875 480.5 c 128,-1,43
 67.7451171875 544 67.7451171875 544 108.745117188 593.5 c 128,-1,0
 149.745117188 643 149.745117188 643 209.745117188 674.5 c 128,-1,1
EndSplineSet
MultipleSubs2: "cartouched sitelen" nasa.t cartouche.body
Ligature2: "sitelen+-space" n a s a space
Ligature2: "sitelen" n a s a
EndChar

StartChar: nasin.t
Encoding: 989503 989503 83
Width: 672
GlyphClass: 1
Flags: MW
LayerCount: 2
Fore
SplineSet
297 381 m 1,0,-1
 132 217 l 1,1,-1
 77 273 l 1,2,-1
 297 492 l 1,3,-1
 297 709 l 1,4,-1
 376 709 l 1,5,-1
 376 492 l 1,6,-1
 595 273 l 1,7,-1
 540 217 l 1,8,-1
 376 381 l 1,9,-1
 376 0 l 1,10,-1
 297 0 l 1,11,-1
 297 381 l 1,0,-1
EndSplineSet
MultipleSubs2: "cartouched sitelen" nasin.t cartouche.body
Ligature2: "sitelen+-space" n a s i n space
Ligature2: "sitelen" n a s i n
EndChar

StartChar: nena.t
Encoding: 989504 989504 84
Width: 672
GlyphClass: 1
Flags: MW
LayerCount: 2
Fore
SplineSet
336 709 m 128,-1,1
 433.5 709 433.5 709 503 639.5 c 128,-1,2
 572.5 570 572.5 570 572.5 473 c 2,3,-1
 572.5 0 l 1,4,-1
 493.5 0 l 1,5,-1
 493.5 473 l 2,6,7
 493.5 538 493.5 538 447.5 584 c 128,-1,8
 401.5 630 401.5 630 336 630 c 128,-1,9
 270.5 630 270.5 630 224.5 584 c 128,-1,10
 178.5 538 178.5 538 178.5 473 c 2,11,-1
 178.5 0 l 1,12,-1
 99.5 0 l 1,13,-1
 99.5 473 l 2,14,15
 99.5 571 99.5 571 169 640 c 128,-1,0
 238.5 709 238.5 709 336 709 c 128,-1,1
EndSplineSet
MultipleSubs2: "cartouched sitelen" nena.t cartouche.body
Ligature2: "sitelen+-space" n e n a space
Ligature2: "sitelen" n e n a
EndChar

StartChar: ni.t
Encoding: 989505 989505 85
Width: 672
GlyphClass: 1
Flags: MW
LayerCount: 2
Fore
SplineSet
297 709 m 1,0,-1
 376 709 l 1,1,-1
 376 150 l 1,2,-1
 540 315 l 1,3,-1
 595 259 l 1,4,-1
 336 0 l 1,5,-1
 77 259 l 1,6,-1
 132 315 l 1,7,-1
 297 150 l 1,8,-1
 297 709 l 1,0,-1
EndSplineSet
MultipleSubs2: "cartouched sitelen" ni.t cartouche.body
Ligature2: "sitelen+-space" n i space
Ligature2: "sitelen" n i
EndChar

StartChar: nimi.t
Encoding: 989506 989506 86
Width: 672
GlyphClass: 1
Flags: MW
LayerCount: 2
Fore
SplineSet
572.5 197 m 2,0,-1
 99.5 197 l 2,1,2
 50.5 197 50.5 197 16 231.5 c 128,-1,3
 -18.5 266 -18.5 266 -18.5 315 c 2,4,-1
 -18.5 394 l 2,5,6
 -18.5 443 -18.5 443 16 477.5 c 128,-1,7
 50.5 512 50.5 512 99.5 512 c 2,8,-1
 572.5 512 l 2,9,10
 621.5 512 621.5 512 656 477.5 c 128,-1,11
 690.5 443 690.5 443 690.5 394 c 2,12,-1
 690.5 315 l 2,13,14
 690.5 266 690.5 266 656 231.5 c 128,-1,15
 621.5 197 621.5 197 572.5 197 c 2,0,-1
572.5 276 m 2,16,17
 589.5 276 589.5 276 600.5 287.5 c 128,-1,18
 611.5 299 611.5 299 611.5 315 c 2,19,-1
 611.5 394 l 6,20,21
 611.5 411 611.5 411 600 422 c 128,-1,22
 588.5 433 588.5 433 572.5 433 c 2,23,-1
 99.5 433 l 2,24,25
 82.5 433 82.5 433 71.5 421.5 c 128,-1,26
 60.5 410 60.5 410 60.5 394 c 2,27,-1
 60.5 315 l 2,28,29
 60.5 298 60.5 298 71.5 287 c 128,-1,30
 82.5 276 82.5 276 99.5 276 c 2,31,-1
 572.5 276 l 2,16,17
EndSplineSet
MultipleSubs2: "cartouched sitelen" nimi.t cartouche.body
Ligature2: "sitelen+-space" n i m i space
Ligature2: "sitelen" n i m i
EndChar

StartChar: noka.t
Encoding: 989507 989507 87
Width: 672
GlyphClass: 1
Flags: MW
LayerCount: 2
Fore
SplineSet
287 709 m 1,0,-1
 366 709 l 1,1,-1
 366 394 l 1,2,-1
 464 394 l 2,3,4
 545 394 545 394 603 336 c 128,-1,5
 661 278 661 278 661 197 c 128,-1,6
 661 116 661 116 603 58 c 128,-1,7
 545 0 545 0 464 0 c 2,8,9
 464 0 464 0 11 0 c 1,10,-1
 11 709 l 1,11,-1
 90 709 l 1,12,-1
 90 79 l 1,13,-1
 464 79 l 2,14,15
 513 79 513 79 547.5 113.5 c 128,-1,16
 582 148 582 148 582 197 c 128,-1,17
 582 246 582 246 547.5 280.5 c 128,-1,18
 513 315 513 315 464 315 c 2,19,-1
 366 315 l 1,20,-1
 287 315 l 1,21,-1
 287 709 l 1,0,-1
EndSplineSet
MultipleSubs2: "cartouched sitelen" noka.t cartouche.body
Ligature2: "sitelen+-space" n o k a space
Ligature2: "sitelen" n o k a
EndChar

StartChar: o.t
Encoding: 989508 989508 88
Width: 672
GlyphClass: 1
Flags: MW
LayerCount: 2
Fore
SplineSet
336 236 m 128,-1,1
 385 236 385 236 419.5 201.5 c 128,-1,2
 454 167 454 167 454 118 c 128,-1,3
 454 69 454 69 419.5 34.5 c 128,-1,4
 385 0 385 0 336 0 c 128,-1,5
 287 0 287 0 252.5 34.5 c 128,-1,6
 218 69 218 69 218 118 c 128,-1,7
 218 167 218 167 252.5 201.5 c 128,-1,0
 287 236 287 236 336 236 c 128,-1,1
336.5 158 m 128,-1,9
 320 158 320 158 308.5 146 c 128,-1,10
 297 134 297 134 297 118 c 128,-1,11
 297 102 297 102 308.5 90.5 c 128,-1,12
 320 79 320 79 336.5 79 c 128,-1,13
 353 79 353 79 364.5 90.5 c 128,-1,14
 376 102 376 102 376 118 c 128,-1,15
 376 134 376 134 364.5 146 c 128,-1,8
 353 158 353 158 336.5 158 c 128,-1,9
297 295 m 1,16,-1
 297 709 l 1,17,-1
 376 709 l 1,18,-1
 376 295 l 1,19,-1
 297 295 l 1,16,-1
EndSplineSet
MultipleSubs2: "cartouched sitelen" o.t cartouche.body
Ligature2: "sitelen" o
Ligature2: "sitelen+-space" o space
EndChar

StartChar: olin.t
Encoding: 989509 989509 89
Width: 672
GlyphClass: 1
Flags: MW
LayerCount: 2
Fore
SplineSet
191.770507812 729 m 1,0,-1
 191.770507812 689 l 1025,1,-1
178.770507812 709 m 1,2,-1
 217.770507812 709 l 1025,3,-1
303.270507812 309 m 128,-1,5
 286.770507812 331 286.770507812 331 262.270507812 331 c 128,-1,6
 237.770507812 331 237.770507812 331 223.770507812 318 c 0,7,8
 193.770507812 290 193.770507812 290 207.770507812 244 c 0,9,10
 228.770507812 174 228.770507812 174 335.770507812 96 c 1,11,12
 481.770507812 202 481.770507812 202 466.770507812 284 c 0,13,14
 462.770507812 305 462.770507812 305 448.270507812 318 c 128,-1,15
 433.770507812 331 433.770507812 331 412.770507812 331 c 128,-1,16
 391.770507812 331 391.770507812 331 371.270507812 306.5 c 128,-1,17
 350.770507812 282 350.770507812 282 335.770507812 236 c 1,18,4
 319.770507812 287 319.770507812 287 303.270507812 309 c 128,-1,5
303.270507812 607 m 128,-1,20
 286.770507812 630 286.770507812 630 262.270507812 630 c 128,-1,21
 237.770507812 630 237.770507812 630 223.770507812 617 c 0,22,23
 193.770507812 589 193.770507812 589 207.770507812 543 c 0,24,25
 228.770507812 473 228.770507812 473 335.770507812 395 c 1,26,27
 481.770507812 501 481.770507812 501 466.770507812 583 c 0,28,29
 462.770507812 604 462.770507812 604 448.270507812 617 c 128,-1,30
 433.770507812 630 433.770507812 630 414.770507812 630 c 0,31,32
 368.770507812 630 368.770507812 630 335.770507812 532 c 1,33,19
 319.770507812 584 319.770507812 584 303.270507812 607 c 128,-1,20
169.770507812 675 m 0,34,35
 214.770507812 717 214.770507812 717 276.770507812 708 c 0,36,37
 308.770507812 704 308.770507812 704 335.770507812 683 c 1,38,39
 363.770507812 704 363.770507812 704 395.770507812 708 c 0,40,41
 456.770507812 717 456.770507812 717 501.770507812 675 c 0,42,43
 567.770507812 613 567.770507812 613 536.770507812 508 c 0,44,45
 521.770507812 459 521.770507812 459 464.770507812 401 c 1,46,47
 484.770507812 392 484.770507812 392 501.770507812 376 c 0,48,49
 567.770507812 314 567.770507812 314 535.770507812 207 c 0,50,51
 520.770507812 156 520.770507812 156 465.770507812 102.5 c 128,-1,52
 410.770507812 49 410.770507812 49 357.770507812 14 c 2,53,-1
 335.770507812 0 l 1,54,-1
 314.770507812 14 l 2,55,56
 261.770507812 49 261.770507812 49 206.770507812 102.5 c 128,-1,57
 151.770507812 156 151.770507812 156 135.770507812 207 c 0,58,59
 103.770507812 314 103.770507812 314 169.770507812 376 c 0,60,61
 186.770507812 392 186.770507812 392 207.770507812 400 c 1,62,63
 109.770507812 500 109.770507812 500 128.770507812 597 c 0,64,65
 136.770507812 644 136.770507812 644 169.770507812 675 c 0,34,35
EndSplineSet
MultipleSubs2: "cartouched sitelen" olin.t cartouche.body
Ligature2: "sitelen+-space" o l i n space
Ligature2: "sitelen" o l i n
EndChar

StartChar: ona.t
Encoding: 989510 989510 90
Width: 672
GlyphClass: 1
Flags: MW
LayerCount: 2
Fore
SplineSet
611.5 354.5 m 128,-1,1
 611.5 387 611.5 387 588 410 c 128,-1,2
 564.5 433 564.5 433 532.5 433 c 128,-1,3
 500.5 433 500.5 433 477 410 c 128,-1,4
 453.5 387 453.5 387 453.5 354.5 c 128,-1,5
 453.5 322 453.5 322 477 299 c 128,-1,6
 500.5 276 500.5 276 532.5 276 c 128,-1,7
 564.5 276 564.5 276 588 299 c 128,-1,0
 611.5 322 611.5 322 611.5 354.5 c 128,-1,1
11.5 314 m 1,8,9
 166.5 250 166.5 250 335.5 250 c 0,10,11
 372.5 250 372.5 250 411.5 254 c 1,12,13
 375.5 297 375.5 297 375.5 358.5 c 128,-1,14
 375.5 420 375.5 420 421.5 466 c 128,-1,15
 467.5 512 467.5 512 533 512 c 128,-1,16
 598.5 512 598.5 512 644.5 466 c 128,-1,17
 690.5 420 690.5 420 690.5 360.5 c 128,-1,18
 690.5 301 690.5 301 657.5 258 c 128,-1,19
 624.5 215 624.5 215 572.5 202 c 0,20,21
 455.5 172 455.5 172 335.5 172 c 0,22,23
 152.5 172 152.5 172 -18.5 241 c 1,24,-1
 11.5 314 l 1,8,9
EndSplineSet
MultipleSubs2: "cartouched sitelen" ona.t cartouche.body
Ligature2: "sitelen+-space" o n a space
Ligature2: "sitelen" o n a
EndChar

StartChar: open.t
Encoding: 989511 989511 91
Width: 672
GlyphClass: 1
Flags: MW
LayerCount: 2
Fore
SplineSet
100 197 m 1,0,-1
 100 79 l 1,1,-1
 573 79 l 1,2,-1
 573 197 l 1,3,-1
 100 197 l 1,0,-1
21 709 m 1,4,-1
 100 709 l 1,5,-1
 100 276 l 1,6,-1
 573 276 l 1,7,-1
 573 709 l 1,8,-1
 651 709 l 1,9,-1
 651 0 l 1,10,11
 651 0 651 0 21 0 c 1,12,-1
 21 709 l 1,4,-1
EndSplineSet
MultipleSubs2: "cartouched sitelen" open.t cartouche.body
Ligature2: "sitelen+-space" o p e n space
Ligature2: "sitelen" o p e n
EndChar

StartChar: pakala.t
Encoding: 989512 989512 92
Width: 672
GlyphClass: 1
Flags: MW
LayerCount: 2
Fore
SplineSet
381 630 m 1,0,-1
 292 394 l 1,1,-1
 435 394 l 1,2,-1
 494 394 l 1,3,-1
 376 79 l 1,4,-1
 573 79 l 1,5,-1
 573 630 l 1,6,-1
 381 630 l 1,0,-1
100 630 m 1,7,-1
 100 79 l 1,8,-1
 291 79 l 1,9,-1
 380 315 l 1,10,-1
 263 315 l 1,11,-1
 179 315 l 1,12,-1
 297 630 l 1,13,-1
 100 630 l 1,7,-1
21 709 m 1,14,15
 21 709 21 709 651 709 c 5,16,-1
 651 0 l 1,17,18
 651 0 651 0 21 0 c 1,19,-1
 21 709 l 1,14,15
EndSplineSet
MultipleSubs2: "cartouched sitelen" pakala.t cartouche.body
LCarets2: 6 0 0 0 0 0 0
Ligature2: "sitelen+-space" p a k a l a space
Ligature2: "sitelen" p a k a l a
EndChar

StartChar: pali.t
Encoding: 989513 989513 93
Width: 672
GlyphClass: 1
Flags: MW
LayerCount: 2
Fore
SplineSet
395.5 630 m 128,-1,1
 363 630 363 630 339.5 607 c 128,-1,2
 316 584 316 584 316 551.5 c 128,-1,3
 316 519 316 519 339.5 496 c 128,-1,4
 363 473 363 473 395.5 473 c 128,-1,5
 428 473 428 473 451 496 c 128,-1,6
 474 519 474 519 474 551.5 c 128,-1,7
 474 584 474 584 451 607 c 128,-1,0
 428 630 428 630 395.5 630 c 128,-1,1
285 439 m 1,8,9
 238 485 238 485 238 551 c 128,-1,10
 238 617 238 617 284 663 c 128,-1,11
 330 709 330 709 395.5 709 c 128,-1,12
 461 709 461 709 507 663 c 128,-1,13
 553 617 553 617 553 551 c 128,-1,14
 553 485 553 485 506 439 c 1,15,16
 521 429 521 429 534 415 c 0,17,18
 592 357 592 357 592 276 c 2,19,-1
 592 0 l 1,20,-1
 513 0 l 1,21,-1
 513 276 l 2,22,23
 513 325 513 325 478.5 359.5 c 128,-1,24
 444 394 444 394 395 394 c 128,-1,25
 346 394 346 394 311.5 359.5 c 128,-1,26
 277 325 277 325 277 276 c 2,27,-1
 277 0 l 1,28,-1
 198 0 l 1,29,-1
 80 205 l 1,30,-1
 149 244 l 1,31,-1
 198 158 l 1,32,-1
 198 276 l 2,33,34
 198 357 198 357 256 415 c 0,35,36
 270 429 270 429 285 439 c 1,8,9
EndSplineSet
MultipleSubs2: "cartouched sitelen" pali.t cartouche.body
Ligature2: "sitelen+-space" p a l i space
Ligature2: "sitelen" p a l i
EndChar

StartChar: palisa.t
Encoding: 989514 989514 94
Width: 672
GlyphClass: 1
Flags: MW
LayerCount: 2
Fore
SplineSet
336.5 630 m 128,-1,1
 320 630 320 630 308.5 618.5 c 128,-1,2
 297 607 297 607 297 591 c 2,3,-1
 297 480 l 1,4,-1
 297 118 l 2,5,6
 297 101 297 101 308.5 90 c 128,-1,7
 320 79 320 79 336.5 79 c 128,-1,8
 353 79 353 79 364.5 90.5 c 128,-1,9
 376 102 376 102 376 118 c 2,10,-1
 376 575 l 1,11,-1
 376 591 l 2,12,13
 376 608 376 608 364.5 619 c 128,-1,0
 353 630 353 630 336.5 630 c 128,-1,1
336 709 m 128,-1,15
 385 709 385 709 419.5 674.5 c 128,-1,16
 454 640 454 640 454 591 c 2,17,-1
 454 118 l 2,18,19
 454 69 454 69 419.5 34.5 c 128,-1,20
 385 0 385 0 336 0 c 128,-1,21
 287 0 287 0 252.5 34.5 c 128,-1,22
 218 69 218 69 218 118 c 2,23,-1
 218 591 l 2,24,25
 218 640 218 640 252.5 674.5 c 128,-1,14
 287 709 287 709 336 709 c 128,-1,15
EndSplineSet
MultipleSubs2: "cartouched sitelen" palisa.t cartouche.body
Ligature2: "sitelen+-space" p a l i s a space
Ligature2: "sitelen" p a l i s a
EndChar

StartChar: pan.t
Encoding: 989515 989515 95
Width: 672
GlyphClass: 1
Flags: MW
LayerCount: 2
Fore
SplineSet
196.5 254 m 1,0,-1
 335.5 114 l 1,1,-1
 475.5 254 l 1,2,-1
 530.5 198 l 1,3,-1
 391.5 58 l 1,4,-1
 335.5 2 l 1,5,-1
 279.5 58 l 1,6,-1
 141.5 198 l 1,7,-1
 196.5 254 l 1,0,-1
196.5 470 m 1,8,-1
 335.5 331 l 1,9,-1
 475.5 470 l 1,10,-1
 530.5 414 l 1,11,-1
 391.5 275 l 1,12,-1
 335.5 219 l 1,13,-1
 279.5 275 l 1,14,-1
 141.5 414 l 1,15,-1
 196.5 470 l 1,8,-1
196.5 707 m 1,16,-1
 335.5 567 l 1,17,-1
 475.5 707 l 1,18,-1
 530.5 651 l 1,19,-1
 391.5 511 l 1,20,-1
 335.5 455 l 1,21,-1
 279.5 511 l 1,22,-1
 141.5 651 l 1,23,-1
 196.5 707 l 1,16,-1
EndSplineSet
MultipleSubs2: "cartouched sitelen" pan.t cartouche.body
Ligature2: "sitelen+-space" p a n space
Ligature2: "sitelen" p a n
EndChar

StartChar: pana.t
Encoding: 989516 989516 96
Width: 672
GlyphClass: 1
Flags: MW
LayerCount: 2
Fore
SplineSet
216.5 709 m 1,0,-1
 275.5 532 l 1,1,-1
 192.5 532 l 1,2,-1
 133.5 709 l 1,3,-1
 216.5 709 l 1,0,-1
531.5 709 m 1,4,-1
 613.5 709 l 1,5,-1
 554.5 532 l 1,6,-1
 472.5 532 l 1,7,-1
 531.5 709 l 1,4,-1
334.5 709 m 1,8,-1
 413.5 709 l 1,9,-1
 413.5 532 l 1,10,-1
 334.5 532 l 1,11,-1
 334.5 709 l 1,8,-1
58.5 205 m 1,12,-1
 127.5 244 l 1,13,-1
 176.5 158 l 1,14,-1
 176.5 276 l 2,15,16
 176.5 357 176.5 357 234.5 415 c 128,-1,17
 292.5 473 292.5 473 373.5 473 c 128,-1,18
 454.5 473 454.5 473 512.5 415 c 128,-1,19
 570.5 357 570.5 357 570.5 276 c 2,20,-1
 570.5 0 l 1,21,-1
 491.5 0 l 1,22,-1
 491.5 276 l 2,23,24
 491.5 325 491.5 325 457 359.5 c 128,-1,25
 422.5 394 422.5 394 373.5 394 c 128,-1,26
 324.5 394 324.5 394 290 359.5 c 128,-1,27
 255.5 325 255.5 325 255.5 276 c 2,28,-1
 255.5 0 l 1,29,-1
 176.5 0 l 1,30,-1
 58.5 205 l 1,12,-1
EndSplineSet
MultipleSubs2: "cartouched sitelen" pana.t cartouche.body
Ligature2: "sitelen+-space" p a n a space
Ligature2: "sitelen" p a n a
EndChar

StartChar: pi.t
Encoding: 989517 989517 97
Width: 672
GlyphClass: 1
Flags: MW
LayerCount: 2
Fore
SplineSet
60.5 630 m 1,0,-1
 138.5 630 l 1,1,-1
 138.5 158 l 1,2,-1
 611.5 158 l 1,3,-1
 611.5 79 l 1,4,-1
 138.5 79 l 1,5,-1
 60.5 79 l 1,6,-1
 60.5 158 l 1,7,-1
 60.5 630 l 1,0,-1
EndSplineSet
MultipleSubs2: "cartouched sitelen" pi.t cartouche.body
Ligature2: "sitelen+-space" p i space
Ligature2: "sitelen" p i
EndChar

StartChar: pilin.t
Encoding: 989518 989518 98
Width: 672
GlyphClass: 1
Flags: MW
LayerCount: 2
Fore
SplineSet
296.669921875 571 m 0,0,1
 244.669921875 650 244.669921875 650 168.669921875 631 c 0,2,3
 143.669921875 625 143.669921875 625 121.169921875 606.5 c 128,-1,4
 98.669921875 588 98.669921875 588 86.669921875 563 c 0,5,6
 60.669921875 512 60.669921875 512 70.669921875 450.5 c 128,-1,7
 80.669921875 389 80.669921875 389 114.669921875 336 c 0,8,9
 179.669921875 236 179.669921875 236 335.669921875 103 c 1,10,11
 491.669921875 236 491.669921875 236 551.669921875 329 c 0,12,13
 590.669921875 389 590.669921875 389 601.169921875 450.5 c 128,-1,14
 611.669921875 512 611.669921875 512 584.669921875 565 c 128,-1,15
 557.669921875 618 557.669921875 618 495.669921875 633 c 0,16,17
 462.669921875 641 462.669921875 641 429.669921875 624 c 0,18,19
 371.669921875 592 371.669921875 592 341.669921875 491 c 2,20,-1
 335.669921875 473 l 1,21,22
 316.669921875 542 316.669921875 542 296.669921875 571 c 0,0,1
148.669921875 708 m 0,23,24
 220.669921875 726 220.669921875 726 285.669921875 690 c 0,25,26
 313.669921875 675 313.669921875 675 335.669921875 649 c 1,27,28
 357.669921875 675 357.669921875 675 385.669921875 690 c 0,29,30
 450.669921875 726 450.669921875 726 522.669921875 708 c 0,31,32
 565.669921875 697 565.669921875 697 600.669921875 668 c 128,-1,33
 635.669921875 639 635.669921875 639 655.669921875 598 c 0,34,35
 693.669921875 524 693.669921875 524 679.669921875 442 c 128,-1,36
 665.669921875 360 665.669921875 360 624.669921875 297 c 0,37,38
 541.669921875 170 541.669921875 170 360.669921875 21 c 2,39,-1
 335.669921875 0 l 1,40,-1
 310.669921875 21 l 2,41,42
 128.669921875 171 128.669921875 171 46.669921875 297 c 0,43,44
 5.669921875 360 5.669921875 360 -7.830078125 442 c 128,-1,45
 -21.330078125 524 -21.330078125 524 15.669921875 598 c 0,46,47
 35.669921875 638 35.669921875 638 70.669921875 667.5 c 128,-1,48
 105.669921875 697 105.669921875 697 148.669921875 708 c 0,23,24
EndSplineSet
MultipleSubs2: "cartouched sitelen" pilin.t cartouche.body
Ligature2: "sitelen+-space" p i l i n space
Ligature2: "sitelen" p i l i n
EndChar

StartChar: pimeja.t
Encoding: 989519 989519 99
Width: 672
GlyphClass: 1
Flags: MW
LayerCount: 2
Fore
SplineSet
335.5 183 m 1,0,-1
 268.5 79 l 1,1,-1
 402.5 79 l 1,2,-1
 335.5 183 l 1,0,-1
237.5 336 m 1,3,-1
 108.5 79 l 1,4,-1
 175.5 79 l 1,5,-1
 288.5 255 l 1,6,-1
 237.5 336 l 1,3,-1
434.5 336 m 1,7,-1
 382.5 255 l 1,8,-1
 496.5 79 l 1,9,-1
 562.5 79 l 1,10,-1
 434.5 336 l 1,7,-1
335.5 532 m 1,11,-1
 278.5 417 l 1,12,-1
 335.5 328 l 1,13,-1
 393.5 417 l 1,14,-1
 335.5 532 l 1,11,-1
-18.5 0 m 1,15,-1
 335.5 709 l 1,16,-1
 690.5 0 l 1,17,-1
 453.5 0 l 1,18,-1
 217.5 0 l 1,19,-1
 -18.5 0 l 1,15,-1
EndSplineSet
MultipleSubs2: "cartouched sitelen" pimeja.t cartouche.body
LCarets2: 6 0 0 0 0 0 0
Ligature2: "sitelen+-space" p i m e j a space
Ligature2: "sitelen" p i m e j a
EndChar

StartChar: pini.t
Encoding: 989520 989520 100
Width: 672
GlyphClass: 1
Flags: MW
LayerCount: 2
Fore
SplineSet
99.5 709 m 1,0,-1
 572.5 709 l 1,1,-1
 572.5 630 l 1,2,-1
 375.5 630 l 1,3,-1
 375.5 79 l 1,4,-1
 572.5 79 l 1,5,-1
 572.5 0 l 1,6,-1
 99.5 0 l 1,7,-1
 99.5 79 l 1,8,-1
 296.5 79 l 1,9,-1
 296.5 630 l 1,10,-1
 99.5 630 l 1,11,-1
 99.5 709 l 1,0,-1
EndSplineSet
MultipleSubs2: "cartouched sitelen" pini.t cartouche.body
Ligature2: "sitelen+-space" p i n i space
Ligature2: "sitelen" p i n i
EndChar

StartChar: pipi.t
Encoding: 989521 989521 101
Width: 672
GlyphClass: 1
Flags: MW
LayerCount: 2
Fore
SplineSet
296.5 591 m 1,0,-1
 375.5 591 l 1,1,-1
 375.5 492 l 1,2,-1
 493.5 492 l 1,3,-1
 493.5 414 l 1,4,-1
 375.5 414 l 1,5,-1
 375.5 335 l 1,6,-1
 493.5 335 l 1,7,-1
 493.5 256 l 1,8,-1
 375.5 256 l 1,9,-1
 375.5 177 l 1,10,-1
 493.5 177 l 1,11,-1
 493.5 98 l 1,12,-1
 375.5 98 l 1,13,-1
 375.5 0 l 1,14,-1
 296.5 0 l 1,15,-1
 296.5 98 l 1,16,-1
 178.5 98 l 1,17,-1
 178.5 177 l 1,18,-1
 296.5 177 l 1,19,-1
 296.5 256 l 1,20,-1
 178.5 256 l 1,21,-1
 178.5 335 l 1,22,-1
 296.5 335 l 1,23,-1
 296.5 414 l 1,24,-1
 178.5 414 l 1,25,-1
 178.5 492 l 1,26,-1
 296.5 492 l 1,27,-1
 296.5 591 l 1,0,-1
237.5 709 m 128,-1,29
 260.5 709 260.5 709 277 693 c 128,-1,30
 293.5 677 293.5 677 293.5 653.5 c 128,-1,31
 293.5 630 293.5 630 277 614 c 128,-1,32
 260.5 598 260.5 598 237.5 598 c 128,-1,33
 214.5 598 214.5 598 198 614 c 128,-1,34
 181.5 630 181.5 630 181.5 653.5 c 128,-1,35
 181.5 677 181.5 677 198 693 c 128,-1,28
 214.5 709 214.5 709 237.5 709 c 128,-1,29
434.5 709 m 128,-1,37
 457.5 709 457.5 709 474 693 c 128,-1,38
 490.5 677 490.5 677 490.5 653.5 c 128,-1,39
 490.5 630 490.5 630 474 614 c 128,-1,40
 457.5 598 457.5 598 434.5 598 c 128,-1,41
 411.5 598 411.5 598 395 614 c 128,-1,42
 378.5 630 378.5 630 378.5 653.5 c 128,-1,43
 378.5 677 378.5 677 395 693 c 128,-1,36
 411.5 709 411.5 709 434.5 709 c 128,-1,37
EndSplineSet
MultipleSubs2: "cartouched sitelen" pipi.t cartouche.body
LCarets2: 4 0 0 0 0
Ligature2: "sitelen+-space" p i p i space
Ligature2: "sitelen" p i p i
EndChar

StartChar: poka.t
Encoding: 989522 989522 102
Width: 672
GlyphClass: 1
Flags: MW
LayerCount: 2
Fore
SplineSet
572.5 354.5 m 128,-1,1
 572.5 379 572.5 379 589.5 396.5 c 128,-1,2
 606.5 414 606.5 414 631 414 c 128,-1,3
 655.5 414 655.5 414 673 396.5 c 128,-1,4
 690.5 379 690.5 379 690.5 354.5 c 128,-1,5
 690.5 330 690.5 330 673 312.5 c 128,-1,6
 655.5 295 655.5 295 631 295 c 128,-1,7
 606.5 295 606.5 295 589.5 312.5 c 128,-1,0
 572.5 330 572.5 330 572.5 354.5 c 128,-1,1
-18.5 512 m 1,8,-1
 60.5 512 l 1,9,-1
 60.5 276 l 1,10,-1
 453.5 276 l 1,11,-1
 453.5 512 l 1,12,-1
 532.5 512 l 1,13,-1
 532.5 197 l 1,14,-1
 -18.5 197 l 1,15,-1
 -18.5 512 l 1,8,-1
EndSplineSet
MultipleSubs2: "cartouched sitelen" poka.t cartouche.body
LCarets2: 4 0 0 0 0
Ligature2: "sitelen+-space" p o k a space
Ligature2: "sitelen" p o k a
EndChar

StartChar: poki.t
Encoding: 989523 989523 103
Width: 672
GlyphClass: 1
Flags: MW
LayerCount: 2
Fore
SplineSet
21 709 m 1,0,-1
 100 709 l 1,1,-1
 100 79 l 1,2,-1
 573 79 l 1,3,-1
 573 709 l 1,4,-1
 651 709 l 1,5,-1
 651 0 l 1,6,-1
 573 0 l 1,7,-1
 100 0 l 1,8,-1
 21 0 l 1,9,-1
 21 709 l 1,0,-1
EndSplineSet
MultipleSubs2: "cartouched sitelen" poki.t cartouche.body
Ligature2: "sitelen+-space" p o k i space
Ligature2: "sitelen" p o k i
EndChar

StartChar: pona.t
Encoding: 989524 989524 104
Width: 672
GlyphClass: 1
Flags: MW
LayerCount: 2
Fore
SplineSet
336 177 m 128,-1,1
 264.5 177 264.5 177 198.5 205 c 128,-1,2
 132.5 233 132.5 233 85 280.5 c 128,-1,3
 37.5 328 37.5 328 9.5 394 c 128,-1,4
 -18.5 460 -18.5 460 -18.5 532 c 1,5,-1
 60.5 532 l 1,6,7
 60.5 457 60.5 457 97.5 393.5 c 128,-1,8
 134.5 330 134.5 330 197.5 293 c 128,-1,9
 260.5 256 260.5 256 335.5 256 c 128,-1,10
 410.5 256 410.5 256 474 293 c 128,-1,11
 537.5 330 537.5 330 574.5 393.5 c 128,-1,12
 611.5 457 611.5 457 611.5 532 c 1,13,14
 611.5 532 611.5 532 690.5 532 c 1,15,16
 690.5 460 690.5 460 662.5 394 c 132,-1,17
 634.5 328 634.5 328 586.5 280.5 c 128,-1,18
 538.5 233 538.5 233 473 205 c 128,-1,0
 407.5 177 407.5 177 336 177 c 128,-1,1
EndSplineSet
MultipleSubs2: "cartouched sitelen" pona.t cartouche.body
Ligature2: "sitelen+-space" p o n a space
Ligature2: "sitelen" p o n a
EndChar

StartChar: pu.t
Encoding: 989525 989525 105
Width: 672
GlyphClass: 1
Flags: MW
LayerCount: 2
Fore
SplineSet
256.5 285 m 1,0,-1
 296.5 285 l 1,1,2
 296.5 269 296.5 269 308 258 c 128,-1,3
 319.5 247 319.5 247 336 247 c 128,-1,4
 352.5 247 352.5 247 364 258 c 128,-1,5
 375.5 269 375.5 269 375.5 285 c 1,6,-1
 414.5 285 l 1,7,8
 414.5 253 414.5 253 391.5 230 c 128,-1,9
 368.5 207 368.5 207 336 207 c 128,-1,10
 303.5 207 303.5 207 280 230 c 128,-1,11
 256.5 253 256.5 253 256.5 285 c 1,0,-1
335.5 394 m 128,-1,13
 290.5 394 290.5 394 259 362 c 128,-1,14
 227.5 330 227.5 330 227.5 285.5 c 128,-1,15
 227.5 241 227.5 241 259 209 c 128,-1,16
 290.5 177 290.5 177 335.5 177 c 128,-1,17
 380.5 177 380.5 177 412 209 c 128,-1,18
 443.5 241 443.5 241 443.5 285.5 c 128,-1,19
 443.5 330 443.5 330 412 362 c 128,-1,12
 380.5 394 380.5 394 335.5 394 c 128,-1,13
336 433 m 128,-1,21
 397.5 433 397.5 433 440.5 390 c 128,-1,22
 483.5 347 483.5 347 483.5 285.5 c 128,-1,23
 483.5 224 483.5 224 440.5 181 c 128,-1,24
 397.5 138 397.5 138 336 138 c 128,-1,25
 274.5 138 274.5 138 231 181 c 128,-1,26
 187.5 224 187.5 224 187.5 285.5 c 128,-1,27
 187.5 347 187.5 347 231 390 c 128,-1,20
 274.5 433 274.5 433 336 433 c 128,-1,21
434.5 571 m 1,28,-1
 476.5 571 l 1,29,-1
 437.5 473 l 1,30,-1
 394.5 473 l 1,31,-1
 434.5 571 l 1,28,-1
316.5 571 m 1,32,-1
 355.5 571 l 1,33,-1
 355.5 473 l 1,34,-1
 316.5 473 l 1,35,-1
 316.5 571 l 1,32,-1
194.5 571 m 1,36,-1
 237.5 571 l 1,37,-1
 276.5 473 l 1,38,-1
 234.5 473 l 1,39,-1
 194.5 571 l 1,36,-1
138.5 630 m 1,40,-1
 138.5 79 l 1,41,-1
 532.5 79 l 1,42,-1
 532.5 630 l 1,43,-1
 138.5 630 l 1,40,-1
60.5 709 m 1,44,-1
 611.5 709 l 1,45,-1
 611.5 0 l 1,46,-1
 60.5 0 l 1,47,-1
 60.5 709 l 1,44,-1
EndSplineSet
MultipleSubs2: "cartouched sitelen" pu.t cartouche.body
Ligature2: "sitelen+-space" p u space
Ligature2: "sitelen" p u
EndChar

StartChar: sama.t
Encoding: 989526 989526 106
Width: 672
GlyphClass: 1
Flags: MW
LayerCount: 2
Fore
SplineSet
60.5 276 m 1,0,-1
 611.5 276 l 1,1,-1
 611.5 197 l 1,2,-1
 60.5 197 l 1,3,-1
 60.5 276 l 1,0,-1
60.5 512 m 1,4,-1
 611.5 512 l 1,5,-1
 611.5 433 l 1,6,-1
 60.5 433 l 1,7,-1
 60.5 512 l 1,4,-1
EndSplineSet
MultipleSubs2: "cartouched sitelen" sama.t cartouche.body
Ligature2: "sitelen+-space" s a m a space
Ligature2: "sitelen" s a m a
EndChar

StartChar: seli.t
Encoding: 989527 989527 107
Width: 672
GlyphClass: 1
Flags: MW
LayerCount: 2
Fore
SplineSet
276.5 118.5 m 128,-1,1
 276.5 143 276.5 143 294 160 c 128,-1,2
 311.5 177 311.5 177 336 177 c 128,-1,3
 360.5 177 360.5 177 377.5 160 c 128,-1,4
 394.5 143 394.5 143 394.5 118.5 c 128,-1,5
 394.5 94 394.5 94 377.5 76.5 c 128,-1,6
 360.5 59 360.5 59 336 59 c 128,-1,7
 311.5 59 311.5 59 294 76.5 c 128,-1,0
 276.5 94 276.5 94 276.5 118.5 c 128,-1,1
618.5 615 m 1,8,-1
 690.5 581 l 1,9,-1
 505.5 189 l 1,10,-1
 434.5 223 l 1,11,-1
 618.5 615 l 1,8,-1
-18.5 581 m 1,12,-1
 52.5 615 l 1,13,-1
 237.5 223 l 1,14,-1
 165.5 189 l 1,15,-1
 -18.5 581 l 1,12,-1
296.5 670 m 1,16,-1
 375.5 670 l 1,17,-1
 375.5 236 l 1,18,-1
 296.5 236 l 1,19,-1
 296.5 670 l 1,16,-1
EndSplineSet
MultipleSubs2: "cartouched sitelen" seli.t cartouche.body
Ligature2: "sitelen+-space" s e l i space
Ligature2: "sitelen" s e l i
EndChar

StartChar: selo.t
Encoding: 989528 989528 108
Width: 672
GlyphClass: 1
Flags: MW
LayerCount: 2
Fore
SplineSet
-18.5 551 m 1,0,-1
 690.5 551 l 1,1,-1
 690.5 158 l 1,2,-1
 611.5 158 l 1,3,-1
 611.5 473 l 1,4,-1
 512.5 473 l 1,5,-1
 512.5 158 l 1,6,-1
 434.5 158 l 1,7,-1
 434.5 473 l 1,8,-1
 237.5 473 l 1,9,-1
 237.5 158 l 1,10,-1
 158.5 158 l 1,11,-1
 158.5 473 l 1,12,-1
 60.5 473 l 1,13,-1
 60.5 158 l 1,14,-1
 -18.5 158 l 1,15,-1
 -18.5 551 l 1,0,-1
EndSplineSet
MultipleSubs2: "cartouched sitelen" selo.t cartouche.body
Ligature2: "sitelen+-space" s e l o space
Ligature2: "sitelen" s e l o
EndChar

StartChar: seme.t
Encoding: 989529 989529 109
Width: 672
GlyphClass: 1
Flags: MW
LayerCount: 2
Fore
SplineSet
336 709 m 0,0,1
 418 709 418 709 475.5 651.5 c 128,-1,2
 533 594 533 594 533 512 c 0,3,4
 533 466 533 466 512 424 c 128,-1,5
 491 382 491 382 454 355 c 2,6,-1
 423 331 l 2,7,8
 376 296 376 296 376 236 c 2,9,-1
 376 177 l 1,10,-1
 297 177 l 1,11,-1
 297 236 l 2,12,13
 297 282 297 282 318 324 c 128,-1,14
 339 366 339 366 376 393 c 2,15,-1
 407 418 l 1,16,17
 454 453 454 453 454 507 c 128,-1,18
 454 561 454 561 419.5 595.5 c 128,-1,19
 385 630 385 630 336.5 630 c 128,-1,20
 288 630 288 630 253 595.5 c 128,-1,21
 218 561 218 561 218 512 c 1,22,-1
 139 512 l 1,23,24
 139 568 139 568 168 614 c 128,-1,25
 197 660 197 660 241.5 684.5 c 128,-1,26
 286 709 286 709 336 709 c 0,0,1
277 59 m 128,-1,28
 277 83 277 83 294.5 100.5 c 128,-1,29
 312 118 312 118 336.5 118 c 128,-1,30
 361 118 361 118 378 100.5 c 128,-1,31
 395 83 395 83 395 59 c 128,-1,32
 395 35 395 35 378 17.5 c 128,-1,33
 361 0 361 0 336.5 0 c 128,-1,34
 312 0 312 0 294.5 17.5 c 128,-1,27
 277 35 277 35 277 59 c 128,-1,28
EndSplineSet
LCarets2: 4 0 0 0 0
MultipleSubs2: "cartouched sitelen" seme.t cartouche.body
Ligature2: "sitelen+-space" s e m e space
Ligature2: "sitelen" s e m e
EndChar

StartChar: sewi.t
Encoding: 989530 989530 110
Width: 672
GlyphClass: 1
Flags: MW
LayerCount: 2
Fore
SplineSet
588 709 m 1,0,-1
 666 709 l 1,1,-1
 666 0 l 1,2,-1
 588 0 l 1,3,-1
 588 709 l 1,0,-1
410 551 m 1,4,-1
 489 551 l 1,5,-1
 489 128 l 2,6,7
 489 74 489 74 451.5 37 c 128,-1,8
 414 0 414 0 361.5 0 c 128,-1,9
 309 0 309 0 272 36 c 1,10,11
 235 0 235 0 183.5 0 c 128,-1,12
 132 0 132 0 95 36 c 1,13,14
 58 0 58 0 6 0 c 1,15,16
 6 0 6 0 6 79 c 1,17,18
 26 79 26 79 41 93.5 c 128,-1,19
 56 108 56 108 56 128 c 2,20,-1
 56 236 l 1,21,-1
 135 236 l 1,22,-1
 135 128 l 2,23,24
 135 108 135 108 149.5 93.5 c 128,-1,25
 164 79 164 79 184 79 c 128,-1,26
 204 79 204 79 218.5 93.5 c 128,-1,27
 233 108 233 108 233 128 c 2,28,-1
 233 394 l 1,29,-1
 312 394 l 1,30,-1
 312 128 l 2,31,32
 312 108 312 108 326.5 93.5 c 128,-1,33
 341 79 341 79 361 79 c 128,-1,34
 381 79 381 79 395.5 93.5 c 128,-1,35
 410 108 410 108 410 128 c 2,36,-1
 410 551 l 1,4,-1
EndSplineSet
MultipleSubs2: "cartouched sitelen" sewi.t cartouche.body
Ligature2: "sitelen+-space" s e w i space
Ligature2: "sitelen" s e w i
EndChar

StartChar: sijelo.t
Encoding: 989531 989531 111
Width: 672
GlyphClass: 1
Flags: MW
LayerCount: 2
Fore
SplineSet
21 709 m 1,0,-1
 651 709 l 1,1,-1
 651 0 l 1,2,-1
 573 0 l 1,3,-1
 573 630 l 1,4,-1
 376 630 l 1,5,-1
 376 0 l 1,6,-1
 297 0 l 1,7,-1
 297 630 l 1,8,-1
 100 630 l 1,9,-1
 100 0 l 1,10,-1
 21 0 l 1,11,-1
 21 709 l 1,0,-1
EndSplineSet
MultipleSubs2: "cartouched sitelen" sijelo.t cartouche.body
Ligature2: "sitelen+-space" s i j e l o space
Ligature2: "sitelen" s i j e l o
EndChar

StartChar: sike.t
Encoding: 989532 989532 112
Width: 672
GlyphClass: 1
Flags: MW
LayerCount: 2
Fore
SplineSet
336 433 m 128,-1,1
 303.5 433 303.5 433 280 410 c 128,-1,2
 256.5 387 256.5 387 256.5 354.5 c 128,-1,3
 256.5 322 256.5 322 280 299 c 128,-1,4
 303.5 276 303.5 276 336 276 c 128,-1,5
 368.5 276 368.5 276 391.5 299 c 128,-1,6
 414.5 322 414.5 322 414.5 354.5 c 128,-1,7
 414.5 387 414.5 387 391.5 410 c 128,-1,0
 368.5 433 368.5 433 336 433 c 128,-1,1
336 512 m 128,-1,9
 401.5 512 401.5 512 447.5 466 c 128,-1,10
 493.5 420 493.5 420 493.5 354.5 c 128,-1,11
 493.5 289 493.5 289 447.5 243 c 128,-1,12
 401.5 197 401.5 197 336 197 c 128,-1,13
 270.5 197 270.5 197 224.5 243 c 128,-1,14
 178.5 289 178.5 289 178.5 354.5 c 128,-1,15
 178.5 420 178.5 420 224.5 466 c 128,-1,8
 270.5 512 270.5 512 336 512 c 128,-1,9
335.5 630 m 128,-1,17
 260.5 630 260.5 630 197.5 593 c 128,-1,18
 134.5 556 134.5 556 97.5 492.5 c 128,-1,19
 60.5 429 60.5 429 60.5 354.5 c 128,-1,20
 60.5 280 60.5 280 97.5 216.5 c 128,-1,21
 134.5 153 134.5 153 197.5 116 c 128,-1,22
 260.5 79 260.5 79 335.5 79 c 128,-1,23
 410.5 79 410.5 79 474 116 c 128,-1,24
 537.5 153 537.5 153 574.5 216.5 c 128,-1,25
 611.5 280 611.5 280 611.5 354.5 c 128,-1,26
 611.5 429 611.5 429 574.5 492.5 c 128,-1,27
 537.5 556 537.5 556 474 593 c 128,-1,16
 410.5 630 410.5 630 335.5 630 c 128,-1,17
336 709 m 128,-1,29
 407.5 709 407.5 709 473 681 c 128,-1,30
 538.5 653 538.5 653 586.5 605.5 c 128,-1,31
 634.5 558 634.5 558 662.5 492 c 128,-1,32
 690.5 426 690.5 426 690.5 354.5 c 128,-1,33
 690.5 283 690.5 283 662.5 217 c 128,-1,34
 634.5 151 634.5 151 586.5 103.5 c 128,-1,35
 538.5 56 538.5 56 473 28 c 128,-1,36
 407.5 0 407.5 0 336 0 c 128,-1,37
 264.5 0 264.5 0 198.5 28 c 128,-1,38
 132.5 56 132.5 56 85 103.5 c 128,-1,39
 37.5 151 37.5 151 9.5 217 c 128,-1,40
 -18.5 283 -18.5 283 -18.5 354.5 c 128,-1,41
 -18.5 426 -18.5 426 9.5 492 c 128,-1,42
 37.5 558 37.5 558 85 605.5 c 128,-1,43
 132.5 653 132.5 653 198.5 681 c 128,-1,28
 264.5 709 264.5 709 336 709 c 128,-1,29
EndSplineSet
MultipleSubs2: "cartouched sitelen" sike.t cartouche.body
LCarets2: 4 0 0 0 0
Ligature2: "sitelen+-space" s i k e space
Ligature2: "sitelen" s i k e
EndChar

StartChar: sin.t
Encoding: 989533 989533 113
Width: 672
GlyphClass: 1
Flags: MW
LayerCount: 2
Fore
SplineSet
-18.5 315 m 1,0,-1
 237.5 315 l 1,1,-1
 237.5 236 l 1,2,-1
 -18.5 236 l 1,3,-1
 -18.5 315 l 1,0,-1
434.5 315 m 1,4,-1
 690.5 315 l 1,5,-1
 690.5 236 l 1,6,-1
 434.5 236 l 1,7,-1
 434.5 315 l 1,4,-1
296.5 591 m 1,8,-1
 375.5 591 l 1,9,-1
 375.5 374 l 1,10,-1
 296.5 374 l 1,11,-1
 296.5 591 l 1,8,-1
EndSplineSet
MultipleSubs2: "cartouched sitelen" sin.t cartouche.body
Ligature2: "sitelen+-space" s i n space
Ligature2: "sitelen" s i n
EndChar

StartChar: sina.t
Encoding: 989534 989534 114
Width: 672
GlyphClass: 1
Flags: MW
LayerCount: 2
Fore
SplineSet
349 79 m 128,-1,1
 381.5 79 381.5 79 404.5 102 c 128,-1,2
 427.5 125 427.5 125 427.5 157.5 c 128,-1,3
 427.5 190 427.5 190 404.5 213 c 128,-1,4
 381.5 236 381.5 236 349 236 c 128,-1,5
 316.5 236 316.5 236 293 213 c 128,-1,6
 269.5 190 269.5 190 269.5 157.5 c 128,-1,7
 269.5 125 269.5 125 293 102 c 128,-1,0
 316.5 79 316.5 79 349 79 c 128,-1,1
308.5 679 m 1,8,9
 244.5 524 244.5 524 244.5 354 c 0,10,11
 244.5 317 244.5 317 248.5 279 c 1,12,13
 291.5 315 291.5 315 353 315 c 128,-1,14
 414.5 315 414.5 315 460.5 269 c 128,-1,15
 506.5 223 506.5 223 506.5 157.5 c 128,-1,16
 506.5 92 506.5 92 460.5 46 c 128,-1,17
 414.5 0 414.5 0 355 0 c 128,-1,18
 295.5 0 295.5 0 252.5 33 c 128,-1,19
 209.5 66 209.5 66 195.5 118 c 0,20,21
 165.5 235 165.5 235 165.5 354 c 0,22,23
 165.5 537 165.5 537 235.5 709 c 1,24,-1
 308.5 679 l 1,8,9
EndSplineSet
MultipleSubs2: "cartouched sitelen" sina.t cartouche.body
Ligature2: "sitelen+-space" s i n a space
Ligature2: "sitelen" s i n a
EndChar

StartChar: sinpin.t
Encoding: 989535 989535 115
Width: 672
GlyphClass: 1
Flags: MW
LayerCount: 2
Fore
SplineSet
454 354.5 m 128,-1,1
 454 379 454 379 471.5 396.5 c 128,-1,2
 489 414 489 414 513.5 414 c 128,-1,3
 538 414 538 414 555 396.5 c 128,-1,4
 572 379 572 379 572 354.5 c 128,-1,5
 572 330 572 330 555 312.5 c 128,-1,6
 538 295 538 295 513.5 295 c 128,-1,7
 489 295 489 295 471.5 312.5 c 128,-1,0
 454 330 454 330 454 354.5 c 128,-1,1
100 709 m 1,8,-1
 415 709 l 1,9,-1
 415 0 l 1,10,-1
 100 0 l 1,11,-1
 100 79 l 1,12,-1
 336 79 l 1,13,-1
 336 630 l 1,14,-1
 100 630 l 1,15,-1
 100 709 l 1,8,-1
EndSplineSet
MultipleSubs2: "cartouched sitelen" sinpin.t cartouche.body
Ligature2: "sitelen+-space" s i n p i n space
Ligature2: "sitelen" s i n p i n
EndChar

StartChar: sitelen.t
Encoding: 989536 989536 116
Width: 672
GlyphClass: 1
Flags: MW
LayerCount: 2
Fore
SplineSet
491 410 m 0,0,1
 493 410 493 410 495 410 c 0,2,3
 518 410 518 410 534 393.5 c 128,-1,4
 550 377 550 377 550 354.5 c 128,-1,5
 550 332 550 332 533.5 315.5 c 128,-1,6
 517 299 517 299 494.5 299 c 128,-1,7
 472 299 472 299 455.5 315.5 c 128,-1,8
 439 332 439 332 439 354.5 c 128,-1,9
 439 377 439 377 455 394 c 0,10,11
 471 408 471 408 491 410 c 0,0,1
332 410 m 0,12,13
 334 410 334 410 336 410 c 0,14,15
 359 410 359 410 375.5 393.5 c 128,-1,16
 392 377 392 377 392 354.5 c 128,-1,17
 392 332 392 332 375.5 315.5 c 128,-1,18
 359 299 359 299 336 299 c 128,-1,19
 313 299 313 299 296.5 315.5 c 128,-1,20
 280 332 280 332 280 354.5 c 128,-1,21
 280 377 280 377 297 394 c 0,22,23
 312 408 312 408 332 410 c 0,12,13
176 410 m 0,24,25
 178 410 178 410 179 410 c 0,26,27
 202 410 202 410 218.5 394 c 128,-1,28
 235 378 235 378 235 355 c 128,-1,29
 235 332 235 332 218.5 315.5 c 128,-1,30
 202 299 202 299 179.5 299 c 128,-1,31
 157 299 157 299 140.5 315.5 c 128,-1,32
 124 332 124 332 124 355 c 128,-1,33
 124 378 124 378 140 395 c 0,34,35
 156 408 156 408 176 410 c 0,24,25
80 630 m 1,36,-1
 80 79 l 1,37,-1
 592 79 l 1,38,-1
 592 630 l 1,39,-1
 80 630 l 1,36,-1
1 709 m 1,40,-1
 671 709 l 1,41,-1
 671 79 l 1,42,-1
 671 0 l 1,43,-1
 1 0 l 1,44,-1
 1 79 l 1,45,-1
 1 630 l 1,46,-1
 1 709 l 1,40,-1
EndSplineSet
MultipleSubs2: "cartouched sitelen" sitelen.t cartouche.body
Ligature2: "sitelen+-space" s i t e l e n space
Ligature2: "sitelen" s i t e l e n
EndChar

StartChar: sona.t
Encoding: 989537 989537 117
Width: 672
GlyphClass: 1
Flags: MW
LayerCount: 2
Fore
SplineSet
198 394 m 1,0,-1
 198 79 l 1,1,-1
 474 79 l 1,2,-1
 474 394 l 1,3,-1
 198 394 l 1,0,-1
120 473 m 1,4,-1
 553 473 l 1,5,-1
 553 79 l 1,6,-1
 553 0 l 1,7,-1
 120 0 l 1,8,-1
 120 473 l 1,4,-1
494 709 m 1,9,-1
 576 709 l 1,10,-1
 517 532 l 1,11,-1
 435 532 l 1,12,-1
 494 709 l 1,9,-1
297 709 m 1,13,-1
 376 709 l 1,14,-1
 376 532 l 1,15,-1
 297 532 l 1,16,-1
 297 709 l 1,13,-1
96 709 m 1,17,-1
 179 709 l 1,18,-1
 238 532 l 1,19,-1
 155 532 l 1,20,-1
 96 709 l 1,17,-1
EndSplineSet
MultipleSubs2: "cartouched sitelen" sona.t cartouche.body
Ligature2: "sitelen+-space" s o n a space
Ligature2: "sitelen" s o n a
EndChar

StartChar: soweli.t
Encoding: 989538 989538 118
Width: 672
GlyphClass: 1
Flags: MW
LayerCount: 2
Fore
SplineSet
346 437 m 128,-1,1
 329.5 421 329.5 421 306.5 421 c 128,-1,2
 283.5 421 283.5 421 267 437 c 128,-1,3
 250.5 453 250.5 453 250.5 476 c 128,-1,4
 250.5 499 250.5 499 267 515.5 c 128,-1,5
 283.5 532 283.5 532 306.5 532 c 128,-1,6
 329.5 532 329.5 532 346 515.5 c 128,-1,7
 362.5 499 362.5 499 362.5 476 c 128,-1,0
 362.5 453 362.5 453 346 437 c 128,-1,1
504 437 m 128,-1,9
 487.5 421 487.5 421 464.5 421 c 128,-1,10
 441.5 421 441.5 421 425 437 c 128,-1,11
 408.5 453 408.5 453 408.5 476 c 128,-1,12
 408.5 499 408.5 499 425 515.5 c 128,-1,13
 441.5 532 441.5 532 464.5 532 c 128,-1,14
 487.5 532 487.5 532 504 515.5 c 128,-1,15
 520.5 499 520.5 499 520.5 476 c 128,-1,8
 520.5 453 520.5 453 504 437 c 128,-1,9
-8.5 295 m 1,16,-1
 70.5 295 l 1,17,-1
 70.5 20 l 1,18,-1
 -8.5 20 l 1,19,-1
 -8.5 295 l 1,16,-1
129.5 295 m 1,20,-1
 208.5 295 l 1,21,-1
 208.5 20 l 1,22,-1
 129.5 20 l 1,23,-1
 129.5 295 l 1,20,-1
267.5 295 m 1,24,-1
 346.5 295 l 1,25,-1
 346.5 20 l 1,26,-1
 267.5 20 l 1,27,-1
 267.5 295 l 1,24,-1
444.5 610 m 2,28,-1
 -8.5 610 l 1,29,-1
 -8.5 689 l 1,30,-1
 444.5 689 l 2,31,32
 542.5 689 542.5 689 611.5 620 c 128,-1,33
 680.5 551 680.5 551 680.5 453 c 128,-1,34
 680.5 355 680.5 355 611.5 286 c 0,35,36
 556.5 231 556.5 231 483.5 220 c 1,37,-1
 483.5 20 l 1,38,-1
 405.5 20 l 1,39,-1
 405.5 295 l 1,40,-1
 444.5 295 l 2,41,42
 509.5 295 509.5 295 556 341.5 c 128,-1,43
 602.5 388 602.5 388 602.5 453 c 128,-1,44
 602.5 518 602.5 518 556 564 c 128,-1,45
 509.5 610 509.5 610 444.5 610 c 2,28,-1
EndSplineSet
MultipleSubs2: "cartouched sitelen" soweli.t cartouche.body
Ligature2: "sitelen+-space" s o w e l i space
Ligature2: "sitelen" s o w e l i
EndChar

StartChar: suli.t
Encoding: 989539 989539 119
Width: 672
GlyphClass: 1
Flags: MW
LayerCount: 2
Fore
SplineSet
296 0 m 1,0,1
 296 0 296 0 296 2 c 0,2,3
 302 233 302 233 188 433 c 0,4,5
 117 557 117 557 9 648 c 1,6,-1
 60 709 l 5,7,8
 259 542 259 542 336 290 c 1,9,10
 411 539 411 539 612 709 c 1,11,-1
 663 648 l 1,12,13
 554 557 554 557 491 446 c 0,14,15
 368 232 368 232 376 2 c 1,16,-1
 376 0 l 1,17,18
 376 0 376 0 296 0 c 1,0,1
EndSplineSet
LCarets2: 4 0 0 0 0
MultipleSubs2: "cartouched sitelen" suli.t cartouche.body
Ligature2: "sitelen+-space" s u l i space
Ligature2: "sitelen" s u l i
EndChar

StartChar: suno.t
Encoding: 989540 989540 120
Width: 672
GlyphClass: 1
Flags: MW
LayerCount: 2
Fore
SplineSet
690.5 394 m 1,0,-1
 690.5 315 l 1,1,-1
 569.5 315 l 1,2,3
 558.5 242 558.5 242 503 187.5 c 128,-1,4
 447.5 133 447.5 133 375.5 121 c 1,5,-1
 375.5 0 l 1,6,-1
 296.5 0 l 1,7,-1
 296.5 121 l 1,8,9
 223.5 132 223.5 132 168.5 187 c 128,-1,10
 113.5 242 113.5 242 102.5 315 c 1,11,-1
 -18.5 315 l 1,12,-1
 -18.5 394 l 1,13,-1
 102.5 394 l 1,14,15
 113.5 467 113.5 467 168.5 521.5 c 128,-1,16
 223.5 576 223.5 576 296.5 588 c 1,17,-1
 296.5 709 l 1,18,-1
 375.5 709 l 1,19,-1
 375.5 588 l 1,20,21
 448.5 577 448.5 577 503 522 c 128,-1,22
 557.5 467 557.5 467 569.5 394 c 1,23,-1
 690.5 394 l 1,0,-1
178.5 354.5 m 128,-1,25
 178.5 289 178.5 289 224.5 243 c 128,-1,26
 270.5 197 270.5 197 336 197 c 128,-1,27
 401.5 197 401.5 197 447.5 243 c 128,-1,28
 493.5 289 493.5 289 493.5 354.5 c 128,-1,29
 493.5 420 493.5 420 447.5 466 c 128,-1,30
 401.5 512 401.5 512 336 512 c 128,-1,31
 270.5 512 270.5 512 224.5 466 c 128,-1,24
 178.5 420 178.5 420 178.5 354.5 c 128,-1,25
EndSplineSet
MultipleSubs2: "cartouched sitelen" suno.t cartouche.body
Ligature2: "sitelen+-space" s u n o space
Ligature2: "sitelen" s u n o
EndChar

StartChar: supa.t
Encoding: 989541 989541 121
Width: 672
GlyphClass: 1
Flags: MW
LayerCount: 2
Fore
SplineSet
-18.5 492 m 1,0,-1
 690.5 492 l 1,1,-1
 690.5 414 l 1,2,-1
 572.5 414 l 1,3,-1
 591.5 217 l 1,4,-1
 512.5 217 l 1,5,-1
 492.5 414 l 1,6,-1
 178.5 414 l 1,7,-1
 159.5 217 l 1,8,-1
 79.5 217 l 1,9,-1
 99.5 414 l 1,10,-1
 -18.5 414 l 1,11,-1
 -18.5 492 l 1,0,-1
EndSplineSet
MultipleSubs2: "cartouched sitelen" supa.t cartouche.body
Ligature2: "sitelen+-space" s u p a space
Ligature2: "sitelen" s u p a
EndChar

StartChar: suwi.t
Encoding: 989542 989542 122
Width: 672
GlyphClass: 1
Flags: MW
LayerCount: 2
Fore
SplineSet
276.5 197 m 128,-1,1
 276.5 221 276.5 221 294 238.5 c 128,-1,2
 311.5 256 311.5 256 336 256 c 128,-1,3
 360.5 256 360.5 256 377.5 238.5 c 128,-1,4
 394.5 221 394.5 221 394.5 197 c 128,-1,5
 394.5 173 394.5 173 377.5 155.5 c 128,-1,6
 360.5 138 360.5 138 336 138 c 128,-1,7
 311.5 138 311.5 138 294 155.5 c 128,-1,0
 276.5 173 276.5 173 276.5 197 c 128,-1,1
532.5 591 m 1,8,-1
 690.5 354 l 1,9,-1
 595.5 354 l 1,10,-1
 532.5 449 l 1,11,-1
 469.5 354 l 1,12,-1
 375.5 354 l 1,13,-1
 532.5 591 l 1,8,-1
138.5 591 m 1,14,-1
 296.5 354 l 1,15,-1
 201.5 354 l 1,16,-1
 138.5 449 l 1,17,-1
 75.5 354 l 1,18,-1
 -18.5 354 l 1,19,-1
 138.5 591 l 1,14,-1
EndSplineSet
MultipleSubs2: "cartouched sitelen" suwi.t cartouche.body
Ligature2: "sitelen+-space" s u w i space
Ligature2: "sitelen" s u w i
EndChar

StartChar: tan.t
Encoding: 989543 989543 123
Width: 672
GlyphClass: 1
Flags: MW
LayerCount: 2
Fore
SplineSet
-18.5 532 m 1,0,-1
 60.5 532 l 1,1,-1
 60.5 399 l 1,2,3
 110.5 461 110.5 461 183 496.5 c 128,-1,4
 255.5 532 255.5 532 332 532 c 128,-1,5
 408.5 532 408.5 532 473.5 504 c 128,-1,6
 538.5 476 538.5 476 586.5 428 c 128,-1,7
 634.5 380 634.5 380 662.5 315 c 128,-1,8
 690.5 250 690.5 250 690.5 177 c 1,9,-1
 611.5 177 l 1,10,11
 611.5 252 611.5 252 574.5 315.5 c 128,-1,12
 537.5 379 537.5 379 474 416 c 128,-1,13
 410.5 453 410.5 453 339 453 c 128,-1,14
 267.5 453 267.5 453 208.5 421.5 c 128,-1,15
 149.5 390 149.5 390 110.5 335 c 1,16,-1
 256.5 335 l 1,17,-1
 256.5 256 l 1,18,-1
 -18.5 256 l 1,19,-1
 -18.5 335 l 1,20,-1
 -18.5 532 l 1,0,-1
EndSplineSet
MultipleSubs2: "cartouched sitelen" tan.t cartouche.body
Ligature2: "sitelen+-space" t a n space
Ligature2: "sitelen" t a n
EndChar

StartChar: taso.t
Encoding: 989544 989544 124
Width: 672
GlyphClass: 1
Flags: MW
LayerCount: 2
Fore
SplineSet
376 709 m 1,0,-1
 454 709 l 1,1,-1
 454 394 l 1,2,-1
 454 315 l 1,3,-1
 454 0 l 1,4,-1
 376 0 l 1,5,-1
 376 315 l 1,6,-1
 218 315 l 1,7,-1
 218 394 l 1,8,-1
 376 394 l 1,9,-1
 376 709 l 1,0,-1
EndSplineSet
MultipleSubs2: "cartouched sitelen" taso.t cartouche.body
Ligature2: "sitelen+-space" t a s o space
Ligature2: "sitelen" t a s o
EndChar

StartChar: tawa.t
Encoding: 989545 989545 125
Width: 672
GlyphClass: 1
Flags: MW
LayerCount: 2
Fore
SplineSet
335.5 709 m 1,0,-1
 509.5 102 l 1,1,-1
 664.5 154 l 1,2,-1
 690.5 79 l 1,3,-1
 530.5 25 l 1,4,-1
 453.5 0 l 1,5,-1
 432.5 76 l 1,6,-1
 312.5 506 l 1,7,-1
 97.5 124 l 1,8,-1
 242.5 75 l 1,9,-1
 217.5 0 l 1,10,-1
 57.5 54 l 1,11,-1
 -18.5 79 l 1,12,-1
 20.5 149 l 1,13,-1
 335.5 709 l 1,0,-1
EndSplineSet
MultipleSubs2: "cartouched sitelen" tawa.t cartouche.body
Ligature2: "sitelen+-space" t a w a space
LCarets2: 3 0 0 0
Ligature2: "sitelen" t a w a
EndChar

StartChar: telo.t
Encoding: 989546 989546 126
Width: 672
GlyphClass: 1
Flags: MW
LayerCount: 2
Fore
SplineSet
249.5 528 m 2,0,1
 217.5 552 217.5 552 173.5 551.5 c 128,-1,2
 129.5 551 129.5 551 95 516.5 c 128,-1,3
 60.5 482 60.5 482 60.5 433 c 1,4,-1
 -18.5 433 l 1,5,6
 -18.5 515 -18.5 515 39 572.5 c 128,-1,7
 96.5 630 96.5 630 170 630 c 128,-1,8
 243.5 630 243.5 630 296.5 591 c 2,9,-1
 422.5 496 l 2,10,11
 454.5 472 454.5 472 498.5 472.5 c 128,-1,12
 542.5 473 542.5 473 577 507.5 c 128,-1,13
 611.5 542 611.5 542 611.5 591 c 1,14,-1
 690.5 591 l 1,15,16
 690.5 509 690.5 509 633 451.5 c 128,-1,17
 575.5 394 575.5 394 501.5 394 c 128,-1,18
 427.5 394 427.5 394 375.5 433 c 2,19,-1
 249.5 528 l 2,0,1
249.5 213 m 2,20,21
 217.5 237 217.5 237 173.5 236.5 c 128,-1,22
 129.5 236 129.5 236 95 201.5 c 128,-1,23
 60.5 167 60.5 167 60.5 118 c 1,24,-1
 -18.5 118 l 1,25,26
 -18.5 200 -18.5 200 39 257.5 c 128,-1,27
 96.5 315 96.5 315 170 315 c 128,-1,28
 243.5 315 243.5 315 296.5 276 c 2,29,-1
 422.5 181 l 2,30,31
 454.5 157 454.5 157 498.5 157.5 c 128,-1,32
 542.5 158 542.5 158 577 192.5 c 128,-1,33
 611.5 227 611.5 227 611.5 276 c 1,34,-1
 690.5 276 l 1,35,36
 690.5 194 690.5 194 633 136.5 c 128,-1,37
 575.5 79 575.5 79 501.5 79 c 128,-1,38
 427.5 79 427.5 79 375.5 118 c 2,39,-1
 249.5 213 l 2,20,21
EndSplineSet
MultipleSubs2: "cartouched sitelen" telo.t cartouche.body
Ligature2: "sitelen+-space" t e l o space
Ligature2: "sitelen" t e l o
EndChar

StartChar: tenpo.t
Encoding: 989547 989547 127
Width: 672
GlyphClass: 1
Flags: MW
LayerCount: 2
Fore
SplineSet
296.5 571 m 1,0,-1
 375.5 571 l 1,1,-1
 375.5 374 l 1,2,-1
 493.5 374 l 1,3,-1
 493.5 295 l 1,4,-1
 296.5 295 l 1,5,-1
 296.5 571 l 1,0,-1
335.5 630 m 128,-1,7
 260.5 630 260.5 630 197.5 593 c 128,-1,8
 134.5 556 134.5 556 97.5 492.5 c 128,-1,9
 60.5 429 60.5 429 60.5 354.5 c 128,-1,10
 60.5 280 60.5 280 97.5 216.5 c 128,-1,11
 134.5 153 134.5 153 197.5 116 c 128,-1,12
 260.5 79 260.5 79 335.5 79 c 128,-1,13
 410.5 79 410.5 79 474 116 c 128,-1,14
 537.5 153 537.5 153 574.5 216.5 c 128,-1,15
 611.5 280 611.5 280 611.5 354.5 c 128,-1,16
 611.5 429 611.5 429 574.5 492.5 c 128,-1,17
 537.5 556 537.5 556 474 593 c 128,-1,6
 410.5 630 410.5 630 335.5 630 c 128,-1,7
336 709 m 128,-1,19
 408.5 709 408.5 709 473.5 681 c 128,-1,20
 538.5 653 538.5 653 586.5 605.5 c 128,-1,21
 634.5 558 634.5 558 662.5 492.5 c 128,-1,22
 690.5 427 690.5 427 690.5 354.5 c 128,-1,23
 690.5 282 690.5 282 662.5 216.5 c 128,-1,24
 634.5 151 634.5 151 586.5 103.5 c 128,-1,25
 538.5 56 538.5 56 473.5 28 c 128,-1,26
 408.5 0 408.5 0 336 0 c 128,-1,27
 263.5 0 263.5 0 198 28 c 128,-1,28
 132.5 56 132.5 56 85 103.5 c 128,-1,29
 37.5 151 37.5 151 9.5 216.5 c 128,-1,30
 -18.5 282 -18.5 282 -18.5 354.5 c 128,-1,31
 -18.5 427 -18.5 427 9.5 492.5 c 128,-1,32
 37.5 558 37.5 558 85 605.5 c 128,-1,33
 132.5 653 132.5 653 198 681 c 128,-1,18
 263.5 709 263.5 709 336 709 c 128,-1,19
EndSplineSet
MultipleSubs2: "cartouched sitelen" tenpo.t cartouche.body
Ligature2: "sitelen+-space" t e n p o space
Ligature2: "sitelen" t e n p o
EndChar

StartChar: toki.t
Encoding: 989548 989548 128
Width: 672
GlyphClass: 1
Flags: MW
LayerCount: 2
Fore
SplineSet
336.5 394 m 128,-1,1
 271 394 271 394 225 348 c 128,-1,2
 179 302 179 302 179 236.5 c 128,-1,3
 179 171 179 171 225 125 c 128,-1,4
 271 79 271 79 336.5 79 c 128,-1,5
 402 79 402 79 448 125 c 128,-1,6
 494 171 494 171 494 236.5 c 128,-1,7
 494 302 494 302 448 348 c 128,-1,0
 402 394 402 394 336.5 394 c 128,-1,1
336.5 473 m 128,-1,9
 434 473 434 473 503.5 403.5 c 128,-1,10
 573 334 573 334 573 236.5 c 128,-1,11
 573 139 573 139 503.5 69.5 c 128,-1,12
 434 0 434 0 336.5 0 c 128,-1,13
 239 0 239 0 169.5 69.5 c 128,-1,14
 100 139 100 139 100 236.5 c 128,-1,15
 100 334 100 334 169.5 403.5 c 128,-1,8
 239 473 239 473 336.5 473 c 128,-1,9
179 709 m 1,16,-1
 238 532 l 1,17,-1
 155 532 l 1,18,-1
 96 709 l 1,19,-1
 179 709 l 1,16,-1
494 709 m 1,20,-1
 576 709 l 1,21,-1
 517 532 l 1,22,-1
 435 532 l 1,23,-1
 494 709 l 1,20,-1
297 709 m 1,24,-1
 376 709 l 1,25,-1
 376 532 l 1,26,-1
 297 532 l 1,27,-1
 297 709 l 1,24,-1
EndSplineSet
MultipleSubs2: "cartouched sitelen" toki.t cartouche.body
Ligature2: "sitelen+-space" t o k i space
Ligature2: "sitelen" t o k i
EndChar

StartChar: tomo.t
Encoding: 989549 989549 129
Width: 672
GlyphClass: 1
Flags: MW
LayerCount: 2
Fore
SplineSet
336 604 m 1,0,-1
 100 398 l 1,1,-1
 100 79 l 1,2,-1
 573 79 l 1,3,-1
 573 398 l 1,4,-1
 336 604 l 1,0,-1
336 709 m 1,5,-1
 651 433 l 1,6,-1
 651 0 l 1,7,-1
 21 0 l 1,8,-1
 21 433 l 1,9,-1
 336 709 l 1,5,-1
EndSplineSet
MultipleSubs2: "cartouched sitelen" tomo.t cartouche.body
Ligature2: "sitelen+-space" t o m o space
Ligature2: "sitelen" t o m o
EndChar

StartChar: tu.t
Encoding: 989550 989550 130
Width: 672
GlyphClass: 1
Flags: MW
LayerCount: 2
Fore
SplineSet
414.5 670 m 1,0,-1
 493.5 670 l 1,1,-1
 493.5 39 l 1,2,-1
 414.5 39 l 1,3,-1
 414.5 670 l 1,0,-1
178.5 670 m 1,4,-1
 256.5 670 l 1,5,-1
 256.5 39 l 1,6,-1
 178.5 39 l 1,7,-1
 178.5 670 l 1,4,-1
EndSplineSet
MultipleSubs2: "cartouched sitelen" tu.t cartouche.body
Ligature2: "sitelen+-space" t u space
Ligature2: "sitelen" t u
EndChar

StartChar: unpa.t
Encoding: 989551 989551 131
Width: 672
GlyphClass: 1
Flags: MW
LayerCount: 2
Fore
SplineSet
152.97265625 370 m 1,0,1
 116.97265625 390 116.97265625 390 95.97265625 417.5 c 128,-1,2
 74.97265625 445 74.97265625 445 68.97265625 471 c 0,3,4
 56.97265625 527 56.97265625 527 91.47265625 571 c 128,-1,5
 125.97265625 615 125.97265625 615 176.97265625 615 c 128,-1,6
 227.97265625 615 227.97265625 615 279.97265625 570 c 1,7,8
 186.97265625 468 186.97265625 468 152.97265625 370 c 1,0,1
446.97265625 340 m 1,9,10
 336.97265625 308 336.97265625 308 225.97265625 340 c 1,11,12
 253.97265625 424 253.97265625 424 335.97265625 514 c 1,13,14
 418.97265625 424 418.97265625 424 446.97265625 340 c 1,9,10
336.47265625 98 m 128,-1,16
 285.97265625 98 285.97265625 98 247.47265625 143 c 128,-1,17
 208.97265625 188 208.97265625 188 211.97265625 263 c 1,18,19
 335.97265625 229 335.97265625 229 460.97265625 263 c 1,20,21
 462.97265625 188 462.97265625 188 424.97265625 143 c 128,-1,15
 386.97265625 98 386.97265625 98 336.47265625 98 c 128,-1,16
336.47265625 20 m 128,-1,23
 378.97265625 20 378.97265625 20 418.47265625 39.5 c 128,-1,24
 457.97265625 59 457.97265625 59 486.47265625 93.5 c 128,-1,25
 514.97265625 128 514.97265625 128 529.47265625 180 c 128,-1,26
 543.97265625 232 543.97265625 232 536.97265625 291 c 1,27,28
 632.97265625 337 632.97265625 337 667.97265625 417 c 0,29,30
 684.97265625 456 684.97265625 456 683.97265625 498 c 0,31,32
 683.97265625 579 683.97265625 579 627.47265625 636.5 c 128,-1,33
 570.97265625 694 570.97265625 694 491.47265625 694 c 128,-1,34
 411.97265625 694 411.97265625 694 335.97265625 625 c 1,35,36
 259.97265625 694 259.97265625 694 180.47265625 694 c 128,-1,37
 100.97265625 694 100.97265625 694 44.47265625 636.5 c 128,-1,38
 -12.02734375 579 -12.02734375 579 -12.02734375 498 c 0,39,40
 -12.02734375 437 -12.02734375 437 24.47265625 382 c 128,-1,41
 60.97265625 327 60.97265625 327 134.97265625 291 c 1,42,43
 127.97265625 232 127.97265625 232 142.47265625 180 c 128,-1,44
 156.97265625 128 156.97265625 128 185.97265625 93.5 c 128,-1,45
 214.97265625 59 214.97265625 59 254.47265625 39.5 c 128,-1,22
 293.97265625 20 293.97265625 20 336.47265625 20 c 128,-1,23
391.97265625 570 m 1,46,47
 444.97265625 616 444.97265625 616 495.47265625 615.5 c 128,-1,48
 545.97265625 615 545.97265625 615 580.47265625 571.5 c 128,-1,49
 614.97265625 528 614.97265625 528 602.97265625 471 c 0,50,51
 596.97265625 445 596.97265625 445 575.97265625 418 c 128,-1,52
 554.97265625 391 554.97265625 391 518.97265625 370 c 1,53,54
 484.97265625 469 484.97265625 469 391.97265625 570 c 1,46,47
EndSplineSet
MultipleSubs2: "cartouched sitelen" unpa.t cartouche.body
Ligature2: "sitelen+-space" u n p a space
Ligature2: "sitelen" u n p a
EndChar

StartChar: uta.t
Encoding: 989552 989552 132
Width: 672
GlyphClass: 1
Flags: MW
LayerCount: 2
Fore
SplineSet
60.5 532 m 1,0,-1
 611.5 532 l 1,1,-1
 611.5 492 l 2,2,3
 611.5 417 611.5 417 574.5 353.5 c 128,-1,4
 537.5 290 537.5 290 474 253.5 c 128,-1,5
 410.5 217 410.5 217 335.5 217 c 128,-1,6
 260.5 217 260.5 217 197 253.5 c 128,-1,7
 133.5 290 133.5 290 97 353.5 c 128,-1,8
 60.5 417 60.5 417 60.5 492 c 2,9,-1
 60.5 532 l 1,0,-1
143.5 453 m 1,10,11
 157.5 384 157.5 384 211.5 340 c 128,-1,12
 265.5 296 265.5 296 335.5 295.5 c 128,-1,13
 405.5 295 405.5 295 460 339.5 c 128,-1,14
 514.5 384 514.5 384 528.5 453 c 1,15,-1
 143.5 453 l 1,10,11
276.5 118.5 m 128,-1,17
 276.5 143 276.5 143 294 160 c 128,-1,18
 311.5 177 311.5 177 336 177 c 128,-1,19
 360.5 177 360.5 177 377.5 160 c 128,-1,20
 394.5 143 394.5 143 394.5 118.5 c 128,-1,21
 394.5 94 394.5 94 377.5 76.5 c 128,-1,22
 360.5 59 360.5 59 336 59 c 128,-1,23
 311.5 59 311.5 59 294 76.5 c 128,-1,16
 276.5 94 276.5 94 276.5 118.5 c 128,-1,17
EndSplineSet
MultipleSubs2: "cartouched sitelen" uta.t cartouche.body
Ligature2: "sitelen+-space" u t a space
Ligature2: "sitelen" u t a
EndChar

StartChar: utala.t
Encoding: 989553 989553 133
Width: 672
GlyphClass: 1
Flags: MW
LayerCount: 2
Fore
SplineSet
520 709 m 1,0,-1
 587 668 l 1,1,-1
 382 333 l 1,2,-1
 487 162 l 1,3,-1
 581 351 l 1,4,-1
 651 315 l 1,5,-1
 494 0 l 1,6,-1
 336 258 l 1,7,-1
 179 0 l 1,8,-1
 21 315 l 1,9,-1
 91 351 l 1,10,-1
 186 162 l 1,11,-1
 290 333 l 1,12,-1
 86 668 l 1,13,-1
 153 709 l 1,14,-1
 336 409 l 1,15,-1
 520 709 l 1,0,-1
EndSplineSet
MultipleSubs2: "cartouched sitelen" utala.t cartouche.body
Ligature2: "sitelen+-space" u t a l a space
Ligature2: "sitelen" u t a l a
EndChar

StartChar: walo.t
Encoding: 989554 989554 134
Width: 672
GlyphClass: 1
Flags: MW
LayerCount: 2
Fore
SplineSet
562.5 80 m 1,0,-1
 335.5 532 l 1,1,-1
 108.5 80 l 1,2,-1
 562.5 80 l 1,0,-1
335.5 709 m 1,3,-1
 481.5 417 l 1,4,-1
 654.5 503 l 1,5,-1
 690.5 433 l 1,6,-1
 516.5 347 l 1,7,-1
 690.5 0 l 1,8,-1
 -18.5 0 l 1,9,-1
 154.5 347 l 1,10,-1
 -18.5 433 l 1,11,-1
 16.5 503 l 1,12,-1
 190.5 417 l 1,13,-1
 335.5 709 l 1,3,-1
EndSplineSet
MultipleSubs2: "cartouched sitelen" walo.t cartouche.body
Ligature2: "sitelen+-space" w a l o space
Ligature2: "sitelen" w a l o
EndChar

StartChar: wan.t
Encoding: 989555 989555 135
Width: 672
GlyphClass: 1
Flags: MW
LayerCount: 2
Fore
SplineSet
356.5 709 m 1,0,-1
 434.5 709 l 1,1,-1
 434.5 0 l 1,2,-1
 356.5 0 l 1,3,-1
 356.5 551 l 1,4,5
 303.5 512 303.5 512 237.5 512 c 1,6,7
 237.5 512 237.5 512 237.5 591 c 1,8,9
 286.5 591 286.5 591 321.5 625.5 c 128,-1,10
 356.5 660 356.5 660 356.5 709 c 1,0,-1
EndSplineSet
MultipleSubs2: "cartouched sitelen" wan.t cartouche.body
Ligature2: "sitelen+-space" w a n space
Ligature2: "sitelen" w a n
EndChar

StartChar: waso.t
Encoding: 989556 989556 136
Width: 672
GlyphClass: 1
Flags: MW
LayerCount: 2
Fore
SplineSet
383.5 709 m 1,0,-1
 580.5 236 l 1,1,-1
 495.5 236 l 1,2,-1
 245.5 236 l 1,3,-1
 245.5 0 l 1,4,-1
 167.5 0 l 1,5,-1
 167.5 236 l 1,6,-1
 167.5 315 l 1,7,-1
 245.5 315 l 1,8,-1
 462.5 315 l 1,9,-1
 311.5 679 l 1,10,-1
 383.5 709 l 1,0,-1
344 390 m 128,-1,12
 327.5 374 327.5 374 305 374 c 128,-1,13
 282.5 374 282.5 374 266 390 c 128,-1,14
 249.5 406 249.5 406 249.5 429.5 c 128,-1,15
 249.5 453 249.5 453 266 469 c 128,-1,16
 282.5 485 282.5 485 305 485 c 128,-1,17
 327.5 485 327.5 485 344 469 c 128,-1,18
 360.5 453 360.5 453 360.5 429.5 c 128,-1,11
 360.5 406 360.5 406 344 390 c 128,-1,12
187 390 m 128,-1,20
 170.5 374 170.5 374 147.5 374 c 128,-1,21
 124.5 374 124.5 374 108 390 c 128,-1,22
 91.5 406 91.5 406 91.5 429.5 c 128,-1,23
 91.5 453 91.5 453 108 469 c 128,-1,24
 124.5 485 124.5 485 147.5 485 c 128,-1,25
 170.5 485 170.5 485 187 469 c 128,-1,26
 203.5 453 203.5 453 203.5 429.5 c 128,-1,19
 203.5 406 203.5 406 187 390 c 128,-1,20
EndSplineSet
MultipleSubs2: "cartouched sitelen" waso.t cartouche.body
Ligature2: "sitelen+-space" w a s o space
Ligature2: "sitelen" w a s o
EndChar

StartChar: wawa.t
Encoding: 989557 989557 137
Width: 672
GlyphClass: 1
Flags: MW
LayerCount: 2
Fore
SplineSet
336 394 m 128,-1,1
 287 394 287 394 252.5 359.5 c 128,-1,2
 218 325 218 325 218 276 c 128,-1,3
 218 227 218 227 252.5 192.5 c 128,-1,4
 287 158 287 158 336 158 c 128,-1,5
 385 158 385 158 419.5 192.5 c 128,-1,6
 454 227 454 227 454 276 c 128,-1,7
 454 325 454 325 419.5 359.5 c 128,-1,0
 385 394 385 394 336 394 c 128,-1,1
336 473 m 128,-1,9
 417 473 417 473 475 415 c 128,-1,10
 533 357 533 357 533 276 c 128,-1,11
 533 195 533 195 475 137 c 128,-1,12
 417 79 417 79 336 79 c 128,-1,13
 255 79 255 79 197 137 c 128,-1,14
 139 195 139 195 139 276 c 128,-1,15
 139 357 139 357 197 415 c 128,-1,8
 255 473 255 473 336 473 c 128,-1,9
61 630 m 1,16,-1
 120 236 l 1,17,-1
 40 236 l 1,18,-1
 -19 630 l 1,19,-1
 61 630 l 1,16,-1
611 630 m 1,20,-1
 691 630 l 1,21,-1
 632 236 l 1,22,-1
 552 236 l 1,23,-1
 611 630 l 1,20,-1
EndSplineSet
MultipleSubs2: "cartouched sitelen" wawa.t cartouche.body
Ligature2: "sitelen+-space" w a w a space
Ligature2: "sitelen" w a w a
EndChar

StartChar: weka.t
Encoding: 989558 989558 138
Width: 672
GlyphClass: 1
Flags: MW
LayerCount: 2
Fore
SplineSet
431.5 315 m 1,0,-1
 690.5 56 l 1,1,-1
 634.5 0 l 1,2,-1
 375.5 259 l 1,3,-1
 431.5 315 l 1,0,-1
37.5 709 m 1,4,-1
 296.5 450 l 1,5,-1
 240.5 394 l 1,6,-1
 -18.5 653 l 1,7,-1
 37.5 709 l 1,4,-1
240.5 315 m 1,8,-1
 296.5 259 l 1,9,-1
 37.5 0 l 1,10,-1
 -18.5 56 l 1,11,-1
 240.5 315 l 1,8,-1
634.5 709 m 1,12,-1
 690.5 653 l 1,13,-1
 431.5 394 l 1,14,-1
 375.5 450 l 1,15,-1
 634.5 709 l 1,12,-1
EndSplineSet
MultipleSubs2: "cartouched sitelen" weka.t cartouche.body
Ligature2: "sitelen+-space" w e k a space
Ligature2: "sitelen" w e k a
EndChar

StartChar: wile.t
Encoding: 989559 989559 139
Width: 672
GlyphClass: 1
Flags: MW
LayerCount: 2
Fore
SplineSet
132.564453125 639 m 1,0,-1
 184.564453125 579 l 1,1,2
 134.564453125 535 134.564453125 535 103.564453125 475 c 128,-1,3
 72.564453125 415 72.564453125 415 64.564453125 359 c 0,4,5
 49.564453125 249 49.564453125 249 86.564453125 196 c 0,6,7
 108.564453125 164 108.564453125 164 139.564453125 153.5 c 128,-1,8
 170.564453125 143 170.564453125 143 202.564453125 153 c 0,9,10
 215.564453125 157 215.564453125 157 236.564453125 178 c 0,11,12
 296.564453125 236 296.564453125 236 296.564453125 356 c 1,13,-1
 375.564453125 356 l 1,14,15
 375.564453125 282 375.564453125 282 404.564453125 218 c 0,16,17
 413.564453125 199 413.564453125 199 435.064453125 178 c 128,-1,18
 456.564453125 157 456.564453125 157 469.564453125 153 c 0,19,20
 502.564453125 143 502.564453125 143 532.564453125 153 c 0,21,22
 594.564453125 175 594.564453125 175 608.564453125 266 c 0,23,24
 614.564453125 303 614.564453125 303 606.564453125 359 c 128,-1,25
 598.564453125 415 598.564453125 415 567.564453125 475.5 c 128,-1,26
 536.564453125 536 536.564453125 536 487.564453125 579 c 1,27,-1
 539.564453125 639 l 1,28,29
 599.564453125 586 599.564453125 586 637.064453125 513 c 128,-1,30
 674.564453125 440 674.564453125 440 684.564453125 370 c 128,-1,31
 694.564453125 300 694.564453125 300 684.564453125 243 c 128,-1,32
 674.564453125 186 674.564453125 186 649.564453125 151 c 0,33,34
 611.564453125 97 611.564453125 97 557.064453125 78.5 c 128,-1,35
 502.564453125 60 502.564453125 60 439.564453125 80 c 0,36,37
 413.564453125 88 413.564453125 88 383.064453125 118.5 c 128,-1,38
 352.564453125 149 352.564453125 149 338.564453125 182 c 0,39,40
 336.564453125 186 336.564453125 186 335.564453125 187 c 1,41,42
 334.564453125 186 334.564453125 186 333.564453125 182 c 0,43,44
 318.564453125 149 318.564453125 149 288.564453125 118.5 c 128,-1,45
 258.564453125 88 258.564453125 88 232.564453125 80 c 0,46,47
 169.564453125 60 169.564453125 60 115.064453125 78.5 c 128,-1,48
 60.564453125 97 60.564453125 97 22.564453125 151 c 0,49,50
 -2.435546875 186 -2.435546875 186 -12.435546875 243 c 128,-1,51
 -22.435546875 300 -22.435546875 300 -12.935546875 370 c 128,-1,52
 -3.435546875 440 -3.435546875 440 34.564453125 513 c 128,-1,53
 72.564453125 586 72.564453125 586 132.564453125 639 c 1,0,-1
EndSplineSet
MultipleSubs2: "cartouched sitelen" wile.t cartouche.body
Ligature2: "sitelen+-space" w i l e space
LCarets2: 3 0 0 0
Ligature2: "sitelen" w i l e
EndChar

StartChar: namako.t
Encoding: 989560 989560 140
Width: 672
GlyphClass: 1
Flags: MW
LayerCount: 2
Fore
SplineSet
434.5 473 m 1,0,-1
 512.5 473 l 1,1,2
 512.5 387 512.5 387 482 305 c 128,-1,3
 451.5 223 451.5 223 395 158.5 c 128,-1,4
 338.5 94 338.5 94 261.5 52.5 c 128,-1,5
 184.5 11 184.5 11 99.5 0 c 1,6,7
 158.5 233 158.5 233 158.5 473 c 1,8,-1
 237.5 473 l 1,9,10
 237.5 292 237.5 292 203.5 112 c 1,11,12
 279.5 147 279.5 147 335.5 211 c 0,13,14
 382.5 265 382.5 265 408.5 333 c 128,-1,15
 434.5 401 434.5 401 434.5 473 c 1,0,-1
95.5 709 m 1,16,-1
 178.5 709 l 1,17,-1
 237.5 532 l 1,18,-1
 154.5 532 l 1,19,-1
 95.5 709 l 1,16,-1
296.5 709 m 1,20,-1
 375.5 709 l 1,21,-1
 375.5 532 l 1,22,-1
 296.5 532 l 1,23,-1
 296.5 709 l 1,20,-1
493.5 709 m 1,24,-1
 576.5 709 l 1,25,-1
 517.5 532 l 1,26,-1
 434.5 532 l 1,27,-1
 493.5 709 l 1,24,-1
EndSplineSet
MultipleSubs2: "cartouched sitelen" namako.t cartouche.body
Ligature2: "sitelen" n a m a k o
Ligature2: "sitelen+-space" n a m a k o space
EndChar

StartChar: kin.t
Encoding: 989561 989561 141
Width: 672
GlyphClass: 1
Flags: MW
LayerCount: 2
Fore
SplineSet
297 236 m 1,0,-1
 376 236 l 1,1,-1
 376 186 l 1,2,-1
 436 221 l 1,3,-1
 475 153 l 1,4,-1
 415 118 l 1,5,-1
 475 83 l 1,6,-1
 436 15 l 1,7,-1
 376 50 l 1,8,-1
 376 0 l 1,9,-1
 297 0 l 1,10,-1
 297 50 l 1,11,-1
 237 15 l 1,12,-1
 197 83 l 1,13,-1
 257 118 l 1,14,-1
 197 153 l 1,15,-1
 237 221 l 1,16,-1
 297 186 l 1,17,-1
 297 236 l 1,0,-1
297 295 m 1,18,-1
 297 709 l 1,19,-1
 376 709 l 1,20,-1
 376 295 l 1,21,-1
 297 295 l 1,18,-1
EndSplineSet
MultipleSubs2: "cartouched sitelen" kin.t cartouche.body
Ligature2: "sitelen+-space" k i n space
Ligature2: "sitelen" k i n
EndChar

StartChar: oko.t
Encoding: 989562 989562 142
Width: 672
GlyphClass: 1
Flags: MW
LayerCount: 2
Fore
SplineSet
653.5 699 m 1,0,-1
 690.5 630 l 1,1,-1
 604.5 586 l 1,2,3
 646.5 538 646.5 538 668.5 478 c 128,-1,4
 690.5 418 690.5 418 690.5 354.5 c 128,-1,5
 690.5 291 690.5 291 668 231 c 128,-1,6
 645.5 171 645.5 171 604.5 123 c 1,7,-1
 690.5 79 l 1,8,-1
 653.5 10 l 1,9,-1
 -18.5 354 l 1,10,-1
 653.5 699 l 1,0,-1
531.5 549 m 1,11,-1
 153.5 354 l 1,12,-1
 531.5 160 l 1,13,14
 542.5 171 542.5 171 552.5 184 c 1,15,16
 506.5 210 506.5 210 480.5 256 c 128,-1,17
 454.5 302 454.5 302 453.5 354 c 0,18,19
 453.5 407 453.5 407 480 452.5 c 128,-1,20
 506.5 498 506.5 498 552.5 525 c 1,21,22
 542.5 538 542.5 538 531.5 549 c 1,11,-1
591.5 457 m 1,23,24
 564.5 441 564.5 441 548.5 413.5 c 128,-1,25
 532.5 386 532.5 386 532.5 354.5 c 128,-1,26
 532.5 323 532.5 323 548.5 295.5 c 128,-1,27
 564.5 268 564.5 268 591.5 252 c 1,28,29
 611.5 301 611.5 301 611.5 354.5 c 128,-1,30
 611.5 408 611.5 408 591.5 457 c 1,23,24
EndSplineSet
MultipleSubs2: "cartouched sitelen" oko.t cartouche.body
Ligature2: "sitelen+-space" o k o space
Ligature2: "sitelen" o k o
EndChar

StartChar: kipisi.t
Encoding: 989563 989563 143
Width: 672
GlyphClass: 1
Flags: MW
LayerCount: 2
Fore
SplineSet
493 196.5 m 128,-1,1
 509.5 213 509.5 213 532.5 213 c 128,-1,2
 555.5 213 555.5 213 572 196.5 c 128,-1,3
 588.5 180 588.5 180 588.5 157.5 c 128,-1,4
 588.5 135 588.5 135 572 118.5 c 128,-1,5
 555.5 102 555.5 102 532.5 102 c 128,-1,6
 509.5 102 509.5 102 493 118.5 c 128,-1,7
 476.5 135 476.5 135 476.5 157.5 c 128,-1,0
 476.5 180 476.5 180 493 196.5 c 128,-1,1
99 590.5 m 128,-1,9
 115.5 607 115.5 607 138.5 607 c 128,-1,10
 161.5 607 161.5 607 178 590.5 c 128,-1,11
 194.5 574 194.5 574 194.5 551.5 c 128,-1,12
 194.5 529 194.5 529 178 512 c 128,-1,13
 161.5 495 161.5 495 138.5 495 c 128,-1,14
 115.5 495 115.5 495 99 512 c 128,-1,15
 82.5 529 82.5 529 82.5 551.5 c 128,-1,8
 82.5 574 82.5 574 99 590.5 c 128,-1,9
555.5 630 m 1,16,-1
 611.5 574 l 1,17,-1
 115.5 79 l 1,18,-1
 60.5 134 l 1,19,-1
 555.5 630 l 1,16,-1
EndSplineSet
MultipleSubs2: "cartouched sitelen" kipisi.t cartouche.body
Ligature2: "sitelen+-space" k i p i s i space
Ligature2: "sitelen" k i p i s i
EndChar

StartChar: leko.t
Encoding: 989564 989564 144
Width: 672
GlyphClass: 1
Flags: MW
LayerCount: 2
Fore
SplineSet
256.5 433 m 1,0,-1
 256.5 276 l 1,1,-1
 414.5 276 l 1,2,-1
 414.5 433 l 1,3,-1
 256.5 433 l 1,0,-1
178.5 512 m 1,4,-1
 493.5 512 l 1,5,-1
 493.5 197 l 1,6,-1
 178.5 197 l 1,7,-1
 178.5 512 l 1,4,-1
60.5 630 m 1,8,-1
 60.5 79 l 1,9,-1
 611.5 79 l 1,10,-1
 611.5 630 l 1,11,-1
 60.5 630 l 1,8,-1
-18.5 709 m 1,12,-1
 690.5 709 l 1,13,-1
 690.5 0 l 1,14,-1
 -18.5 0 l 1,15,-1
 -18.5 709 l 1,12,-1
EndSplineSet
MultipleSubs2: "cartouched sitelen" leko.t cartouche.body
Ligature2: "sitelen+-space" l e k o space
Ligature2: "sitelen" l e k o
EndChar

StartChar: monsuta.t
Encoding: 989565 989565 145
Width: 672
GlyphClass: 1
Flags: MW
LayerCount: 2
Fore
SplineSet
247.5 512 m 1,0,-1
 335.5 334 l 1,1,-1
 424.5 512 l 1,2,-1
 525.5 359 l 1,3,-1
 601.5 433 l 1,4,-1
 690.5 354 l 1,5,-1
 637.5 296 l 1,6,-1
 604.5 326 l 1,7,-1
 512.5 236 l 1,8,-1
 434.5 355 l 1,9,-1
 335.5 158 l 1,10,-1
 237.5 355 l 1,11,-1
 158.5 236 l 1,12,-1
 67.5 326 l 1,13,-1
 33.5 296 l 1,14,-1
 -18.5 354 l 1,15,-1
 69.5 433 l 1,16,-1
 145.5 359 l 1,17,-1
 247.5 512 l 1,0,-1
EndSplineSet
MultipleSubs2: "cartouched sitelen" monsuta.t cartouche.body
Ligature2: "sitelen+-space" m o n s u t a space
Ligature2: "sitelen" m o n s u t a
EndChar

StartChar: tonsi.t
Encoding: 989566 989566 146
Width: 672
GlyphClass: 1
Flags: MW
LayerCount: 2
Fore
SplineSet
560.5 554 m 1,0,1
 561.5 552 561.5 552 562.5 551 c 1,2,3
 561.5 553 561.5 553 560.5 554 c 1,0,1
536.5 583 m 1,4,5
 536.5 583 536.5 583 536.5 583 c 1,6,7
 536.5 583 536.5 583 536.5 583 c 1,4,5
335.5 591 m 128,-1,9
 254.5 591 254.5 591 196.5 533 c 128,-1,10
 138.5 475 138.5 475 138.5 394 c 128,-1,11
 138.5 313 138.5 313 196.5 255 c 128,-1,12
 254.5 197 254.5 197 335.5 197 c 128,-1,13
 416.5 197 416.5 197 474.5 255 c 128,-1,14
 532.5 313 532.5 313 532.5 394 c 128,-1,15
 532.5 475 532.5 475 474.5 533 c 128,-1,8
 416.5 591 416.5 591 335.5 591 c 128,-1,9
335.5 118 m 1,16,17
 316.5 118 316.5 118 296.5 121 c 1,18,19
 315.5 118 315.5 118 335.5 118 c 1,16,17
149.5 596 m 1,20,21
 228.5 669 228.5 669 336 669.5 c 128,-1,22
 443.5 670 443.5 670 522.5 597 c 1,23,-1
 634.5 709 l 1,24,-1
 690.5 653 l 1,25,26
 621.5 584 621.5 584 589.5 552 c 2,27,-1
 572.5 535 l 1,28,29
 611.5 470 611.5 470 611.5 394 c 0,30,31
 611.5 291 611.5 291 543.5 213.5 c 128,-1,32
 475.5 136 475.5 136 375.5 121 c 1,33,-1
 375.5 0 l 1,34,-1
 296.5 0 l 1,35,-1
 296.5 121 l 1,36,37
 195.5 136 195.5 136 128 213.5 c 128,-1,38
 60.5 291 60.5 291 60.5 394 c 0,39,40
 60.5 470 60.5 470 99.5 535 c 1,41,-1
 -18.5 653 l 1,42,-1
 36.5 709 l 1,43,-1
 149.5 596 l 1,20,21
EndSplineSet
MultipleSubs2: "cartouched sitelen" tonsi.t cartouche.body
Ligature2: "sitelen+-space" t o n s i space
Ligature2: "sitelen" t o n s i
EndChar

StartChar: jasima.t
Encoding: 989567 989567 147
Width: 672
GlyphClass: 1
Flags: MW
LayerCount: 2
Fore
SplineSet
296.5 709 m 1,0,-1
 375.5 709 l 1,1,-1
 375.5 532 l 1,2,-1
 422.5 496 l 2,3,4
 453.5 472 453.5 472 498 472.5 c 128,-1,5
 542.5 473 542.5 473 577 507.5 c 128,-1,6
 611.5 542 611.5 542 611.5 591 c 1,7,-1
 690.5 591 l 1,8,9
 690.5 509 690.5 509 632.5 451.5 c 128,-1,10
 574.5 394 574.5 394 501 394 c 128,-1,11
 427.5 394 427.5 394 375.5 433 c 1,12,-1
 375.5 217 l 1,13,-1
 422.5 181 l 2,14,15
 453.5 157 453.5 157 498 157.5 c 128,-1,16
 542.5 158 542.5 158 577 192.5 c 128,-1,17
 611.5 227 611.5 227 611.5 276 c 1,18,-1
 690.5 276 l 1,19,20
 690.5 194 690.5 194 632.5 136.5 c 128,-1,21
 574.5 79 574.5 79 501 79 c 128,-1,22
 427.5 79 427.5 79 375.5 118 c 1,23,-1
 375.5 0 l 1,24,-1
 296.5 0 l 1,25,-1
 296.5 177 l 1,26,-1
 249.5 213 l 2,27,28
 218.5 237 218.5 237 174 236.5 c 128,-1,29
 129.5 236 129.5 236 95 201.5 c 128,-1,30
 60.5 167 60.5 167 60.5 118 c 1,31,-1
 -18.5 118 l 1,32,33
 -18.5 200 -18.5 200 39 257.5 c 128,-1,34
 96.5 315 96.5 315 170 315 c 128,-1,35
 243.5 315 243.5 315 296.5 276 c 1,36,-1
 296.5 492 l 1,37,-1
 249.5 528 l 2,38,39
 218.5 552 218.5 552 174 551.5 c 128,-1,40
 129.5 551 129.5 551 95 516.5 c 128,-1,41
 60.5 482 60.5 482 60.5 433 c 1,42,-1
 -18.5 433 l 1,43,44
 -18.5 515 -18.5 515 39 572.5 c 128,-1,45
 96.5 630 96.5 630 170 630 c 128,-1,46
 243.5 630 243.5 630 296.5 591 c 1,47,-1
 296.5 709 l 1,0,-1
EndSplineSet
MultipleSubs2: "cartouched sitelen" jasima.t cartouche.body
Ligature2: "sitelen+-space" j a s i m a space
Ligature2: "sitelen" j a s i m a
EndChar

StartChar: kijetesantakalu.t
Encoding: 989568 989568 148
Width: 672
GlyphClass: 1
Flags: MW
LayerCount: 2
Fore
SplineSet
176.016601562 224.016601562 m 1,0,-1
 176.03515625 287.982421875 l 2,1,2
 176.028320312 394.024414062 176.028320312 394.024414062 251.0078125 469.01171875 c 128,-1,3
 325.986328125 543.999023438 325.986328125 543.999023438 432.02734375 543.999023438 c 2,4,-1
 528.008789062 543.999023438 l 1,5,-1
 528.008789062 448.006835938 l 1,6,-1
 585.215820312 371.73828125 l 1,7,-1
 623.991210938 319.998046875 l 1,8,-1
 560.010742188 256.018554688 l 1,9,-1
 560.010742188 -32 l 1,10,-1
 496.006835938 -32 l 1,11,-1
 496.006835938 282.505859375 l 1,12,-1
 539.499023438 326.021484375 l 1,13,-1
 464.004882812 426.671875 l 1,14,-1
 464.004882812 479.995117188 l 1,15,-1
 432.002929688 479.995117188 l 2,16,17
 352.463867188 479.995117188 352.463867188 479.995117188 296.21875 423.762695312 c 128,-1,18
 239.97265625 367.529296875 239.97265625 367.529296875 239.97265625 287.99609375 c 2,19,-1
 239.97265625 32.0048828125 l 1,20,-1
 298.4375 32.0048828125 l 1,21,-1
 287.793945312 160.012695312 l 1,22,-1
 352.015625 160.012695312 l 1,23,-1
 367.98046875 -32 l 1,24,-1
 176.016601562 -32 l 2,25,26
 122.993164062 -32.0029296875 122.993164062 -32.0029296875 85.5009765625 5.490234375 c 128,-1,27
 48.0087890625 42.9833984375 48.0087890625 42.9833984375 48.0087890625 96.0087890625 c 128,-1,28
 48.005859375 149.032226562 48.005859375 149.032226562 85.4990234375 186.524414062 c 128,-1,29
 122.9921875 224.016601562 122.9921875 224.016601562 176.016601562 224.016601562 c 1,0,-1
449.666992188 371.98046875 m 0,30,31
 470.48046875 371.092773438 470.48046875 371.092773438 480.072265625 352.653320312 c 0,32,33
 486.973632812 339.4375 486.973632812 339.4375 482.510742188 325.211914062 c 128,-1,34
 478.047851562 310.986328125 478.047851562 310.986328125 464.833007812 304.08203125 c 128,-1,35
 451.62109375 297.193359375 451.62109375 297.193359375 437.40625 301.655273438 c 128,-1,36
 423.190429688 306.118164062 423.190429688 306.118164062 416.286132812 319.321289062 c 128,-1,37
 409.397460938 332.533203125 409.397460938 332.533203125 413.859375 346.748046875 c 128,-1,38
 418.322265625 360.963867188 418.322265625 360.963867188 431.525390625 367.868164062 c 0,39,40
 440.044921875 372.350585938 440.044921875 372.350585938 449.666992188 371.98046875 c 0,30,31
361.666992188 339.978515625 m 0,41,42
 382.479492188 339.06640625 382.479492188 339.06640625 392.073242188 320.626953125 c 0,43,44
 398.961914062 307.415039062 398.961914062 307.415039062 394.5 293.200195312 c 128,-1,45
 390.037109375 278.984375 390.037109375 278.984375 376.833984375 272.080078125 c 128,-1,46
 363.622070312 265.19140625 363.622070312 265.19140625 349.40625 269.653320312 c 128,-1,47
 335.190429688 274.116210938 335.190429688 274.116210938 328.286132812 287.319335938 c 128,-1,48
 321.397460938 300.53125 321.397460938 300.53125 325.859375 314.74609375 c 128,-1,49
 330.322265625 328.961914062 330.322265625 328.961914062 343.525390625 335.866210938 c 0,50,51
 352.046875 340.348632812 352.046875 340.348632812 361.666992188 339.978515625 c 0,41,42
176.08984375 160.012695312 m 1,52,53
 149.577148438 160.014648438 149.577148438 160.014648438 130.831054688 141.267578125 c 128,-1,54
 112.083984375 122.520507812 112.083984375 122.520507812 112.0859375 96.0087890625 c 128,-1,55
 112.083984375 69.4970703125 112.083984375 69.4970703125 130.831054688 50.75 c 128,-1,56
 149.578125 32.0029296875 149.578125 32.0029296875 176.08984375 32.0048828125 c 1,57,-1
 176.08984375 160.012695312 l 1,52,53
400.079101562 160.012695312 m 1,58,-1
 464.083984375 160.012695312 l 1,59,-1
 464.083984375 -32 l 1,60,-1
 400.079101562 -32 l 1,61,-1
 400.079101562 160.012695312 l 1,58,-1
EndSplineSet
LCarets2: 15 0 0 0 0 0 0 0 0 0 0 0 0 0 0 0
MultipleSubs2: "cartouched sitelen" kijetesantakalu.t cartouche.body
Ligature2: "sitelen+-space" k i j e t e s a n t a k a l u space
Ligature2: "sitelen" k i j e t e s a n t a k a l u
EndChar

StartChar: cartouche.start
Encoding: 989584 989584 150
Width: 866
GlyphClass: 2
Flags: MW
LayerCount: 2
Fore
SplineSet
551 866 m 2,0,-1
 945 866 l 1,1,-1
 945 788 l 1,2,-1
 551 788 l 2,3,4
 518 788 518 788 495.5 765 c 128,-1,5
 473 742 473 742 473 709 c 2,6,-1
 473 0 l 2,7,8
 473 -33 473 -33 496 -56 c 128,-1,9
 519 -79 519 -79 551 -79 c 2,10,-1
 945 -79 l 1,11,-1
 945 -158 l 1,12,-1
 551 -158 l 2,13,14
 486 -158 486 -158 440 -111.5 c 128,-1,15
 394 -65 394 -65 394 0 c 2,16,-1
 394 709 l 2,17,18
 394 774 394 774 440 820 c 128,-1,19
 486 866 486 866 551 866 c 2,0,-1
EndSplineSet
LCarets2: 1 0
Ligature2: "sitelen" bracketleft
Ligature2: "sitelen+-space" bracketleft space
EndChar

StartChar: cartouche.end
Encoding: 989585 989585 151
Width: 866
GlyphClass: 2
Flags: MW
LayerCount: 2
Fore
SplineSet
315 866 m 2,0,1
 380 866 380 866 426.5 820 c 128,-1,2
 473 774 473 774 473 709 c 2,3,-1
 473 -0 l 2,4,5
 473 -65 473 -65 426.5 -111.5 c 128,-1,6
 380 -158 380 -158 315 -158 c 2,7,-1
 79 -158 l 1,8,-1
 -0 -118 l 1,9,-1
 79 -79 l 1,10,-1
 315 -79 l 2,11,12
 348 -79 348 -79 371 -56 c 128,-1,13
 394 -33 394 -33 394 -0 c 2,14,-1
 394 709 l 2,15,16
 394 742 394 742 371 765 c 128,-1,17
 348 788 348 788 315 788 c 2,18,-1
 79 788 l 1,19,-1
 -0 827 l 1,20,-1
 79 866 l 1,21,-1
 315 866 l 2,0,1
EndSplineSet
Ligature2: "sitelen" bracketright
EndChar

StartChar: cartouche.body
Encoding: 989586 989586 152
Width: 0
GlyphClass: 2
Flags: MW
LayerCount: 2
Fore
SplineSet
-788 -79 m 1,0,-1
 79 -79 l 1,1,-1
 79 -158 l 1,2,-1
 -788 -158 l 1,3,-1
 -866 -118 l 1,4,-1
 -788 -79 l 1,0,-1
-788 866 m 1,5,-1
 79 866 l 1,6,-1
 79 788 l 1,7,-1
 -788 788 l 1,8,-1
 -866 827 l 1,9,-1
 -788 866 l 1,5,-1
EndSplineSet
EndChar

StartChar: period
Encoding: 46 46 153
Width: 866
Flags: MW
LayerCount: 2
Fore
SplineSet
433.5 433 m 128,-1,1
 466 433 466 433 489 410 c 128,-1,2
 512 387 512 387 512 354.5 c 128,-1,3
 512 322 512 322 489 299 c 128,-1,4
 466 276 466 276 433.5 276 c 128,-1,5
 401 276 401 276 377.5 299 c 128,-1,6
 354 322 354 322 354 354.5 c 128,-1,7
 354 387 354 387 377.5 410 c 128,-1,0
 401 433 401 433 433.5 433 c 128,-1,1
EndSplineSet
MultipleSubs2: "cartouched sitelen" period cartouche.body
LCarets2: 1 0
Ligature2: "sitelen+-space" period space
EndChar

StartChar: comma
Encoding: 44 44 154
Width: 866
Flags: MW
LayerCount: 2
Fore
SplineSet
433.5 158 m 128,-1,1
 466 158 466 158 489 134.5 c 128,-1,2
 512 111 512 111 512 79 c 0,3,4
 512 33 512 33 491 -9 c 128,-1,5
 470 -51 470 -51 433 -79 c 1,6,-1
 433 0 l 1,7,8
 400 0 400 0 377 23 c 128,-1,9
 354 46 354 46 354 78.5 c 128,-1,10
 354 111 354 111 377.5 134.5 c 128,-1,0
 401 158 401 158 433.5 158 c 128,-1,1
EndSplineSet
EndChar

StartChar: colon
Encoding: 58 58 155
Width: 866
Flags: MW
LayerCount: 2
Fore
SplineSet
512 177.5 m 128,-1,1
 512 145 512 145 489 121.5 c 128,-1,2
 466 98 466 98 433.5 98 c 128,-1,3
 401 98 401 98 377.5 121.5 c 128,-1,4
 354 145 354 145 354 177.5 c 128,-1,5
 354 210 354 210 377.5 233 c 128,-1,6
 401 256 401 256 433.5 256 c 128,-1,7
 466 256 466 256 489 233 c 128,-1,0
 512 210 512 210 512 177.5 c 128,-1,1
512 531.5 m 128,-1,9
 512 499 512 499 489 476 c 128,-1,10
 466 453 466 453 433.5 453 c 128,-1,11
 401 453 401 453 377.5 476 c 128,-1,12
 354 499 354 499 354 531.5 c 128,-1,13
 354 564 354 564 377.5 587 c 128,-1,14
 401 610 401 610 433.5 610 c 128,-1,15
 466 610 466 610 489 587 c 128,-1,8
 512 564 512 564 512 531.5 c 128,-1,9
EndSplineSet
MultipleSubs2: "cartouched sitelen" colon cartouche.body
EndChar

StartChar: periodcentered
Encoding: 183 183 156
Width: 866
Flags: MW
LayerCount: 2
Fore
SplineSet
433.5 433 m 128,-1,1
 466 433 466 433 489 410 c 128,-1,2
 512 387 512 387 512 354.5 c 128,-1,3
 512 322 512 322 489 299 c 128,-1,4
 466 276 466 276 433.5 276 c 128,-1,5
 401 276 401 276 377.5 299 c 128,-1,6
 354 322 354 322 354 354.5 c 128,-1,7
 354 387 354 387 377.5 410 c 128,-1,0
 401 433 401 433 433.5 433 c 128,-1,1
EndSplineSet
MultipleSubs2: "cartouched sitelen" periodcentered cartouche.body
EndChar

StartChar: dotdot
Encoding: 1114115 -1 157
Width: 866
Flags: MW
LayerCount: 2
Fore
SplineSet
670 354.5 m 128,-1,1
 670 322 670 322 646.5 299 c 128,-1,2
 623 276 623 276 590.5 276 c 128,-1,3
 558 276 558 276 535 299 c 128,-1,4
 512 322 512 322 512 354.5 c 128,-1,5
 512 387 512 387 535 410 c 128,-1,6
 558 433 558 433 590.5 433 c 128,-1,7
 623 433 623 433 646.5 410 c 128,-1,0
 670 387 670 387 670 354.5 c 128,-1,1
354 354.5 m 128,-1,9
 354 322 354 322 331 299.5 c 128,-1,10
 308 277 308 277 275.5 277 c 128,-1,11
 243 277 243 277 220.5 299.5 c 128,-1,12
 198 322 198 322 198 354.5 c 128,-1,13
 198 387 198 387 220.5 409.5 c 128,-1,14
 243 432 243 432 275.5 432 c 128,-1,15
 308 432 308 432 331 409.5 c 128,-1,8
 354 387 354 387 354 354.5 c 128,-1,9
EndSplineSet
MultipleSubs2: "cartouched sitelen" dotdot cartouche.body
Ligature2: "sitelen+-space" periodcentered periodcentered space
Ligature2: "sitelen+-space" dot dot space
Ligature2: "sitelen" periodcentered periodcentered
Ligature2: "sitelen" dot dot
LCarets2: 2 0 0
Ligature2: "sitelen+-space" period period space
Ligature2: "sitelen" period period
EndChar

StartChar: dotdotdot
Encoding: 1114116 -1 158
Width: 866
Flags: MW
LayerCount: 2
Fore
SplineSet
256 354.5 m 128,-1,1
 256 322 256 322 233 299 c 128,-1,2
 210 276 210 276 177.5 276 c 128,-1,3
 145 276 145 276 121.5 299 c 128,-1,4
 98 322 98 322 98 354.5 c 128,-1,5
 98 387 98 387 121.5 410 c 128,-1,6
 145 433 145 433 177.5 433 c 128,-1,7
 210 433 210 433 233 410 c 128,-1,0
 256 387 256 387 256 354.5 c 128,-1,1
768 354.5 m 128,-1,9
 768 322 768 322 745 299 c 128,-1,10
 722 276 722 276 689.5 276 c 128,-1,11
 657 276 657 276 633.5 299 c 128,-1,12
 610 322 610 322 610 354.5 c 128,-1,13
 610 387 610 387 633.5 410 c 128,-1,14
 657 433 657 433 689.5 433 c 128,-1,15
 722 433 722 433 745 410 c 128,-1,8
 768 387 768 387 768 354.5 c 128,-1,9
512 354.5 m 128,-1,17
 512 322 512 322 489 299 c 128,-1,18
 466 276 466 276 433.5 276 c 128,-1,19
 401 276 401 276 377.5 299 c 128,-1,20
 354 322 354 322 354 354.5 c 128,-1,21
 354 387 354 387 377.5 410 c 128,-1,22
 401 433 401 433 433.5 433 c 128,-1,23
 466 433 466 433 489 410 c 128,-1,16
 512 387 512 387 512 354.5 c 128,-1,17
EndSplineSet
MultipleSubs2: "cartouched sitelen" dotdotdot cartouche.body
Ligature2: "sitelen+-space" periodcentered periodcentered periodcentered space
Ligature2: "sitelen+-space" dot dot dot space
Ligature2: "sitelen" periodcentered periodcentered periodcentered
Ligature2: "sitelen" dot dot dot
Ligature2: "sitelen+-space" period period period space
Ligature2: "sitelen" period period period
EndChar

StartChar: n.t
Encoding: 989574 989574 159
Width: 672
Flags: MW
LayerCount: 2
Fore
SplineSet
218 236 m 1,0,-1
 297 236 l 1,1,2
 297 229 297 229 297 229 c 1,3,4
 316 236 316 236 336 236 c 0,5,6
 385 236 385 236 419.5 201.5 c 128,-1,7
 454 167 454 167 454 118 c 2,8,-1
 454 0 l 1,9,-1
 376 0 l 1,10,11
 376 118 376 118 376 118 c 1,12,13
 376 134 376 134 364.5 146 c 128,-1,14
 353 158 353 158 336.5 158 c 128,-1,15
 320 158 320 158 308.5 146 c 128,-1,16
 297 134 297 134 297 118 c 2,17,-1
 297 0 l 1,18,-1
 218 0 l 1,19,-1
 218 118 l 1,20,-1
 218 236 l 1,0,-1
297 295 m 1,21,-1
 297 709 l 1,22,-1
 376 709 l 1,23,-1
 376 295 l 1,24,-1
 297 295 l 1,21,-1
EndSplineSet
MultipleSubs2: "cartouched sitelen" n.t cartouche.body
Ligature2: "sitelen" n
Ligature2: "sitelen+-space" n space
EndChar

StartChar: dot
Encoding: 989596 989596 160
Width: 866
Flags: MW
LayerCount: 2
Fore
SplineSet
433.5 433 m 128,-1,1
 466 433 466 433 489 410 c 128,-1,2
 512 387 512 387 512 354.5 c 128,-1,3
 512 322 512 322 489 299 c 128,-1,4
 466 276 466 276 433.5 276 c 128,-1,5
 401 276 401 276 377.5 299 c 128,-1,6
 354 322 354 322 354 354.5 c 128,-1,7
 354 387 354 387 377.5 410 c 128,-1,0
 401 433 401 433 433.5 433 c 128,-1,1
EndSplineSet
MultipleSubs2: "cartouched sitelen" dot cartouche.body
EndChar

StartChar: colon.t
Encoding: 989597 989597 161
Width: 866
Flags: MW
LayerCount: 2
Fore
SplineSet
512 177.5 m 128,-1,1
 512 145 512 145 489 121.5 c 128,-1,2
 466 98 466 98 433.5 98 c 128,-1,3
 401 98 401 98 377.5 121.5 c 128,-1,4
 354 145 354 145 354 177.5 c 128,-1,5
 354 210 354 210 377.5 233 c 128,-1,6
 401 256 401 256 433.5 256 c 128,-1,7
 466 256 466 256 489 233 c 128,-1,0
 512 210 512 210 512 177.5 c 128,-1,1
512 531.5 m 128,-1,9
 512 499 512 499 489 476 c 128,-1,10
 466 453 466 453 433.5 453 c 128,-1,11
 401 453 401 453 377.5 476 c 128,-1,12
 354 499 354 499 354 531.5 c 128,-1,13
 354 564 354 564 377.5 587 c 128,-1,14
 401 610 401 610 433.5 610 c 128,-1,15
 466 610 466 610 489 587 c 128,-1,8
 512 564 512 564 512 531.5 c 128,-1,9
EndSplineSet
MultipleSubs2: "cartouched sitelen" colon.t cartouche.body
EndChar

StartChar: hyphen
Encoding: 45 45 163
Width: 866
Flags: MW
LayerCount: 2
Fore
SplineSet
158 315 m 1,0,-1
 158 394 l 1,1,-1
 709 394 l 1,2,-1
 709 315 l 1,3,-1
 158 315 l 1,0,-1
EndSplineSet
EndChar

StartChar: A
Encoding: 65 65 165
Width: 866
Flags: MW
LayerCount: 2
Fore
SplineSet
475 709 m 5,0,-1
 709 0 l 1,1,-1
 626 0 l 1,2,-1
 548 236 l 1,3,-1
 319 236 l 1,4,-1
 240 0 l 1,5,-1
 158 0 l 1,6,-1
 392 709 l 5,7,-1
 475 709 l 5,0,-1
345 315 m 1,8,-1
 522 315 l 1,9,-1
 433 583 l 1,10,-1
 345 315 l 1,8,-1
EndSplineSet
MultipleSubs2: "cartouched sitelen" A cartouche.body
EndChar

StartChar: B
Encoding: 66 66 166
Width: 866
Flags: MW
LayerCount: 2
Fore
SplineSet
295 315 m 1,0,-1
 295 79 l 1,1,-1
 453 79 l 2,2,3
 502 79 502 79 536.5 113.5 c 128,-1,4
 571 148 571 148 571 197 c 128,-1,5
 571 246 571 246 536.5 280.5 c 128,-1,6
 502 315 502 315 453 315 c 2,7,-1
 295 315 l 1,0,-1
295 630 m 1,8,-1
 295 394 l 1,9,-1
 394 394 l 2,10,11
 443 394 443 394 477.5 428.5 c 128,-1,12
 512 463 512 463 512 512 c 128,-1,13
 512 561 512 561 477.5 595.5 c 128,-1,14
 443 630 443 630 394 630 c 2,15,-1
 295 630 l 1,8,-1
217 709 m 5,16,17
 217 709 217 709 394 709 c 5,18,19
 476 709 476 709 533.5 651.5 c 128,-1,20
 591 594 591 594 591 513.5 c 128,-1,21
 591 433 591 433 536 376 c 1,22,23
 588 352 588 352 619 303 c 128,-1,24
 650 254 650 254 650 197 c 0,25,26
 650 115 650 115 592 57.5 c 128,-1,27
 534 0 534 0 453 0 c 2,28,-1
 217 0 l 1,29,-1
 217 709 l 5,16,17
EndSplineSet
MultipleSubs2: "cartouched sitelen" B cartouche.body
EndChar

StartChar: C
Encoding: 67 67 167
Width: 866
Flags: MW
LayerCount: 2
Fore
SplineSet
433 709 m 0,0,1
 520 709 520 709 586 652.5 c 128,-1,2
 652 596 652 596 666 512 c 1,3,4
 585 512 585 512 585 512 c 1,5,6
 572 563 572 563 529.5 596.5 c 128,-1,7
 487 630 487 630 433 630 c 0,8,9
 368 630 368 630 322 584 c 128,-1,10
 276 538 276 538 276 473 c 2,11,-1
 276 256 l 2,12,13
 276 191 276 191 322 144.5 c 128,-1,14
 368 98 368 98 433 98 c 0,15,16
 482 98 482 98 521.5 125.5 c 128,-1,17
 561 153 561 153 579 197 c 1,18,19
 584 197 584 197 593 197 c 128,-1,20
 602 197 602 197 620 197 c 128,-1,21
 638 197 638 197 650 197 c 2,22,-1
 662 197 l 1,23,24
 642 120 642 120 578.5 70 c 128,-1,25
 515 20 515 20 433 20 c 0,26,27
 341 20 341 20 273.5 82.5 c 128,-1,28
 206 145 206 145 198 236 c 1,29,-1
 197 236 l 1,30,-1
 197 473 l 2,31,32
 197 571 197 571 266 640 c 128,-1,33
 335 709 335 709 433 709 c 0,0,1
EndSplineSet
MultipleSubs2: "cartouched sitelen" C cartouche.body
EndChar

StartChar: D
Encoding: 68 68 168
Width: 866
Flags: MW
LayerCount: 2
Fore
SplineSet
276 630 m 1,0,-1
 276 79 l 1,1,-1
 315 79 l 2,2,3
 390 79 390 79 453.5 116 c 128,-1,4
 517 153 517 153 554 216.5 c 128,-1,5
 591 280 591 280 591 354.5 c 128,-1,6
 591 429 591 429 554 492.5 c 128,-1,7
 517 556 517 556 453.5 593 c 128,-1,8
 390 630 390 630 315 630 c 2,9,-1
 276 630 l 1,0,-1
197 709 m 1,10,-1
 315 709 l 2,11,12
 387 709 387 709 452.5 681 c 128,-1,13
 518 653 518 653 565.5 605.5 c 128,-1,14
 613 558 613 558 641.5 492.5 c 128,-1,15
 670 427 670 427 670 354.5 c 128,-1,16
 670 282 670 282 641.5 216.5 c 128,-1,17
 613 151 613 151 565.5 103.5 c 128,-1,18
 518 56 518 56 452.5 28 c 128,-1,19
 387 0 387 0 315 0 c 2,20,-1
 197 0 l 1,21,-1
 197 709 l 1,10,-1
EndSplineSet
MultipleSubs2: "cartouched sitelen" D cartouche.body
EndChar

StartChar: E
Encoding: 69 69 169
Width: 866
Flags: MW
LayerCount: 2
Fore
SplineSet
670 709 m 1,0,-1
 670 630 l 1,1,-1
 276 630 l 1,2,-1
 276 394 l 1,3,-1
 591 394 l 1,4,-1
 591 315 l 1,5,-1
 276 315 l 1,6,-1
 276 79 l 1,7,-1
 670 79 l 1,8,-1
 670 0 l 1,9,-1
 197 0 l 1,10,-1
 197 709 l 1,11,-1
 670 709 l 1,0,-1
EndSplineSet
MultipleSubs2: "cartouched sitelen" E cartouche.body
EndChar

StartChar: F
Encoding: 70 70 170
Width: 866
Flags: MW
LayerCount: 2
Fore
SplineSet
197 709 m 5,0,-1
 670 709 l 1,1,-1
 670 630 l 1,2,-1
 276 630 l 1,3,-1
 276 394 l 1,4,-1
 591 394 l 1,5,-1
 591 315 l 1,6,-1
 276 315 l 1,7,-1
 276 0 l 1,8,-1
 197 0 l 5,9,-1
 197 709 l 5,0,-1
EndSplineSet
MultipleSubs2: "cartouched sitelen" F cartouche.body
EndChar

StartChar: G
Encoding: 71 71 171
Width: 866
Flags: MW
LayerCount: 2
Fore
SplineSet
630 83 m 1,0,1
 549 0 549 0 433 0 c 0,2,3
 358 0 358 0 294.5 37 c 128,-1,4
 231 74 231 74 194.5 137.5 c 128,-1,5
 158 201 158 201 158 276 c 2,6,-1
 158 433 l 2,7,8
 158 508 158 508 194.5 571.5 c 128,-1,9
 231 635 231 635 294.5 672 c 128,-1,10
 358 709 358 709 442 709 c 128,-1,11
 526 709 526 709 598.5 653.5 c 128,-1,12
 671 598 671 598 697 512 c 1,13,14
 613 512 613 512 613 512 c 0,15,16
 590 565 590 565 541.5 597.5 c 128,-1,17
 493 630 493 630 433 630 c 0,18,19
 351 630 351 630 293.5 572.5 c 128,-1,20
 236 515 236 515 236 433 c 0,21,22
 236 275 236 275 236 276 c 1,23,24
 236 194 236 194 294 136.5 c 128,-1,25
 352 79 352 79 433.5 79 c 128,-1,26
 515 79 515 79 572.5 136.5 c 128,-1,27
 630 194 630 194 630 276 c 2,28,-1
 630 315 l 1,29,-1
 394 315 l 1,30,-1
 394 394 l 5,31,32
 394 394 394 394 709 394 c 5,33,34
 709 394 709 394 709 0 c 1,35,-1
 630 0 l 1,36,37
 630 48 630 48 630 71 c 2,38,-1
 630 83 l 1,0,1
EndSplineSet
MultipleSubs2: "cartouched sitelen" G cartouche.body
EndChar

StartChar: H
Encoding: 72 72 172
Width: 866
Flags: MW
LayerCount: 2
Fore
SplineSet
197 709 m 1,0,-1
 276 709 l 1,1,-1
 276 394 l 1,2,-1
 591 394 l 1,3,-1
 591 709 l 1,4,-1
 670 709 l 1,5,-1
 670 0 l 1,6,-1
 591 0 l 1,7,-1
 591 315 l 1,8,-1
 276 315 l 1,9,-1
 276 0 l 1,10,-1
 197 0 l 1,11,-1
 197 709 l 1,0,-1
EndSplineSet
MultipleSubs2: "cartouched sitelen" H cartouche.body
EndChar

StartChar: I
Encoding: 73 73 173
Width: 866
Flags: MW
LayerCount: 2
Fore
SplineSet
276 709 m 1,0,1
 276 709 276 709 591 709 c 1,2,-1
 591 630 l 1,3,-1
 473 630 l 1,4,-1
 473 79 l 1,5,-1
 591 79 l 1,6,-1
 591 0 l 1,7,8
 591 0 591 0 276 -0 c 5,9,-1
 276 79 l 1,10,-1
 394 79 l 1,11,-1
 394 630 l 1,12,-1
 276 630 l 1,13,-1
 276 709 l 1,0,1
EndSplineSet
MultipleSubs2: "cartouched sitelen" I cartouche.body
EndChar

StartChar: J
Encoding: 74 74 174
Width: 866
Flags: MW
LayerCount: 2
Fore
SplineSet
394 709 m 1,0,1
 394 709 394 709 670 709 c 5,2,3
 670 709 670 709 670 236 c 5,4,5
 670 138 670 138 600.5 69 c 128,-1,6
 531 0 531 0 433 0 c 128,-1,7
 335 0 335 0 266 69 c 128,-1,8
 197 138 197 138 197 236 c 1,9,10
 276 236 276 236 276 236 c 1,11,12
 276 171 276 171 322 125 c 128,-1,13
 368 79 368 79 433 79 c 128,-1,14
 498 79 498 79 544.5 125 c 128,-1,15
 591 171 591 171 591 236 c 2,16,-1
 591 630 l 1,17,-1
 394 630 l 1,18,-1
 394 709 l 1,0,1
EndSplineSet
MultipleSubs2: "cartouched sitelen" J cartouche.body
EndChar

StartChar: K
Encoding: 75 75 175
Width: 866
Flags: MW
LayerCount: 2
Fore
SplineSet
197 709 m 1,0,-1
 276 709 l 1,1,-1
 276 359 l 1,2,-1
 567 709 l 1,3,-1
 670 709 l 1,4,-1
 433 425 l 1,5,-1
 670 0 l 1,6,-1
 579 0 l 1,7,-1
 379 360 l 1,8,-1
 276 236 l 1,9,-1
 276 0 l 1,10,-1
 197 0 l 1,11,-1
 197 709 l 1,0,-1
EndSplineSet
MultipleSubs2: "cartouched sitelen" K cartouche.body
EndChar

StartChar: L
Encoding: 76 76 176
Width: 866
Flags: MW
LayerCount: 2
Fore
SplineSet
197 709 m 1,0,-1
 276 709 l 1,1,-1
 276 79 l 1,2,-1
 670 79 l 1,3,-1
 670 0 l 1,4,5
 670 0 670 0 197 0 c 1,6,-1
 197 709 l 1,0,-1
EndSplineSet
MultipleSubs2: "cartouched sitelen" L cartouche.body
EndChar

StartChar: M
Encoding: 77 77 177
Width: 866
Flags: MW
LayerCount: 2
Fore
SplineSet
158 709 m 1,0,-1
 236 709 l 1,1,-1
 433 354 l 1,2,-1
 630 709 l 1,3,-1
 709 709 l 1,4,-1
 709 0 l 1,5,-1
 630 0 l 1,6,-1
 630 547 l 1,7,-1
 433 192 l 1,8,-1
 236 547 l 1,9,-1
 236 0 l 1,10,-1
 158 0 l 1,11,-1
 158 709 l 1,0,-1
EndSplineSet
MultipleSubs2: "cartouched sitelen" M cartouche.body
EndChar

StartChar: N
Encoding: 78 78 178
Width: 866
Flags: MW
LayerCount: 2
Fore
SplineSet
197 709 m 1,0,-1
 276 709 l 1,1,-1
 591 159 l 1,2,-1
 591 709 l 1,3,-1
 670 709 l 1,4,-1
 670 0 l 1,5,-1
 591 0 l 1,6,-1
 276 550 l 1,7,-1
 276 0 l 1,8,-1
 197 0 l 1,9,-1
 197 709 l 1,0,-1
EndSplineSet
MultipleSubs2: "cartouched sitelen" N cartouche.body
EndChar

StartChar: O
Encoding: 79 79 179
Width: 866
Flags: MW
LayerCount: 2
Fore
SplineSet
591 236 m 0,0,1
 591 374 591 374 591 438 c 2,2,-1
 591 473 l 2,3,4
 591 538 591 538 544.5 584 c 128,-1,5
 498 630 498 630 433 630 c 128,-1,6
 368 630 368 630 322 584 c 128,-1,7
 276 538 276 538 276 473 c 2,8,-1
 276 236 l 2,9,10
 276 171 276 171 322 125 c 128,-1,11
 368 79 368 79 433 79 c 128,-1,12
 498 79 498 79 544.5 125 c 128,-1,13
 591 171 591 171 591 236 c 0,0,1
670 473 m 0,14,15
 670 335 670 335 670 271 c 2,16,-1
 670 236 l 2,17,18
 670 138 670 138 600.5 69 c 128,-1,19
 531 0 531 0 433 0 c 128,-1,20
 335 0 335 0 266 69 c 128,-1,21
 197 138 197 138 197 236 c 2,22,-1
 197 473 l 2,23,24
 197 571 197 571 266 640 c 128,-1,25
 335 709 335 709 433 709 c 128,-1,26
 531 709 531 709 600.5 640 c 128,-1,27
 670 571 670 571 670 473 c 0,14,15
EndSplineSet
MultipleSubs2: "cartouched sitelen" O cartouche.body
EndChar

StartChar: P
Encoding: 80 80 180
Width: 866
Flags: MW
LayerCount: 2
Fore
SplineSet
276 630 m 1,0,-1
 276 354 l 1,1,2
 408 354 408 354 453 354 c 4,3,4
 510 354 510 354 550.5 394.5 c 128,-1,5
 591 435 591 435 591 492 c 128,-1,6
 591 549 591 549 550.5 589.5 c 128,-1,7
 510 630 510 630 453 630 c 2,8,-1
 276 630 l 1,0,-1
197 709 m 1,9,10
 197 709 197 709 453 709 c 1,11,12
 543 709 543 709 606.5 645.5 c 128,-1,13
 670 582 670 582 670 492.5 c 128,-1,14
 670 403 670 403 606.5 339.5 c 128,-1,15
 543 276 543 276 453 276 c 2,16,-1
 276 276 l 1,17,-1
 276 0 l 1,18,-1
 197 0 l 1,19,-1
 197 709 l 1,9,10
EndSplineSet
MultipleSubs2: "cartouched sitelen" P cartouche.body
EndChar

StartChar: Q
Encoding: 81 81 181
Width: 866
Flags: MW
LayerCount: 2
Fore
SplineSet
591 236 m 4,0,1
 591 412 591 412 591 473 c 4,2,3
 591 538 591 538 544.5 584 c 128,-1,4
 498 630 498 630 433 630 c 128,-1,5
 368 630 368 630 322 584 c 128,-1,6
 276 538 276 538 276 473 c 2,7,-1
 276 236 l 2,8,9
 276 171 276 171 322 125 c 128,-1,10
 368 79 368 79 433 79 c 0,11,12
 479 79 479 79 516 102 c 1,13,-1
 389 315 l 1,14,-1
 480 315 l 1,15,-1
 572 162 l 1,16,17
 591 195 591 195 591 236 c 4,0,1
670 473 m 0,18,19
 670 297 670 297 670 236 c 0,20,21
 670 151 670 151 617 88 c 1,22,-1
 670 0 l 1,23,-1
 578 0 l 1,24,-1
 557 34 l 1,25,26
 502 0 502 0 433 0 c 0,27,28
 335 0 335 0 266 69 c 128,-1,29
 197 138 197 138 197 236 c 2,30,31
 197 236 197 236 197 473 c 0,32,33
 197 571 197 571 266 640 c 128,-1,34
 335 709 335 709 433 709 c 128,-1,35
 531 709 531 709 600.5 640 c 128,-1,36
 670 571 670 571 670 473 c 0,18,19
EndSplineSet
MultipleSubs2: "cartouched sitelen" Q cartouche.body
EndChar

StartChar: R
Encoding: 82 82 182
Width: 866
Flags: MW
LayerCount: 2
Fore
SplineSet
276 630 m 1,0,-1
 276 354 l 1,1,2
 408 354 408 354 453 354 c 0,3,4
 489 354 489 354 521 372 c 128,-1,5
 553 390 553 390 572 422.5 c 128,-1,6
 591 455 591 455 591 491.5 c 128,-1,7
 591 528 591 528 573 560.5 c 128,-1,8
 555 593 555 593 522.5 611.5 c 128,-1,9
 490 630 490 630 453 630 c 2,10,-1
 276 630 l 1,0,-1
197 709 m 1,11,-1
 453 709 l 6,12,13
 511 709 511 709 562 679.5 c 128,-1,14
 613 650 613 650 641.5 599 c 128,-1,15
 670 548 670 548 670 491 c 128,-1,16
 670 434 670 434 640 383 c 0,17,18
 597 308 597 308 512 284 c 1,19,-1
 670 0 l 1,20,-1
 579 0 l 1,21,-1
 426 276 l 1,22,-1
 276 276 l 1,23,-1
 276 0 l 1,24,-1
 197 0 l 1,25,-1
 197 709 l 1,11,-1
EndSplineSet
MultipleSubs2: "cartouched sitelen" R cartouche.body
EndChar

StartChar: S
Encoding: 83 83 183
Width: 866
Flags: MW
LayerCount: 2
Fore
SplineSet
453 0 m 0,0,1
 430 0 430 0 419 0 c 2,2,-1
 414 0 l 2,3,4
 324 0 324 0 260.5 63.5 c 128,-1,5
 197 127 197 127 197 217 c 1,6,7
 276 217 276 217 276 217 c 1,8,9
 276 160 276 160 316 119.5 c 128,-1,10
 356 79 356 79 414 79 c 2,11,-1
 453 79 l 2,12,13
 510 79 510 79 550.5 119.5 c 128,-1,14
 591 160 591 160 591 208.5 c 128,-1,15
 591 257 591 257 562 286 c 128,-1,16
 533 315 533 315 492 315 c 2,17,-1
 374 315 l 2,18,19
 301 315 301 315 249 367 c 128,-1,20
 197 419 197 419 197 500.5 c 128,-1,21
 197 582 197 582 260.5 645.5 c 128,-1,22
 324 709 324 709 414 709 c 2,23,24
 414 709 414 709 447 709 c 2,25,-1
 453 709 l 2,26,27
 543 709 543 709 606.5 645.5 c 128,-1,28
 670 582 670 582 670 492 c 1,29,30
 591 492 591 492 591 492 c 1,31,32
 591 549 591 549 550.5 589.5 c 128,-1,33
 510 630 510 630 453 630 c 6,34,35
 453 630 453 630 414 630 c 4,36,37
 357 630 357 630 316.5 589.5 c 128,-1,38
 276 549 276 549 276 500.5 c 128,-1,39
 276 452 276 452 304.5 423 c 128,-1,40
 333 394 333 394 374 394 c 2,41,-1
 492 394 l 2,42,43
 565 394 565 394 617.5 342 c 128,-1,44
 670 290 670 290 670 208.5 c 128,-1,45
 670 127 670 127 606.5 63.5 c 128,-1,46
 543 0 543 0 453 0 c 0,0,1
EndSplineSet
MultipleSubs2: "cartouched sitelen" S cartouche.body
EndChar

StartChar: T
Encoding: 84 84 184
Width: 866
Flags: MW
LayerCount: 2
Fore
SplineSet
197 709 m 1,0,1
 197 709 197 709 670 709 c 5,2,-1
 670 630 l 1,3,-1
 473 630 l 1,4,-1
 473 0 l 1,5,-1
 394 0 l 1,6,-1
 394 630 l 1,7,-1
 197 630 l 1,8,-1
 197 709 l 1,0,1
EndSplineSet
MultipleSubs2: "cartouched sitelen" T cartouche.body
EndChar

StartChar: U
Encoding: 85 85 185
Width: 866
Flags: MW
LayerCount: 2
Fore
SplineSet
276 236 m 6,0,1
 276 171 276 171 322 125 c 0,2,3
 368 79 368 79 433.5 79 c 128,-1,4
 499 79 499 79 545 125 c 0,5,6
 591 171 591 171 591 236 c 2,7,-1
 591 709 l 1,8,-1
 670 709 l 1,9,-1
 670 236 l 2,10,11
 670 138 670 138 600.5 69 c 128,-1,12
 531 0 531 0 433.5 0 c 128,-1,13
 336 0 336 0 266.5 69.5 c 128,-1,14
 197 139 197 139 197 236 c 2,15,-1
 197 709 l 1,16,-1
 276 709 l 5,17,-1
 276 236 l 6,0,1
EndSplineSet
MultipleSubs2: "cartouched sitelen" U cartouche.body
EndChar

StartChar: V
Encoding: 86 86 186
Width: 866
Flags: MW
LayerCount: 2
Fore
SplineSet
197 709 m 1,0,-1
 279 709 l 1,1,-1
 433 148 l 1,2,-1
 588 709 l 1,3,-1
 670 709 l 1,4,-1
 474 0 l 5,5,6
 474 0 474 0 392 0 c 1,7,-1
 197 709 l 1,0,-1
EndSplineSet
MultipleSubs2: "cartouched sitelen" V cartouche.body
EndChar

StartChar: W
Encoding: 87 87 187
Width: 866
Flags: MW
LayerCount: 2
Fore
SplineSet
158 709 m 1,0,-1
 238 709 l 1,1,-1
 335 207 l 1,2,-1
 393 509 l 1,3,-1
 473 509 l 1,4,-1
 532 207 l 1,5,-1
 629 709 l 1,6,-1
 709 709 l 1,7,-1
 572 0 l 1,8,-1
 492 0 l 1,9,-1
 433 302 l 1,10,-1
 375 0 l 1,11,-1
 295 0 l 1,12,-1
 158 709 l 1,0,-1
EndSplineSet
MultipleSubs2: "cartouched sitelen" W cartouche.body
EndChar

StartChar: X
Encoding: 88 88 188
Width: 866
Flags: MW
LayerCount: 2
Fore
SplineSet
197 709 m 1,0,-1
 286 709 l 1,1,-1
 433 437 l 1,2,-1
 580 709 l 1,3,-1
 670 709 l 1,4,-1
 478 354 l 1,5,-1
 670 0 l 1,6,-1
 580 0 l 1,7,-1
 433 272 l 1,8,-1
 286 0 l 1,9,-1
 197 0 l 1,10,-1
 388 354 l 1,11,-1
 197 709 l 1,0,-1
EndSplineSet
MultipleSubs2: "cartouched sitelen" X cartouche.body
EndChar

StartChar: Y
Encoding: 89 89 189
Width: 866
Flags: MW
LayerCount: 2
Fore
SplineSet
159 847 m 1025,0,-1
197 709 m 1,1,-1
 286 709 l 1,2,-1
 433 437 l 1,3,-1
 580 709 l 1,4,-1
 670 709 l 1,5,6
 670 708 670 708 473 344 c 1,7,8
 473 344 473 344 473 0 c 1,9,-1
 394 0 l 5,10,11
 394 0 394 0 394 344 c 5,12,-1
 197 709 l 1,1,-1
EndSplineSet
MultipleSubs2: "cartouched sitelen" Y cartouche.body
EndChar

StartChar: Z
Encoding: 90 90 190
Width: 866
Flags: MW
LayerCount: 2
Fore
SplineSet
197 709 m 1,0,-1
 670 709 l 1,1,-1
 670 630 l 1,2,-1
 292 79 l 1,3,-1
 670 79 l 1,4,-1
 670 0 l 1,5,-1
 197 0 l 1,6,-1
 197 79 l 1,7,-1
 574 630 l 1,8,-1
 197 630 l 1,9,-1
 197 709 l 1,0,-1
EndSplineSet
MultipleSubs2: "cartouched sitelen" Z cartouche.body
EndChar

StartChar: zero
Encoding: 48 48 191
Width: 866
Flags: MW
LayerCount: 2
Fore
SplineSet
315 417 m 1,0,-1
 315 197 l 2,1,2
 315 148 315 148 349.5 113.5 c 128,-1,3
 384 79 384 79 433 79 c 0,4,5
 478 79 478 79 511.5 108.5 c 128,-1,6
 545 138 545 138 550 182 c 1,7,-1
 315 417 l 1,0,-1
433 630 m 0,8,9
 388 630 388 630 355 600 c 128,-1,10
 322 570 322 570 317 527 c 1,11,-1
 551 292 l 1,12,13
 551 512 551 512 551 512 c 1,14,15
 551 561 551 561 516.5 595.5 c 128,-1,16
 482 630 482 630 433 630 c 0,8,9
433.5 709 m 128,-1,18
 515 709 515 709 572.5 651.5 c 128,-1,19
 630 594 630 594 630 512 c 4,20,21
 630 197 630 197 630 197 c 5,22,23
 630 115 630 115 572.5 57.5 c 128,-1,24
 515 0 515 0 433.5 0 c 128,-1,25
 352 0 352 0 294 57.5 c 128,-1,26
 236 115 236 115 236 197 c 0,27,28
 236 512 236 512 236 512 c 1,29,30
 236 594 236 594 294 651.5 c 128,-1,17
 352 709 352 709 433.5 709 c 128,-1,18
EndSplineSet
EndChar

StartChar: one
Encoding: 49 49 192
Width: 866
Flags: MW
LayerCount: 2
Fore
SplineSet
236 0 m 1,0,-1
 236 79 l 1,1,-1
 394 79 l 1,2,3
 394 533 394 533 394 533 c 1,4,5
 327 473 327 473 236 473 c 1,6,-1
 236 551 l 1,7,8
 301 551 301 551 348 598 c 0,9,10
 394 644 394 644 394 709 c 1,11,-1
 473 709 l 1,12,-1
 473 79 l 1,13,-1
 630 79 l 1,14,-1
 630 0 l 1,15,16
 630 0 630 0 236 0 c 1,0,-1
EndSplineSet
EndChar

StartChar: two
Encoding: 50 50 193
Width: 866
Flags: MW
LayerCount: 2
Fore
SplineSet
433.5 709 m 128,-1,1
 515 709 515 709 572.5 651.5 c 128,-1,2
 630 594 630 594 630 518.5 c 128,-1,3
 630 443 630 443 587 389 c 2,4,-1
 337 79 l 1,5,-1
 630 79 l 1,6,-1
 630 0 l 1,7,-1
 236 0 l 1,8,-1
 236 79 l 1,9,-1
 427 316 l 5,10,-1
 525 438 l 2,11,12
 551 470 551 470 551 515.5 c 128,-1,13
 551 561 551 561 516.5 595.5 c 128,-1,14
 482 630 482 630 433 630 c 128,-1,15
 384 630 384 630 349.5 595.5 c 128,-1,16
 315 561 315 561 315 512 c 1,17,-1
 236 512 l 1,18,19
 236 594 236 594 294 651.5 c 128,-1,0
 352 709 352 709 433.5 709 c 128,-1,1
EndSplineSet
EndChar

StartChar: three
Encoding: 51 51 194
Width: 866
Flags: MW
LayerCount: 2
Fore
SplineSet
236 197 m 1,0,1
 241 197 241 197 249.5 197 c 128,-1,2
 258 197 258 197 275 197 c 128,-1,3
 292 197 292 197 304 197 c 2,4,-1
 315 197 l 1,5,6
 315 148 315 148 349.5 113.5 c 128,-1,7
 384 79 384 79 433 79 c 128,-1,8
 482 79 482 79 516.5 113.5 c 128,-1,9
 551 148 551 148 551 197 c 1,10,-1
 551 197 l 1,11,-1
 551 276 l 1,12,-1
 551 276 l 1,13,14
 551 325 551 325 516.5 359.5 c 128,-1,15
 482 394 482 394 433 394 c 0,16,17
 390 394 390 394 357 365 c 1,18,-1
 302 422 l 1,19,-1
 517 630 l 1,20,-1
 236 630 l 1,21,-1
 236 709 l 1,22,-1
 630 709 l 1,23,-1
 630 630 l 1,24,-1
 465 470 l 1,25,26
 536 459 536 459 583 404 c 128,-1,27
 630 349 630 349 630 276 c 1,28,-1
 630 276 l 1,29,-1
 630 197 l 1,30,-1
 630 197 l 1,31,32
 630 115 630 115 572.5 57.5 c 128,-1,33
 515 0 515 0 433.5 0 c 128,-1,34
 352 0 352 0 294 57.5 c 128,-1,35
 236 115 236 115 236 197 c 1,0,1
EndSplineSet
EndChar

StartChar: four
Encoding: 52 52 195
Width: 866
Flags: MW
LayerCount: 2
Fore
SplineSet
473 709 m 1,0,-1
 551 709 l 5,1,2
 551 709 551 709 551 315 c 5,3,-1
 630 315 l 1,4,-1
 630 236 l 1,5,-1
 551 236 l 1,6,-1
 551 0 l 1,7,-1
 473 0 l 1,8,-1
 473 236 l 1,9,-1
 236 236 l 1,10,-1
 236 315 l 1,11,-1
 473 709 l 1,0,-1
473 556 m 1,12,-1
 328 315 l 1,13,-1
 473 315 l 1,14,-1
 473 556 l 1,12,-1
EndSplineSet
EndChar

StartChar: five
Encoding: 53 53 196
Width: 866
Flags: MW
LayerCount: 2
Fore
SplineSet
236 709 m 5,0,-1
 630 709 l 1,1,-1
 630 630 l 1,2,-1
 315 630 l 1,3,4
 315 453 315 453 315 453 c 1,5,6
 367 492 367 492 441 492 c 128,-1,7
 515 492 515 492 572.5 434.5 c 128,-1,8
 630 377 630 377 630 287 c 128,-1,9
 630 197 630 197 630 197 c 1,10,11
 630 115 630 115 572.5 57.5 c 128,-1,12
 515 0 515 0 433.5 0 c 128,-1,13
 352 0 352 0 294 57.5 c 128,-1,14
 236 115 236 115 236 197 c 1,15,16
 282 197 282 197 304 197 c 2,17,-1
 315 197 l 1,18,19
 315 148 315 148 349.5 113.5 c 128,-1,20
 384 79 384 79 433 79 c 128,-1,21
 482 79 482 79 516.5 113.5 c 128,-1,22
 551 148 551 148 551 201 c 128,-1,23
 551 254 551 254 551 281 c 2,24,-1
 551 295 l 2,25,26
 551 344 551 344 516.5 379 c 128,-1,27
 482 414 482 414 433 414 c 128,-1,28
 384 414 384 414 349.5 379 c 128,-1,29
 315 344 315 344 315 295 c 1,30,-1
 236 295 l 5,31,-1
 236 709 l 5,0,-1
EndSplineSet
EndChar

StartChar: six
Encoding: 54 54 197
Width: 866
Flags: MW
LayerCount: 2
Fore
SplineSet
433 315 m 128,-1,1
 384 315 384 315 349.5 280.5 c 128,-1,2
 315 246 315 246 315 197 c 128,-1,3
 315 148 315 148 349.5 113.5 c 128,-1,4
 384 79 384 79 433 79 c 128,-1,5
 482 79 482 79 516.5 113.5 c 128,-1,6
 551 148 551 148 551 197 c 128,-1,7
 551 246 551 246 516.5 280.5 c 128,-1,0
 482 315 482 315 433 315 c 128,-1,1
473 709 m 1,8,-1
 543 673 l 5,9,10
 459 508 459 508 420 432 c 2,11,-1
 399 391 l 1,12,13
 416 394 416 394 433 394 c 0,14,15
 515 394 515 394 572.5 336 c 128,-1,16
 630 278 630 278 630 196.5 c 128,-1,17
 630 115 630 115 572.5 57.5 c 128,-1,18
 515 0 515 0 433.5 0 c 128,-1,19
 352 0 352 0 294 57.5 c 128,-1,20
 236 115 236 115 236 197 c 0,21,22
 236 244 236 244 258 286 c 1,23,-1
 258 286 l 1,24,-1
 473 709 l 1,8,-1
EndSplineSet
EndChar

StartChar: seven
Encoding: 55 55 198
Width: 866
Flags: MW
LayerCount: 2
Fore
SplineSet
236 709 m 1,0,-1
 630 709 l 1,1,-1
 630 630 l 1,2,-1
 394 0 l 1,3,-1
 310 0 l 1,4,-1
 546 630 l 1,5,-1
 236 630 l 1,6,-1
 236 709 l 1,0,-1
EndSplineSet
EndChar

StartChar: eight
Encoding: 56 56 199
Width: 866
Flags: MW
LayerCount: 2
Fore
SplineSet
433 315 m 128,-1,1
 384 315 384 315 349.5 280.5 c 128,-1,2
 315 246 315 246 315 197 c 128,-1,3
 315 148 315 148 349.5 113.5 c 128,-1,4
 384 79 384 79 433 79 c 128,-1,5
 482 79 482 79 516.5 113.5 c 128,-1,6
 551 148 551 148 551 197 c 128,-1,7
 551 246 551 246 516.5 280.5 c 128,-1,0
 482 315 482 315 433 315 c 128,-1,1
433 630 m 128,-1,9
 384 630 384 630 349.5 595.5 c 128,-1,10
 315 561 315 561 315 512 c 128,-1,11
 315 463 315 463 349.5 428.5 c 128,-1,12
 384 394 384 394 433 394 c 128,-1,13
 482 394 482 394 516.5 428.5 c 128,-1,14
 551 463 551 463 551 512 c 128,-1,15
 551 561 551 561 516.5 595.5 c 128,-1,8
 482 630 482 630 433 630 c 128,-1,9
433.5 709 m 128,-1,17
 515 709 515 709 572.5 651.5 c 128,-1,18
 630 594 630 594 630 512 c 0,19,20
 630 464 630 464 609 423 c 128,-1,21
 588 382 588 382 551 354 c 1,22,23
 588 327 588 327 609 285.5 c 128,-1,24
 630 244 630 244 630 197 c 0,25,26
 630 115 630 115 572.5 57.5 c 128,-1,27
 515 0 515 0 433.5 0 c 128,-1,28
 352 0 352 0 294 57.5 c 128,-1,29
 236 115 236 115 236 197 c 0,30,31
 236 245 236 245 257.5 286 c 128,-1,32
 279 327 279 327 316 354 c 1,33,34
 279 381 279 381 257.5 422.5 c 128,-1,35
 236 464 236 464 236 512 c 0,36,37
 236 594 236 594 294 651.5 c 128,-1,16
 352 709 352 709 433.5 709 c 128,-1,17
EndSplineSet
EndChar

StartChar: nine
Encoding: 57 57 200
Width: 866
Flags: MW
LayerCount: 2
Fore
SplineSet
433 394 m 128,-1,1
 482 394 482 394 516.5 428.5 c 128,-1,2
 551 463 551 463 551 512 c 128,-1,3
 551 561 551 561 516.5 595.5 c 128,-1,4
 482 630 482 630 433 630 c 128,-1,5
 384 630 384 630 349.5 595.5 c 128,-1,6
 315 561 315 561 315 512 c 128,-1,7
 315 463 315 463 349.5 428.5 c 128,-1,0
 384 394 384 394 433 394 c 128,-1,1
394 0 m 1,8,-1
 324 36 l 1,9,10
 408 201 408 201 446 277 c 2,11,-1
 467 318 l 1,12,13
 450 315 450 315 433 315 c 0,14,15
 351 315 351 315 293.5 372.5 c 128,-1,16
 236 430 236 430 236 512 c 128,-1,17
 236 594 236 594 294 651.5 c 128,-1,18
 352 709 352 709 433.5 709 c 128,-1,19
 515 709 515 709 572.5 651.5 c 128,-1,20
 630 594 630 594 630 512 c 0,21,22
 630 465 630 465 608 423 c 1,23,-1
 609 423 l 1,24,-1
 394 0 l 1,8,-1
EndSplineSet
EndChar

StartChar: ku.t
Encoding: 989576 989576 201
Width: 672
Flags: MW
LayerCount: 2
Fore
SplineSet
395 315.5 m 128,-1,1
 411.5 332 411.5 332 434.5 332 c 128,-1,2
 457.5 332 457.5 332 474 315.5 c 128,-1,3
 490.5 299 490.5 299 490.5 276 c 128,-1,4
 490.5 253 490.5 253 474 236.5 c 128,-1,5
 457.5 220 457.5 220 434.5 220 c 128,-1,6
 411.5 220 411.5 220 395 236.5 c 128,-1,7
 378.5 253 378.5 253 378.5 276 c 128,-1,0
 378.5 299 378.5 299 395 315.5 c 128,-1,1
315.5 414 m 1,8,-1
 376.5 79 l 1,9,-1
 532.5 79 l 1,10,-1
 532.5 375 l 1,11,-1
 315.5 414 l 1,8,-1
532.5 550 m 1,12,-1
 365.5 485 l 1,13,-1
 532.5 455 l 1,14,-1
 532.5 550 l 1,12,-1
138.5 630 m 1,15,-1
 138.5 79 l 1,16,-1
 296.5 79 l 1,17,-1
 217.5 512 l 1,18,-1
 521.5 630 l 1,19,-1
 138.5 630 l 1,15,-1
60.5 709 m 1,20,-1
 611.5 709 l 1,21,-1
 611.5 0 l 1,22,-1
 60.5 0 l 1,23,-1
 60.5 709 l 1,20,-1
EndSplineSet
MultipleSubs2: "cartouched sitelen" ku.t cartouche.body
Ligature2: "sitelen+-space" k u space
Ligature2: "sitelen" k u
EndChar

StartChar: misikeke.t
Encoding: 989575 989575 202
Width: 672
Flags: MW
LayerCount: 2
Fore
SplineSet
256.5 315 m 1,0,-1
 256.5 158 l 2,1,2
 256.5 125 256.5 125 280 102 c 128,-1,3
 303.5 79 303.5 79 336 79 c 128,-1,4
 368.5 79 368.5 79 391.5 102 c 128,-1,5
 414.5 125 414.5 125 414.5 158 c 2,6,-1
 414.5 315 l 1,7,-1
 256.5 315 l 1,0,-1
336 630 m 128,-1,9
 303.5 630 303.5 630 280 607 c 128,-1,10
 256.5 584 256.5 584 256.5 551 c 2,11,-1
 256.5 394 l 1,12,-1
 414.5 394 l 1,13,-1
 414.5 551 l 2,14,15
 414.5 584 414.5 584 391.5 607 c 128,-1,8
 368.5 630 368.5 630 336 630 c 128,-1,9
335.5 709 m 128,-1,17
 400.5 709 400.5 709 447 663 c 128,-1,18
 493.5 617 493.5 617 493.5 551 c 2,19,-1
 493.5 158 l 2,20,21
 493.5 93 493.5 93 447 46.5 c 128,-1,22
 400.5 0 400.5 0 335.5 0 c 128,-1,23
 270.5 0 270.5 0 224.5 46 c 128,-1,24
 178.5 92 178.5 92 178.5 158 c 2,25,-1
 178.5 551 l 2,26,27
 178.5 616 178.5 616 224.5 662.5 c 128,-1,16
 270.5 709 270.5 709 335.5 709 c 128,-1,17
EndSplineSet
MultipleSubs2: "cartouched sitelen" misikeke.t cartouche.body
Ligature2: "sitelen+-space" m i s i k e k e space
Ligature2: "sitelen" m i s i k e k e
EndChar

